<ttFont>
    <TTGlyph name="A" xMin="-2" yMin="0" xMax="669" yMax="710">
      <contour>
        <pt x="245" y="710" on="1"/>
        <pt x="423" y="710" on="1"/>
        <pt x="669" y="0" on="1"/>
        <pt x="471" y="0" on="1"/>
        <pt x="428" y="139" on="1"/>
        <pt x="239" y="139" on="1"/>
        <pt x="197" y="0" on="1"/>
        <pt x="-2" y="0" on="1"/>
      </contour>
      <contour>
        <pt x="397" y="269" on="1"/>
        <pt x="334" y="489" on="1"/>
        <pt x="268" y="269" on="1"/>
      </contour>
    </TTGlyph>
    <TTGlyph name="A.sc" xMin="-9" yMin="0" xMax="608" yMax="568">
      <contour>
        <pt x="-9" y="0" on="1"/>
        <pt x="231" y="568" on="1"/>
        <pt x="369" y="568" on="1"/>
        <pt x="608" y="0" on="1"/>
        <pt x="428" y="0" on="1"/>
        <pt x="387" y="102" on="1"/>
        <pt x="212" y="102" on="1"/>
        <pt x="172" y="0" on="1"/>
      </contour>
      <contour>
        <pt x="300" y="363" on="1"/>
        <pt x="248" y="250" on="1"/>
        <pt x="349" y="250" on="1"/>
      </contour>
    </TTGlyph>
    <TTGlyph name="AE" xMin="-26" yMin="0" xMax="941" yMax="710">
      <contour>
        <pt x="405" y="710" on="1"/>
        <pt x="932" y="710" on="1"/>
        <pt x="932" y="540" on="1"/>
        <pt x="650" y="540" on="1"/>
        <pt x="650" y="446" on="1"/>
        <pt x="878" y="446" on="1"/>
        <pt x="878" y="276" on="1"/>
        <pt x="650" y="276" on="1"/>
        <pt x="650" y="170" on="1"/>
        <pt x="941" y="170" on="1"/>
        <pt x="941" y="0" on="1"/>
        <pt x="456" y="0" on="1"/>
        <pt x="456" y="139" on="1"/>
        <pt x="255" y="139" on="1"/>
        <pt x="180" y="0" on="1"/>
        <pt x="-26" y="0" on="1"/>
      </contour>
      <contour>
        <pt x="441" y="309" on="1"/>
        <pt x="441" y="495" on="1"/>
        <pt x="337" y="309" on="1"/>
      </contour>
    </TTGlyph>
    <TTGlyph name="AEacute" xMin="-26" yMin="0" xMax="941" yMax="914">
      <contour>
        <pt x="405" y="710" on="1"/>
        <pt x="932" y="710" on="1"/>
        <pt x="932" y="540" on="1"/>
        <pt x="650" y="540" on="1"/>
        <pt x="650" y="446" on="1"/>
        <pt x="878" y="446" on="1"/>
        <pt x="878" y="276" on="1"/>
        <pt x="650" y="276" on="1"/>
        <pt x="650" y="170" on="1"/>
        <pt x="941" y="170" on="1"/>
        <pt x="941" y="0" on="1"/>
        <pt x="456" y="0" on="1"/>
        <pt x="456" y="139" on="1"/>
        <pt x="255" y="139" on="1"/>
        <pt x="180" y="0" on="1"/>
        <pt x="-26" y="0" on="1"/>
      </contour>
      <contour>
        <pt x="441" y="309" on="1"/>
        <pt x="441" y="495" on="1"/>
        <pt x="337" y="309" on="1"/>
      </contour>
      <contour>
        <pt x="683" y="740" on="1"/>
        <pt x="563" y="772" on="1"/>
        <pt x="613" y="914" on="1"/>
        <pt x="782" y="914" on="1"/>
      </contour>
    </TTGlyph>
    <TTGlyph name="Aacute" xMin="-2" yMin="0" xMax="669" yMax="914">
      <contour>
        <pt x="245" y="710" on="1"/>
        <pt x="423" y="710" on="1"/>
        <pt x="669" y="0" on="1"/>
        <pt x="471" y="0" on="1"/>
        <pt x="428" y="139" on="1"/>
        <pt x="239" y="139" on="1"/>
        <pt x="197" y="0" on="1"/>
        <pt x="-2" y="0" on="1"/>
      </contour>
      <contour>
        <pt x="397" y="269" on="1"/>
        <pt x="334" y="489" on="1"/>
        <pt x="268" y="269" on="1"/>
      </contour>
      <contour>
        <pt x="392" y="740" on="1"/>
        <pt x="272" y="772" on="1"/>
        <pt x="322" y="914" on="1"/>
        <pt x="491" y="914" on="1"/>
      </contour>
    </TTGlyph>
    <TTGlyph name="Abreve" xMin="-2" yMin="0" xMax="669" yMax="914">
      <contour>
        <pt x="245" y="710" on="1"/>
        <pt x="423" y="710" on="1"/>
        <pt x="669" y="0" on="1"/>
        <pt x="471" y="0" on="1"/>
        <pt x="428" y="139" on="1"/>
        <pt x="239" y="139" on="1"/>
        <pt x="197" y="0" on="1"/>
        <pt x="-2" y="0" on="1"/>
      </contour>
      <contour>
        <pt x="397" y="269" on="1"/>
        <pt x="334" y="489" on="1"/>
        <pt x="268" y="269" on="1"/>
      </contour>
      <contour>
        <pt x="334" y="833" on="1"/>
        <pt x="357" y="833" on="0"/>
        <pt x="392" y="879" on="0"/>
        <pt x="395" y="914" on="1"/>
        <pt x="493" y="914" on="1"/>
        <pt x="493" y="878" on="0"/>
        <pt x="470" y="819" on="0"/>
        <pt x="428" y="776" on="0"/>
        <pt x="369" y="752" on="0"/>
        <pt x="334" y="752" on="1"/>
        <pt x="299" y="752" on="0"/>
        <pt x="240" y="776" on="0"/>
        <pt x="198" y="819" on="0"/>
        <pt x="175" y="878" on="0"/>
        <pt x="175" y="914" on="1"/>
        <pt x="273" y="914" on="1"/>
        <pt x="273" y="881" on="0"/>
        <pt x="309" y="833" on="0"/>
      </contour>
    </TTGlyph>
    <TTGlyph name="Acircumflex" xMin="-2" yMin="0" xMax="669" yMax="914">
      <contour>
        <pt x="245" y="710" on="1"/>
        <pt x="423" y="710" on="1"/>
        <pt x="669" y="0" on="1"/>
        <pt x="471" y="0" on="1"/>
        <pt x="428" y="139" on="1"/>
        <pt x="239" y="139" on="1"/>
        <pt x="197" y="0" on="1"/>
        <pt x="-2" y="0" on="1"/>
      </contour>
      <contour>
        <pt x="397" y="269" on="1"/>
        <pt x="334" y="489" on="1"/>
        <pt x="268" y="269" on="1"/>
      </contour>
      <contour>
        <pt x="153" y="799" on="1"/>
        <pt x="266" y="914" on="1"/>
        <pt x="402" y="914" on="1"/>
        <pt x="515" y="799" on="1"/>
        <pt x="419" y="757" on="1"/>
        <pt x="334" y="820" on="1"/>
        <pt x="249" y="757" on="1"/>
      </contour>
    </TTGlyph>
    <TTGlyph name="Adblgrave" xMin="-2" yMin="0" xMax="669" yMax="915">
      <contour>
        <pt x="245" y="710" on="1"/>
        <pt x="423" y="710" on="1"/>
        <pt x="669" y="0" on="1"/>
        <pt x="471" y="0" on="1"/>
        <pt x="428" y="139" on="1"/>
        <pt x="239" y="139" on="1"/>
        <pt x="197" y="0" on="1"/>
        <pt x="-2" y="0" on="1"/>
      </contour>
      <contour>
        <pt x="397" y="269" on="1"/>
        <pt x="334" y="489" on="1"/>
        <pt x="268" y="269" on="1"/>
      </contour>
      <contour>
        <pt x="323" y="915" on="1"/>
        <pt x="462" y="915" on="1"/>
        <pt x="502" y="773" on="1"/>
        <pt x="412" y="741" on="1"/>
      </contour>
      <contour>
        <pt x="133" y="915" on="1"/>
        <pt x="272" y="915" on="1"/>
        <pt x="312" y="773" on="1"/>
        <pt x="222" y="741" on="1"/>
      </contour>
    </TTGlyph>
    <TTGlyph name="Adieresis" xMin="-2" yMin="0" xMax="669" yMax="905">
      <contour>
        <pt x="245" y="710" on="1"/>
        <pt x="423" y="710" on="1"/>
        <pt x="669" y="0" on="1"/>
        <pt x="471" y="0" on="1"/>
        <pt x="428" y="139" on="1"/>
        <pt x="239" y="139" on="1"/>
        <pt x="197" y="0" on="1"/>
        <pt x="-2" y="0" on="1"/>
      </contour>
      <contour>
        <pt x="397" y="269" on="1"/>
        <pt x="334" y="489" on="1"/>
        <pt x="268" y="269" on="1"/>
      </contour>
      <contour>
        <pt x="141" y="765" on="1"/>
        <pt x="141" y="905" on="1"/>
        <pt x="297" y="905" on="1"/>
        <pt x="297" y="765" on="1"/>
      </contour>
      <contour>
        <pt x="371" y="765" on="1"/>
        <pt x="371" y="905" on="1"/>
        <pt x="527" y="905" on="1"/>
        <pt x="527" y="765" on="1"/>
      </contour>
    </TTGlyph>
    <TTGlyph name="Agrave" xMin="-2" yMin="0" xMax="669" yMax="915">
      <contour>
        <pt x="245" y="710" on="1"/>
        <pt x="423" y="710" on="1"/>
        <pt x="669" y="0" on="1"/>
        <pt x="471" y="0" on="1"/>
        <pt x="428" y="139" on="1"/>
        <pt x="239" y="139" on="1"/>
        <pt x="197" y="0" on="1"/>
        <pt x="-2" y="0" on="1"/>
      </contour>
      <contour>
        <pt x="397" y="269" on="1"/>
        <pt x="334" y="489" on="1"/>
        <pt x="268" y="269" on="1"/>
      </contour>
      <contour>
        <pt x="177" y="915" on="1"/>
        <pt x="346" y="915" on="1"/>
        <pt x="396" y="773" on="1"/>
        <pt x="276" y="741" on="1"/>
      </contour>
    </TTGlyph>
    <TTGlyph name="Ainvertedbreve" xMin="-2" yMin="0" xMax="669" yMax="914">
      <contour>
        <pt x="245" y="710" on="1"/>
        <pt x="423" y="710" on="1"/>
        <pt x="669" y="0" on="1"/>
        <pt x="471" y="0" on="1"/>
        <pt x="428" y="139" on="1"/>
        <pt x="239" y="139" on="1"/>
        <pt x="197" y="0" on="1"/>
        <pt x="-2" y="0" on="1"/>
      </contour>
      <contour>
        <pt x="397" y="269" on="1"/>
        <pt x="334" y="489" on="1"/>
        <pt x="268" y="269" on="1"/>
      </contour>
      <contour>
        <pt x="334" y="833" on="1"/>
        <pt x="309" y="833" on="0"/>
        <pt x="273" y="785" on="0"/>
        <pt x="273" y="752" on="1"/>
        <pt x="175" y="752" on="1"/>
        <pt x="175" y="788" on="0"/>
        <pt x="198" y="847" on="0"/>
        <pt x="240" y="890" on="0"/>
        <pt x="299" y="914" on="0"/>
        <pt x="334" y="914" on="1"/>
        <pt x="369" y="914" on="0"/>
        <pt x="428" y="890" on="0"/>
        <pt x="470" y="847" on="0"/>
        <pt x="493" y="788" on="0"/>
        <pt x="493" y="752" on="1"/>
        <pt x="395" y="752" on="1"/>
        <pt x="392" y="787" on="0"/>
        <pt x="357" y="833" on="0"/>
      </contour>
    </TTGlyph>
    <TTGlyph name="Amacron" xMin="-2" yMin="0" xMax="669" yMax="904">
      <contour>
        <pt x="245" y="710" on="1"/>
        <pt x="423" y="710" on="1"/>
        <pt x="669" y="0" on="1"/>
        <pt x="471" y="0" on="1"/>
        <pt x="428" y="139" on="1"/>
        <pt x="239" y="139" on="1"/>
        <pt x="197" y="0" on="1"/>
        <pt x="-2" y="0" on="1"/>
      </contour>
      <contour>
        <pt x="397" y="269" on="1"/>
        <pt x="334" y="489" on="1"/>
        <pt x="268" y="269" on="1"/>
      </contour>
      <contour>
        <pt x="180" y="791" on="1"/>
        <pt x="180" y="904" on="1"/>
        <pt x="490" y="904" on="1"/>
        <pt x="490" y="791" on="1"/>
      </contour>
    </TTGlyph>
    <TTGlyph name="Aogonek" xMin="-2" yMin="-215" xMax="669" yMax="710">
      <contour>
        <pt x="632" y="-215" on="1"/>
        <pt x="554" y="-206" on="0"/>
        <pt x="480" y="-150" on="0"/>
        <pt x="480" y="-115" on="1"/>
        <pt x="480" y="-86" on="0"/>
        <pt x="523" y="-26" on="0"/>
        <pt x="566" y="0" on="1"/>
        <pt x="471" y="0" on="1"/>
        <pt x="428" y="139" on="1"/>
        <pt x="239" y="139" on="1"/>
        <pt x="197" y="0" on="1"/>
        <pt x="-2" y="0" on="1"/>
        <pt x="245" y="710" on="1"/>
        <pt x="423" y="710" on="1"/>
        <pt x="669" y="0" on="1"/>
        <pt x="634" y="-20" on="0"/>
        <pt x="597" y="-61" on="0"/>
        <pt x="597" y="-78" on="1"/>
        <pt x="597" y="-95" on="0"/>
        <pt x="631" y="-115" on="0"/>
        <pt x="667" y="-115" on="1"/>
      </contour>
      <contour>
        <pt x="397" y="269" on="1"/>
        <pt x="334" y="489" on="1"/>
        <pt x="268" y="269" on="1"/>
      </contour>
    </TTGlyph>
    <TTGlyph name="Aring" xMin="-2" yMin="0" xMax="669" yMax="914">
      <contour>
        <pt x="245" y="710" on="1"/>
        <pt x="423" y="710" on="1"/>
        <pt x="669" y="0" on="1"/>
        <pt x="471" y="0" on="1"/>
        <pt x="428" y="139" on="1"/>
        <pt x="239" y="139" on="1"/>
        <pt x="197" y="0" on="1"/>
        <pt x="-2" y="0" on="1"/>
      </contour>
      <contour>
        <pt x="397" y="269" on="1"/>
        <pt x="334" y="489" on="1"/>
        <pt x="268" y="269" on="1"/>
      </contour>
      <contour>
        <pt x="217" y="827" on="1"/>
        <pt x="217" y="871" on="0"/>
        <pt x="280" y="914" on="0"/>
        <pt x="334" y="914" on="1"/>
        <pt x="388" y="914" on="0"/>
        <pt x="451" y="871" on="0"/>
        <pt x="451" y="827" on="1"/>
        <pt x="451" y="783" on="0"/>
        <pt x="388" y="740" on="0"/>
        <pt x="334" y="740" on="1"/>
        <pt x="280" y="740" on="0"/>
        <pt x="217" y="783" on="0"/>
      </contour>
      <contour>
        <pt x="334" y="860" on="1"/>
        <pt x="317" y="860" on="0"/>
        <pt x="294" y="842" on="0"/>
        <pt x="294" y="828" on="1"/>
        <pt x="294" y="813" on="0"/>
        <pt x="317" y="794" on="0"/>
        <pt x="334" y="794" on="1"/>
        <pt x="351" y="794" on="0"/>
        <pt x="374" y="813" on="0"/>
        <pt x="374" y="828" on="1"/>
        <pt x="374" y="842" on="0"/>
        <pt x="351" y="860" on="0"/>
      </contour>
    </TTGlyph>
    <TTGlyph name="Aringacute" xMin="-2" yMin="0" xMax="669" yMax="918">
      <contour>
        <pt x="419" y="808" on="1"/>
        <pt x="451" y="786" on="0"/>
        <pt x="451" y="743" on="1"/>
        <pt x="451" y="708" on="0"/>
        <pt x="430" y="687" on="1"/>
        <pt x="669" y="0" on="1"/>
        <pt x="471" y="0" on="1"/>
        <pt x="428" y="139" on="1"/>
        <pt x="239" y="139" on="1"/>
        <pt x="197" y="0" on="1"/>
        <pt x="-2" y="0" on="1"/>
        <pt x="237" y="688" on="1"/>
        <pt x="217" y="710" on="0"/>
        <pt x="217" y="743" on="1"/>
        <pt x="217" y="775" on="0"/>
        <pt x="251" y="815" on="0"/>
        <pt x="283" y="824" on="1"/>
        <pt x="321" y="918" on="1"/>
        <pt x="490" y="918" on="1"/>
      </contour>
      <contour>
        <pt x="397" y="269" on="1"/>
        <pt x="334" y="489" on="1"/>
        <pt x="268" y="269" on="1"/>
      </contour>
      <contour>
        <pt x="334" y="776" on="1"/>
        <pt x="317" y="776" on="0"/>
        <pt x="294" y="758" on="0"/>
        <pt x="294" y="744" on="1"/>
        <pt x="294" y="729" on="0"/>
        <pt x="317" y="710" on="0"/>
        <pt x="334" y="710" on="1"/>
        <pt x="351" y="710" on="0"/>
        <pt x="374" y="729" on="0"/>
        <pt x="374" y="744" on="1"/>
        <pt x="374" y="758" on="0"/>
        <pt x="351" y="776" on="0"/>
      </contour>
    </TTGlyph>
    <TTGlyph name="Atilde" xMin="-2" yMin="0" xMax="669" yMax="914">
      <contour>
        <pt x="245" y="710" on="1"/>
        <pt x="423" y="710" on="1"/>
        <pt x="669" y="0" on="1"/>
        <pt x="471" y="0" on="1"/>
        <pt x="428" y="139" on="1"/>
        <pt x="239" y="139" on="1"/>
        <pt x="197" y="0" on="1"/>
        <pt x="-2" y="0" on="1"/>
      </contour>
      <contour>
        <pt x="397" y="269" on="1"/>
        <pt x="334" y="489" on="1"/>
        <pt x="268" y="269" on="1"/>
      </contour>
      <contour>
        <pt x="398" y="756" on="1"/>
        <pt x="375" y="756" on="0"/>
        <pt x="340" y="771" on="0"/>
        <pt x="310" y="789" on="0"/>
        <pt x="281" y="804" on="0"/>
        <pt x="264" y="804" on="1"/>
        <pt x="247" y="804" on="0"/>
        <pt x="229" y="790" on="0"/>
        <pt x="220" y="772" on="0"/>
        <pt x="218" y="757" on="0"/>
        <pt x="218" y="756" on="1"/>
        <pt x="117" y="756" on="1"/>
        <pt x="117" y="769" on="0"/>
        <pt x="132" y="822" on="0"/>
        <pt x="166" y="874" on="0"/>
        <pt x="218" y="914" on="0"/>
        <pt x="256" y="914" on="1"/>
        <pt x="280" y="914" on="0"/>
        <pt x="316" y="898" on="0"/>
        <pt x="346" y="879" on="0"/>
        <pt x="374" y="863" on="0"/>
        <pt x="391" y="863" on="1"/>
        <pt x="407" y="863" on="0"/>
        <pt x="427" y="878" on="0"/>
        <pt x="438" y="897" on="0"/>
        <pt x="441" y="913" on="0"/>
        <pt x="441" y="914" on="1"/>
        <pt x="541" y="914" on="1"/>
        <pt x="541" y="905" on="0"/>
        <pt x="525" y="854" on="0"/>
        <pt x="491" y="799" on="0"/>
        <pt x="437" y="756" on="0"/>
      </contour>
    </TTGlyph>
    <TTGlyph name="B" xMin="61" yMin="0" xMax="665" yMax="710">
      <contour>
        <pt x="665" y="182" on="1"/>
        <pt x="665" y="134" on="0"/>
        <pt x="625" y="65" on="0"/>
        <pt x="555" y="21" on="0"/>
        <pt x="462" y="0" on="0"/>
        <pt x="410" y="0" on="1"/>
        <pt x="61" y="0" on="1"/>
        <pt x="61" y="710" on="1"/>
        <pt x="473" y="710" on="1"/>
        <pt x="510" y="710" on="0"/>
        <pt x="570" y="678" on="0"/>
        <pt x="612" y="627" on="0"/>
        <pt x="635" y="562" on="0"/>
        <pt x="635" y="528" on="1"/>
        <pt x="635" y="478" on="0"/>
        <pt x="584" y="387" on="0"/>
        <pt x="533" y="364" on="1"/>
        <pt x="594" y="346" on="0"/>
        <pt x="665" y="257" on="0"/>
      </contour>
      <contour>
        <pt x="467" y="222" on="1"/>
        <pt x="467" y="248" on="0"/>
        <pt x="439" y="283" on="0"/>
        <pt x="417" y="283" on="1"/>
        <pt x="256" y="283" on="1"/>
        <pt x="256" y="164" on="1"/>
        <pt x="410" y="164" on="1"/>
        <pt x="434" y="164" on="0"/>
        <pt x="467" y="194" on="0"/>
      </contour>
      <contour>
        <pt x="256" y="544" on="1"/>
        <pt x="256" y="435" on="1"/>
        <pt x="389" y="435" on="1"/>
        <pt x="409" y="435" on="0"/>
        <pt x="442" y="457" on="0"/>
        <pt x="442" y="490" on="1"/>
        <pt x="442" y="519" on="0"/>
        <pt x="414" y="544" on="0"/>
        <pt x="395" y="544" on="1"/>
      </contour>
    </TTGlyph>
    <TTGlyph name="B.sc" xMin="55" yMin="0" xMax="587" yMax="568">
      <contour>
        <pt x="587" y="145" on="1"/>
        <pt x="587" y="106" on="0"/>
        <pt x="551" y="51" on="0"/>
        <pt x="490" y="16" on="0"/>
        <pt x="409" y="0" on="0"/>
        <pt x="363" y="0" on="1"/>
        <pt x="55" y="0" on="1"/>
        <pt x="55" y="568" on="1"/>
        <pt x="417" y="568" on="1"/>
        <pt x="450" y="568" on="0"/>
        <pt x="503" y="543" on="0"/>
        <pt x="540" y="501" on="0"/>
        <pt x="560" y="449" on="0"/>
        <pt x="560" y="422" on="1"/>
        <pt x="560" y="383" on="0"/>
        <pt x="515" y="309" on="0"/>
        <pt x="470" y="291" on="1"/>
        <pt x="524" y="277" on="0"/>
        <pt x="587" y="206" on="0"/>
      </contour>
      <contour>
        <pt x="414" y="181" on="1"/>
        <pt x="414" y="199" on="0"/>
        <pt x="389" y="221" on="0"/>
        <pt x="369" y="221" on="1"/>
        <pt x="225" y="221" on="1"/>
        <pt x="225" y="143" on="1"/>
        <pt x="363" y="143" on="1"/>
        <pt x="384" y="143" on="0"/>
        <pt x="414" y="161" on="0"/>
      </contour>
      <contour>
        <pt x="225" y="423" on="1"/>
        <pt x="225" y="354" on="1"/>
        <pt x="344" y="354" on="1"/>
        <pt x="362" y="354" on="0"/>
        <pt x="391" y="364" on="0"/>
        <pt x="391" y="389" on="1"/>
        <pt x="391" y="409" on="0"/>
        <pt x="366" y="423" on="0"/>
        <pt x="349" y="423" on="1"/>
      </contour>
    </TTGlyph>
    <TTGlyph name="C" xMin="22" yMin="-6" xMax="683" yMax="714">
      <contour>
        <pt x="22" y="361" on="1"/>
        <pt x="22" y="426" on="0"/>
        <pt x="71" y="552" on="0"/>
        <pt x="165" y="652" on="0"/>
        <pt x="299" y="714" on="0"/>
        <pt x="385" y="714" on="1"/>
        <pt x="488" y="714" on="0"/>
        <pt x="639" y="629" on="0"/>
        <pt x="676" y="559" on="1"/>
        <pt x="527" y="453" on="1"/>
        <pt x="517" y="479" on="0"/>
        <pt x="484" y="513" on="0"/>
        <pt x="444" y="533" on="0"/>
        <pt x="401" y="541" on="0"/>
        <pt x="381" y="541" on="1"/>
        <pt x="339" y="541" on="0"/>
        <pt x="278" y="508" on="0"/>
        <pt x="239" y="455" on="0"/>
        <pt x="220" y="388" on="0"/>
        <pt x="220" y="355" on="1"/>
        <pt x="220" y="318" on="0"/>
        <pt x="242" y="250" on="0"/>
        <pt x="284" y="198" on="0"/>
        <pt x="345" y="167" on="0"/>
        <pt x="383" y="167" on="1"/>
        <pt x="403" y="167" on="0"/>
        <pt x="445" y="176" on="0"/>
        <pt x="484" y="197" on="0"/>
        <pt x="515" y="230" on="0"/>
        <pt x="524" y="254" on="1"/>
        <pt x="683" y="159" on="1"/>
        <pt x="667" y="120" on="0"/>
        <pt x="602" y="58" on="0"/>
        <pt x="519" y="16" on="0"/>
        <pt x="424" y="-6" on="0"/>
        <pt x="379" y="-6" on="1"/>
        <pt x="300" y="-6" on="0"/>
        <pt x="169" y="57" on="0"/>
        <pt x="74" y="161" on="0"/>
        <pt x="22" y="293" on="0"/>
      </contour>
    </TTGlyph>
    <TTGlyph name="C.sc" xMin="22" yMin="-5" xMax="581" yMax="571">
      <contour>
        <pt x="22" y="289" on="1"/>
        <pt x="22" y="341" on="0"/>
        <pt x="64" y="442" on="0"/>
        <pt x="143" y="522" on="0"/>
        <pt x="257" y="571" on="0"/>
        <pt x="330" y="571" on="1"/>
        <pt x="416" y="571" on="0"/>
        <pt x="544" y="504" on="0"/>
        <pt x="574" y="447" on="1"/>
        <pt x="444" y="354" on="1"/>
        <pt x="436" y="373" on="0"/>
        <pt x="409" y="399" on="0"/>
        <pt x="377" y="414" on="0"/>
        <pt x="342" y="420" on="0"/>
        <pt x="327" y="420" on="1"/>
        <pt x="293" y="420" on="0"/>
        <pt x="243" y="396" on="0"/>
        <pt x="211" y="357" on="0"/>
        <pt x="195" y="308" on="0"/>
        <pt x="195" y="284" on="1"/>
        <pt x="195" y="257" on="0"/>
        <pt x="213" y="207" on="0"/>
        <pt x="248" y="169" on="0"/>
        <pt x="297" y="146" on="0"/>
        <pt x="329" y="146" on="1"/>
        <pt x="345" y="146" on="0"/>
        <pt x="379" y="153" on="0"/>
        <pt x="410" y="168" on="0"/>
        <pt x="435" y="193" on="0"/>
        <pt x="442" y="211" on="1"/>
        <pt x="581" y="127" on="1"/>
        <pt x="567" y="95" on="0"/>
        <pt x="512" y="46" on="0"/>
        <pt x="442" y="13" on="0"/>
        <pt x="363" y="-5" on="0"/>
        <pt x="325" y="-5" on="1"/>
        <pt x="258" y="-5" on="0"/>
        <pt x="147" y="46" on="0"/>
        <pt x="67" y="129" on="0"/>
        <pt x="22" y="234" on="0"/>
      </contour>
    </TTGlyph>
    <TTGlyph name="Cacute" xMin="22" yMin="-6" xMax="683" yMax="914">
      <contour>
        <pt x="22" y="361" on="1"/>
        <pt x="22" y="426" on="0"/>
        <pt x="71" y="552" on="0"/>
        <pt x="165" y="652" on="0"/>
        <pt x="299" y="714" on="0"/>
        <pt x="385" y="714" on="1"/>
        <pt x="488" y="714" on="0"/>
        <pt x="639" y="629" on="0"/>
        <pt x="676" y="559" on="1"/>
        <pt x="527" y="453" on="1"/>
        <pt x="517" y="479" on="0"/>
        <pt x="484" y="513" on="0"/>
        <pt x="444" y="533" on="0"/>
        <pt x="401" y="541" on="0"/>
        <pt x="381" y="541" on="1"/>
        <pt x="339" y="541" on="0"/>
        <pt x="278" y="508" on="0"/>
        <pt x="239" y="455" on="0"/>
        <pt x="220" y="388" on="0"/>
        <pt x="220" y="355" on="1"/>
        <pt x="220" y="318" on="0"/>
        <pt x="242" y="250" on="0"/>
        <pt x="284" y="198" on="0"/>
        <pt x="345" y="167" on="0"/>
        <pt x="383" y="167" on="1"/>
        <pt x="403" y="167" on="0"/>
        <pt x="445" y="176" on="0"/>
        <pt x="484" y="197" on="0"/>
        <pt x="515" y="230" on="0"/>
        <pt x="524" y="254" on="1"/>
        <pt x="683" y="159" on="1"/>
        <pt x="667" y="120" on="0"/>
        <pt x="602" y="58" on="0"/>
        <pt x="519" y="16" on="0"/>
        <pt x="424" y="-6" on="0"/>
        <pt x="379" y="-6" on="1"/>
        <pt x="300" y="-6" on="0"/>
        <pt x="169" y="57" on="0"/>
        <pt x="74" y="161" on="0"/>
        <pt x="22" y="293" on="0"/>
      </contour>
      <contour>
        <pt x="448" y="740" on="1"/>
        <pt x="328" y="772" on="1"/>
        <pt x="378" y="914" on="1"/>
        <pt x="547" y="914" on="1"/>
      </contour>
    </TTGlyph>
    <TTGlyph name="Ccaron" xMin="22" yMin="-6" xMax="683" yMax="914">
      <contour>
        <pt x="22" y="361" on="1"/>
        <pt x="22" y="426" on="0"/>
        <pt x="71" y="552" on="0"/>
        <pt x="165" y="652" on="0"/>
        <pt x="299" y="714" on="0"/>
        <pt x="385" y="714" on="1"/>
        <pt x="488" y="714" on="0"/>
        <pt x="639" y="629" on="0"/>
        <pt x="676" y="559" on="1"/>
        <pt x="527" y="453" on="1"/>
        <pt x="517" y="479" on="0"/>
        <pt x="484" y="513" on="0"/>
        <pt x="444" y="533" on="0"/>
        <pt x="401" y="541" on="0"/>
        <pt x="381" y="541" on="1"/>
        <pt x="339" y="541" on="0"/>
        <pt x="278" y="508" on="0"/>
        <pt x="239" y="455" on="0"/>
        <pt x="220" y="388" on="0"/>
        <pt x="220" y="355" on="1"/>
        <pt x="220" y="318" on="0"/>
        <pt x="242" y="250" on="0"/>
        <pt x="284" y="198" on="0"/>
        <pt x="345" y="167" on="0"/>
        <pt x="383" y="167" on="1"/>
        <pt x="403" y="167" on="0"/>
        <pt x="445" y="176" on="0"/>
        <pt x="484" y="197" on="0"/>
        <pt x="515" y="230" on="0"/>
        <pt x="524" y="254" on="1"/>
        <pt x="683" y="159" on="1"/>
        <pt x="667" y="120" on="0"/>
        <pt x="602" y="58" on="0"/>
        <pt x="519" y="16" on="0"/>
        <pt x="424" y="-6" on="0"/>
        <pt x="379" y="-6" on="1"/>
        <pt x="300" y="-6" on="0"/>
        <pt x="169" y="57" on="0"/>
        <pt x="74" y="161" on="0"/>
        <pt x="22" y="293" on="0"/>
      </contour>
      <contour>
        <pt x="310" y="914" on="1"/>
        <pt x="395" y="851" on="1"/>
        <pt x="480" y="914" on="1"/>
        <pt x="576" y="872" on="1"/>
        <pt x="463" y="757" on="1"/>
        <pt x="327" y="757" on="1"/>
        <pt x="214" y="872" on="1"/>
      </contour>
    </TTGlyph>
    <TTGlyph name="Ccedilla" xMin="22" yMin="-213" xMax="683" yMax="714">
      <contour>
        <pt x="277" y="-128" on="1"/>
        <pt x="288" y="-135" on="0"/>
        <pt x="340" y="-148" on="0"/>
        <pt x="367" y="-148" on="1"/>
        <pt x="390" y="-148" on="0"/>
        <pt x="423" y="-134" on="0"/>
        <pt x="423" y="-117" on="1"/>
        <pt x="423" y="-100" on="0"/>
        <pt x="393" y="-87" on="0"/>
        <pt x="368" y="-87" on="1"/>
        <pt x="347" y="-87" on="0"/>
        <pt x="300" y="-94" on="0"/>
        <pt x="289" y="-96" on="1"/>
        <pt x="334" y="-3" on="1"/>
        <pt x="264" y="6" on="0"/>
        <pt x="149" y="74" on="0"/>
        <pt x="67" y="175" on="0"/>
        <pt x="22" y="298" on="0"/>
        <pt x="22" y="361" on="1"/>
        <pt x="22" y="426" on="0"/>
        <pt x="71" y="552" on="0"/>
        <pt x="165" y="652" on="0"/>
        <pt x="299" y="714" on="0"/>
        <pt x="385" y="714" on="1"/>
        <pt x="488" y="714" on="0"/>
        <pt x="639" y="629" on="0"/>
        <pt x="676" y="559" on="1"/>
        <pt x="527" y="453" on="1"/>
        <pt x="517" y="479" on="0"/>
        <pt x="484" y="513" on="0"/>
        <pt x="444" y="533" on="0"/>
        <pt x="401" y="541" on="0"/>
        <pt x="381" y="541" on="1"/>
        <pt x="339" y="541" on="0"/>
        <pt x="278" y="508" on="0"/>
        <pt x="239" y="455" on="0"/>
        <pt x="220" y="388" on="0"/>
        <pt x="220" y="355" on="1"/>
        <pt x="220" y="318" on="0"/>
        <pt x="242" y="250" on="0"/>
        <pt x="284" y="198" on="0"/>
        <pt x="345" y="167" on="0"/>
        <pt x="383" y="167" on="1"/>
        <pt x="403" y="167" on="0"/>
        <pt x="445" y="176" on="0"/>
        <pt x="484" y="197" on="0"/>
        <pt x="515" y="230" on="0"/>
        <pt x="524" y="254" on="1"/>
        <pt x="683" y="159" on="1"/>
        <pt x="668" y="123" on="0"/>
        <pt x="610" y="65" on="0"/>
        <pt x="535" y="23" on="0"/>
        <pt x="449" y="-2" on="0"/>
        <pt x="406" y="-5" on="1"/>
        <pt x="386" y="-34" on="1"/>
        <pt x="392" y="-33" on="0"/>
        <pt x="405" y="-32" on="0"/>
        <pt x="413" y="-32" on="1"/>
        <pt x="431" y="-32" on="0"/>
        <pt x="465" y="-41" on="0"/>
        <pt x="491" y="-59" on="0"/>
        <pt x="507" y="-89" on="0"/>
        <pt x="507" y="-110" on="1"/>
        <pt x="507" y="-152" on="0"/>
        <pt x="434" y="-213" on="0"/>
        <pt x="355" y="-213" on="1"/>
        <pt x="319" y="-213" on="0"/>
        <pt x="262" y="-200" on="0"/>
        <pt x="242" y="-192" on="1"/>
      </contour>
    </TTGlyph>
    <TTGlyph name="Ccircumflex" xMin="22" yMin="-6" xMax="683" yMax="914">
      <contour>
        <pt x="22" y="361" on="1"/>
        <pt x="22" y="426" on="0"/>
        <pt x="71" y="552" on="0"/>
        <pt x="165" y="652" on="0"/>
        <pt x="299" y="714" on="0"/>
        <pt x="385" y="714" on="1"/>
        <pt x="488" y="714" on="0"/>
        <pt x="639" y="629" on="0"/>
        <pt x="676" y="559" on="1"/>
        <pt x="527" y="453" on="1"/>
        <pt x="517" y="479" on="0"/>
        <pt x="484" y="513" on="0"/>
        <pt x="444" y="533" on="0"/>
        <pt x="401" y="541" on="0"/>
        <pt x="381" y="541" on="1"/>
        <pt x="339" y="541" on="0"/>
        <pt x="278" y="508" on="0"/>
        <pt x="239" y="455" on="0"/>
        <pt x="220" y="388" on="0"/>
        <pt x="220" y="355" on="1"/>
        <pt x="220" y="318" on="0"/>
        <pt x="242" y="250" on="0"/>
        <pt x="284" y="198" on="0"/>
        <pt x="345" y="167" on="0"/>
        <pt x="383" y="167" on="1"/>
        <pt x="403" y="167" on="0"/>
        <pt x="445" y="176" on="0"/>
        <pt x="484" y="197" on="0"/>
        <pt x="515" y="230" on="0"/>
        <pt x="524" y="254" on="1"/>
        <pt x="683" y="159" on="1"/>
        <pt x="667" y="120" on="0"/>
        <pt x="602" y="58" on="0"/>
        <pt x="519" y="16" on="0"/>
        <pt x="424" y="-6" on="0"/>
        <pt x="379" y="-6" on="1"/>
        <pt x="300" y="-6" on="0"/>
        <pt x="169" y="57" on="0"/>
        <pt x="74" y="161" on="0"/>
        <pt x="22" y="293" on="0"/>
      </contour>
      <contour>
        <pt x="201" y="799" on="1"/>
        <pt x="314" y="914" on="1"/>
        <pt x="450" y="914" on="1"/>
        <pt x="563" y="799" on="1"/>
        <pt x="467" y="757" on="1"/>
        <pt x="382" y="820" on="1"/>
        <pt x="297" y="757" on="1"/>
      </contour>
    </TTGlyph>
    <TTGlyph name="Cdotaccent" xMin="22" yMin="-6" xMax="683" yMax="914">
      <contour>
        <pt x="22" y="361" on="1"/>
        <pt x="22" y="426" on="0"/>
        <pt x="71" y="552" on="0"/>
        <pt x="165" y="652" on="0"/>
        <pt x="299" y="714" on="0"/>
        <pt x="385" y="714" on="1"/>
        <pt x="488" y="714" on="0"/>
        <pt x="639" y="629" on="0"/>
        <pt x="676" y="559" on="1"/>
        <pt x="527" y="453" on="1"/>
        <pt x="517" y="479" on="0"/>
        <pt x="484" y="513" on="0"/>
        <pt x="444" y="533" on="0"/>
        <pt x="401" y="541" on="0"/>
        <pt x="381" y="541" on="1"/>
        <pt x="339" y="541" on="0"/>
        <pt x="278" y="508" on="0"/>
        <pt x="239" y="455" on="0"/>
        <pt x="220" y="388" on="0"/>
        <pt x="220" y="355" on="1"/>
        <pt x="220" y="318" on="0"/>
        <pt x="242" y="250" on="0"/>
        <pt x="284" y="198" on="0"/>
        <pt x="345" y="167" on="0"/>
        <pt x="383" y="167" on="1"/>
        <pt x="403" y="167" on="0"/>
        <pt x="445" y="176" on="0"/>
        <pt x="484" y="197" on="0"/>
        <pt x="515" y="230" on="0"/>
        <pt x="524" y="254" on="1"/>
        <pt x="683" y="159" on="1"/>
        <pt x="667" y="120" on="0"/>
        <pt x="602" y="58" on="0"/>
        <pt x="519" y="16" on="0"/>
        <pt x="424" y="-6" on="0"/>
        <pt x="379" y="-6" on="1"/>
        <pt x="300" y="-6" on="0"/>
        <pt x="169" y="57" on="0"/>
        <pt x="74" y="161" on="0"/>
        <pt x="22" y="293" on="0"/>
      </contour>
      <contour>
        <pt x="305" y="764" on="1"/>
        <pt x="305" y="914" on="1"/>
        <pt x="475" y="914" on="1"/>
        <pt x="475" y="764" on="1"/>
      </contour>
    </TTGlyph>
    <TTGlyph name="D" xMin="61" yMin="0" xMax="692" yMax="710">
      <contour>
        <pt x="61" y="0" on="1"/>
        <pt x="61" y="710" on="1"/>
        <pt x="334" y="710" on="1"/>
        <pt x="422" y="710" on="0"/>
        <pt x="556" y="654" on="0"/>
        <pt x="646" y="558" on="0"/>
        <pt x="692" y="429" on="0"/>
        <pt x="692" y="356" on="1"/>
        <pt x="692" y="275" on="0"/>
        <pt x="641" y="144" on="0"/>
        <pt x="547" y="51" on="0"/>
        <pt x="415" y="0" on="0"/>
        <pt x="334" y="0" on="1"/>
      </contour>
      <contour>
        <pt x="494" y="356" on="1"/>
        <pt x="494" y="397" on="0"/>
        <pt x="472" y="465" on="0"/>
        <pt x="431" y="513" on="0"/>
        <pt x="371" y="540" on="0"/>
        <pt x="334" y="540" on="1"/>
        <pt x="256" y="540" on="1"/>
        <pt x="256" y="170" on="1"/>
        <pt x="334" y="170" on="1"/>
        <pt x="372" y="170" on="0"/>
        <pt x="432" y="198" on="0"/>
        <pt x="473" y="248" on="0"/>
        <pt x="494" y="316" on="0"/>
      </contour>
    </TTGlyph>
    <TTGlyph name="D.sc" xMin="55" yMin="0" xMax="621" yMax="568">
      <contour>
        <pt x="55" y="0" on="1"/>
        <pt x="55" y="568" on="1"/>
        <pt x="299" y="568" on="1"/>
        <pt x="378" y="568" on="0"/>
        <pt x="499" y="524" on="0"/>
        <pt x="580" y="447" on="0"/>
        <pt x="621" y="344" on="0"/>
        <pt x="621" y="285" on="1"/>
        <pt x="621" y="220" on="0"/>
        <pt x="575" y="115" on="0"/>
        <pt x="491" y="41" on="0"/>
        <pt x="372" y="0" on="0"/>
        <pt x="299" y="0" on="1"/>
      </contour>
      <contour>
        <pt x="448" y="285" on="1"/>
        <pt x="448" y="346" on="0"/>
        <pt x="369" y="420" on="0"/>
        <pt x="299" y="420" on="1"/>
        <pt x="225" y="420" on="1"/>
        <pt x="225" y="148" on="1"/>
        <pt x="299" y="148" on="1"/>
        <pt x="371" y="148" on="0"/>
        <pt x="448" y="225" on="0"/>
      </contour>
    </TTGlyph>
    <TTGlyph name="Dcaron" xMin="61" yMin="0" xMax="692" yMax="914">
      <contour>
        <pt x="61" y="0" on="1"/>
        <pt x="61" y="710" on="1"/>
        <pt x="334" y="710" on="1"/>
        <pt x="422" y="710" on="0"/>
        <pt x="556" y="654" on="0"/>
        <pt x="646" y="558" on="0"/>
        <pt x="692" y="429" on="0"/>
        <pt x="692" y="356" on="1"/>
        <pt x="692" y="275" on="0"/>
        <pt x="641" y="144" on="0"/>
        <pt x="547" y="51" on="0"/>
        <pt x="415" y="0" on="0"/>
        <pt x="334" y="0" on="1"/>
      </contour>
      <contour>
        <pt x="494" y="356" on="1"/>
        <pt x="494" y="397" on="0"/>
        <pt x="472" y="465" on="0"/>
        <pt x="431" y="513" on="0"/>
        <pt x="371" y="540" on="0"/>
        <pt x="334" y="540" on="1"/>
        <pt x="256" y="540" on="1"/>
        <pt x="256" y="170" on="1"/>
        <pt x="334" y="170" on="1"/>
        <pt x="372" y="170" on="0"/>
        <pt x="432" y="198" on="0"/>
        <pt x="473" y="248" on="0"/>
        <pt x="494" y="316" on="0"/>
      </contour>
      <contour>
        <pt x="232" y="914" on="1"/>
        <pt x="317" y="851" on="1"/>
        <pt x="402" y="914" on="1"/>
        <pt x="498" y="872" on="1"/>
        <pt x="385" y="757" on="1"/>
        <pt x="249" y="757" on="1"/>
        <pt x="136" y="872" on="1"/>
      </contour>
    </TTGlyph>
    <TTGlyph name="Dcroat" xMin="28" yMin="0" xMax="696" yMax="710">
      <contour>
        <pt x="65" y="0" on="1"/>
        <pt x="65" y="287" on="1"/>
        <pt x="28" y="287" on="1"/>
        <pt x="28" y="427" on="1"/>
        <pt x="65" y="427" on="1"/>
        <pt x="65" y="710" on="1"/>
        <pt x="338" y="710" on="1"/>
        <pt x="426" y="710" on="0"/>
        <pt x="560" y="654" on="0"/>
        <pt x="650" y="558" on="0"/>
        <pt x="696" y="429" on="0"/>
        <pt x="696" y="356" on="1"/>
        <pt x="696" y="275" on="0"/>
        <pt x="645" y="144" on="0"/>
        <pt x="551" y="51" on="0"/>
        <pt x="419" y="0" on="0"/>
        <pt x="338" y="0" on="1"/>
      </contour>
      <contour>
        <pt x="498" y="356" on="1"/>
        <pt x="498" y="397" on="0"/>
        <pt x="476" y="465" on="0"/>
        <pt x="435" y="513" on="0"/>
        <pt x="375" y="540" on="0"/>
        <pt x="338" y="540" on="1"/>
        <pt x="260" y="540" on="1"/>
        <pt x="260" y="427" on="1"/>
        <pt x="374" y="427" on="1"/>
        <pt x="374" y="287" on="1"/>
        <pt x="260" y="287" on="1"/>
        <pt x="260" y="170" on="1"/>
        <pt x="338" y="170" on="1"/>
        <pt x="376" y="170" on="0"/>
        <pt x="436" y="198" on="0"/>
        <pt x="477" y="248" on="0"/>
        <pt x="498" y="316" on="0"/>
      </contour>
    </TTGlyph>
    <TTGlyph name="Ddotbelow" xMin="61" yMin="-213" xMax="692" yMax="710">
      <contour>
        <pt x="61" y="0" on="1"/>
        <pt x="61" y="710" on="1"/>
        <pt x="334" y="710" on="1"/>
        <pt x="422" y="710" on="0"/>
        <pt x="556" y="654" on="0"/>
        <pt x="646" y="558" on="0"/>
        <pt x="692" y="429" on="0"/>
        <pt x="692" y="356" on="1"/>
        <pt x="692" y="275" on="0"/>
        <pt x="641" y="144" on="0"/>
        <pt x="547" y="51" on="0"/>
        <pt x="415" y="0" on="0"/>
        <pt x="334" y="0" on="1"/>
      </contour>
      <contour>
        <pt x="494" y="356" on="1"/>
        <pt x="494" y="397" on="0"/>
        <pt x="472" y="465" on="0"/>
        <pt x="431" y="513" on="0"/>
        <pt x="371" y="540" on="0"/>
        <pt x="334" y="540" on="1"/>
        <pt x="256" y="540" on="1"/>
        <pt x="256" y="170" on="1"/>
        <pt x="334" y="170" on="1"/>
        <pt x="372" y="170" on="0"/>
        <pt x="432" y="198" on="0"/>
        <pt x="473" y="248" on="0"/>
        <pt x="494" y="316" on="0"/>
      </contour>
      <contour>
        <pt x="260" y="-213" on="1"/>
        <pt x="260" y="-63" on="1"/>
        <pt x="430" y="-63" on="1"/>
        <pt x="430" y="-213" on="1"/>
      </contour>
    </TTGlyph>
    <TTGlyph name="Delta" xMin="5" yMin="0" xMax="636" yMax="710">
      <contour>
        <pt x="636" y="150" on="1"/>
        <pt x="636" y="0" on="1"/>
        <pt x="5" y="0" on="1"/>
        <pt x="5" y="150" on="1"/>
        <pt x="242" y="710" on="1"/>
        <pt x="400" y="710" on="1"/>
      </contour>
      <contour>
        <pt x="454" y="170" on="1"/>
        <pt x="321" y="497" on="1"/>
        <pt x="194" y="170" on="1"/>
      </contour>
    </TTGlyph>
    <TTGlyph name="E" xMin="61" yMin="0" xMax="567" yMax="710">
      <contour>
        <pt x="567" y="170" on="1"/>
        <pt x="567" y="0" on="1"/>
        <pt x="61" y="0" on="1"/>
        <pt x="61" y="710" on="1"/>
        <pt x="558" y="710" on="1"/>
        <pt x="558" y="540" on="1"/>
        <pt x="256" y="540" on="1"/>
        <pt x="256" y="440" on="1"/>
        <pt x="514" y="440" on="1"/>
        <pt x="514" y="282" on="1"/>
        <pt x="256" y="282" on="1"/>
        <pt x="256" y="170" on="1"/>
      </contour>
    </TTGlyph>
    <TTGlyph name="E.sc" xMin="55" yMin="0" xMax="509" yMax="568">
      <contour>
        <pt x="509" y="148" on="1"/>
        <pt x="509" y="0" on="1"/>
        <pt x="55" y="0" on="1"/>
        <pt x="55" y="568" on="1"/>
        <pt x="501" y="568" on="1"/>
        <pt x="501" y="420" on="1"/>
        <pt x="225" y="420" on="1"/>
        <pt x="225" y="358" on="1"/>
        <pt x="461" y="358" on="1"/>
        <pt x="461" y="220" on="1"/>
        <pt x="225" y="220" on="1"/>
        <pt x="225" y="148" on="1"/>
      </contour>
    </TTGlyph>
    <TTGlyph name="Eacute" xMin="61" yMin="0" xMax="567" yMax="914">
      <contour>
        <pt x="567" y="170" on="1"/>
        <pt x="567" y="0" on="1"/>
        <pt x="61" y="0" on="1"/>
        <pt x="61" y="710" on="1"/>
        <pt x="558" y="710" on="1"/>
        <pt x="558" y="540" on="1"/>
        <pt x="256" y="540" on="1"/>
        <pt x="256" y="440" on="1"/>
        <pt x="514" y="440" on="1"/>
        <pt x="514" y="282" on="1"/>
        <pt x="256" y="282" on="1"/>
        <pt x="256" y="170" on="1"/>
      </contour>
      <contour>
        <pt x="374" y="740" on="1"/>
        <pt x="254" y="772" on="1"/>
        <pt x="304" y="914" on="1"/>
        <pt x="473" y="914" on="1"/>
      </contour>
    </TTGlyph>
    <TTGlyph name="Ebreve" xMin="61" yMin="0" xMax="567" yMax="914">
      <contour>
        <pt x="567" y="170" on="1"/>
        <pt x="567" y="0" on="1"/>
        <pt x="61" y="0" on="1"/>
        <pt x="61" y="710" on="1"/>
        <pt x="558" y="710" on="1"/>
        <pt x="558" y="540" on="1"/>
        <pt x="256" y="540" on="1"/>
        <pt x="256" y="440" on="1"/>
        <pt x="514" y="440" on="1"/>
        <pt x="514" y="282" on="1"/>
        <pt x="256" y="282" on="1"/>
        <pt x="256" y="170" on="1"/>
      </contour>
      <contour>
        <pt x="316" y="833" on="1"/>
        <pt x="339" y="833" on="0"/>
        <pt x="374" y="879" on="0"/>
        <pt x="377" y="914" on="1"/>
        <pt x="475" y="914" on="1"/>
        <pt x="475" y="878" on="0"/>
        <pt x="452" y="819" on="0"/>
        <pt x="410" y="776" on="0"/>
        <pt x="351" y="752" on="0"/>
        <pt x="316" y="752" on="1"/>
        <pt x="281" y="752" on="0"/>
        <pt x="222" y="776" on="0"/>
        <pt x="180" y="819" on="0"/>
        <pt x="157" y="878" on="0"/>
        <pt x="157" y="914" on="1"/>
        <pt x="255" y="914" on="1"/>
        <pt x="255" y="881" on="0"/>
        <pt x="291" y="833" on="0"/>
      </contour>
    </TTGlyph>
    <TTGlyph name="Ecaron" xMin="61" yMin="0" xMax="567" yMax="914">
      <contour>
        <pt x="567" y="170" on="1"/>
        <pt x="567" y="0" on="1"/>
        <pt x="61" y="0" on="1"/>
        <pt x="61" y="710" on="1"/>
        <pt x="558" y="710" on="1"/>
        <pt x="558" y="540" on="1"/>
        <pt x="256" y="540" on="1"/>
        <pt x="256" y="440" on="1"/>
        <pt x="514" y="440" on="1"/>
        <pt x="514" y="282" on="1"/>
        <pt x="256" y="282" on="1"/>
        <pt x="256" y="170" on="1"/>
      </contour>
      <contour>
        <pt x="231" y="914" on="1"/>
        <pt x="316" y="851" on="1"/>
        <pt x="401" y="914" on="1"/>
        <pt x="497" y="872" on="1"/>
        <pt x="384" y="757" on="1"/>
        <pt x="248" y="757" on="1"/>
        <pt x="135" y="872" on="1"/>
      </contour>
    </TTGlyph>
    <TTGlyph name="Ecircumflex" xMin="61" yMin="0" xMax="567" yMax="914">
      <contour>
        <pt x="567" y="170" on="1"/>
        <pt x="567" y="0" on="1"/>
        <pt x="61" y="0" on="1"/>
        <pt x="61" y="710" on="1"/>
        <pt x="558" y="710" on="1"/>
        <pt x="558" y="540" on="1"/>
        <pt x="256" y="540" on="1"/>
        <pt x="256" y="440" on="1"/>
        <pt x="514" y="440" on="1"/>
        <pt x="514" y="282" on="1"/>
        <pt x="256" y="282" on="1"/>
        <pt x="256" y="170" on="1"/>
      </contour>
      <contour>
        <pt x="135" y="799" on="1"/>
        <pt x="248" y="914" on="1"/>
        <pt x="384" y="914" on="1"/>
        <pt x="497" y="799" on="1"/>
        <pt x="401" y="757" on="1"/>
        <pt x="316" y="820" on="1"/>
        <pt x="231" y="757" on="1"/>
      </contour>
    </TTGlyph>
    <TTGlyph name="Edblgrave" xMin="61" yMin="0" xMax="567" yMax="915">
      <contour>
        <pt x="567" y="170" on="1"/>
        <pt x="567" y="0" on="1"/>
        <pt x="61" y="0" on="1"/>
        <pt x="61" y="710" on="1"/>
        <pt x="558" y="710" on="1"/>
        <pt x="558" y="540" on="1"/>
        <pt x="256" y="540" on="1"/>
        <pt x="256" y="440" on="1"/>
        <pt x="514" y="440" on="1"/>
        <pt x="514" y="282" on="1"/>
        <pt x="256" y="282" on="1"/>
        <pt x="256" y="170" on="1"/>
      </contour>
      <contour>
        <pt x="290" y="915" on="1"/>
        <pt x="429" y="915" on="1"/>
        <pt x="469" y="773" on="1"/>
        <pt x="379" y="741" on="1"/>
      </contour>
      <contour>
        <pt x="100" y="915" on="1"/>
        <pt x="239" y="915" on="1"/>
        <pt x="279" y="773" on="1"/>
        <pt x="189" y="741" on="1"/>
      </contour>
    </TTGlyph>
    <TTGlyph name="Edieresis" xMin="61" yMin="0" xMax="567" yMax="905">
      <contour>
        <pt x="567" y="170" on="1"/>
        <pt x="567" y="0" on="1"/>
        <pt x="61" y="0" on="1"/>
        <pt x="61" y="710" on="1"/>
        <pt x="558" y="710" on="1"/>
        <pt x="558" y="540" on="1"/>
        <pt x="256" y="540" on="1"/>
        <pt x="256" y="440" on="1"/>
        <pt x="514" y="440" on="1"/>
        <pt x="514" y="282" on="1"/>
        <pt x="256" y="282" on="1"/>
        <pt x="256" y="170" on="1"/>
      </contour>
      <contour>
        <pt x="123" y="765" on="1"/>
        <pt x="123" y="905" on="1"/>
        <pt x="279" y="905" on="1"/>
        <pt x="279" y="765" on="1"/>
      </contour>
      <contour>
        <pt x="353" y="765" on="1"/>
        <pt x="353" y="905" on="1"/>
        <pt x="509" y="905" on="1"/>
        <pt x="509" y="765" on="1"/>
      </contour>
    </TTGlyph>
    <TTGlyph name="Edotaccent" xMin="61" yMin="0" xMax="567" yMax="914">
      <contour>
        <pt x="567" y="170" on="1"/>
        <pt x="567" y="0" on="1"/>
        <pt x="61" y="0" on="1"/>
        <pt x="61" y="710" on="1"/>
        <pt x="558" y="710" on="1"/>
        <pt x="558" y="540" on="1"/>
        <pt x="256" y="540" on="1"/>
        <pt x="256" y="440" on="1"/>
        <pt x="514" y="440" on="1"/>
        <pt x="514" y="282" on="1"/>
        <pt x="256" y="282" on="1"/>
        <pt x="256" y="170" on="1"/>
      </contour>
      <contour>
        <pt x="231" y="764" on="1"/>
        <pt x="231" y="914" on="1"/>
        <pt x="401" y="914" on="1"/>
        <pt x="401" y="764" on="1"/>
      </contour>
    </TTGlyph>
    <TTGlyph name="Edotbelow" xMin="61" yMin="-213" xMax="567" yMax="710">
      <contour>
        <pt x="567" y="170" on="1"/>
        <pt x="567" y="0" on="1"/>
        <pt x="61" y="0" on="1"/>
        <pt x="61" y="710" on="1"/>
        <pt x="558" y="710" on="1"/>
        <pt x="558" y="540" on="1"/>
        <pt x="256" y="540" on="1"/>
        <pt x="256" y="440" on="1"/>
        <pt x="514" y="440" on="1"/>
        <pt x="514" y="282" on="1"/>
        <pt x="256" y="282" on="1"/>
        <pt x="256" y="170" on="1"/>
      </contour>
      <contour>
        <pt x="232" y="-213" on="1"/>
        <pt x="232" y="-63" on="1"/>
        <pt x="402" y="-63" on="1"/>
        <pt x="402" y="-213" on="1"/>
      </contour>
    </TTGlyph>
    <TTGlyph name="Egrave" xMin="61" yMin="0" xMax="567" yMax="915">
      <contour>
        <pt x="567" y="170" on="1"/>
        <pt x="567" y="0" on="1"/>
        <pt x="61" y="0" on="1"/>
        <pt x="61" y="710" on="1"/>
        <pt x="558" y="710" on="1"/>
        <pt x="558" y="540" on="1"/>
        <pt x="256" y="540" on="1"/>
        <pt x="256" y="440" on="1"/>
        <pt x="514" y="440" on="1"/>
        <pt x="514" y="282" on="1"/>
        <pt x="256" y="282" on="1"/>
        <pt x="256" y="170" on="1"/>
      </contour>
      <contour>
        <pt x="159" y="915" on="1"/>
        <pt x="328" y="915" on="1"/>
        <pt x="378" y="773" on="1"/>
        <pt x="258" y="741" on="1"/>
      </contour>
    </TTGlyph>
    <TTGlyph name="Einvertedbreve" xMin="61" yMin="0" xMax="567" yMax="914">
      <contour>
        <pt x="567" y="170" on="1"/>
        <pt x="567" y="0" on="1"/>
        <pt x="61" y="0" on="1"/>
        <pt x="61" y="710" on="1"/>
        <pt x="558" y="710" on="1"/>
        <pt x="558" y="540" on="1"/>
        <pt x="256" y="540" on="1"/>
        <pt x="256" y="440" on="1"/>
        <pt x="514" y="440" on="1"/>
        <pt x="514" y="282" on="1"/>
        <pt x="256" y="282" on="1"/>
        <pt x="256" y="170" on="1"/>
      </contour>
      <contour>
        <pt x="313" y="833" on="1"/>
        <pt x="288" y="833" on="0"/>
        <pt x="252" y="785" on="0"/>
        <pt x="252" y="752" on="1"/>
        <pt x="154" y="752" on="1"/>
        <pt x="154" y="788" on="0"/>
        <pt x="177" y="847" on="0"/>
        <pt x="219" y="890" on="0"/>
        <pt x="278" y="914" on="0"/>
        <pt x="313" y="914" on="1"/>
        <pt x="348" y="914" on="0"/>
        <pt x="407" y="890" on="0"/>
        <pt x="449" y="847" on="0"/>
        <pt x="472" y="788" on="0"/>
        <pt x="472" y="752" on="1"/>
        <pt x="374" y="752" on="1"/>
        <pt x="371" y="787" on="0"/>
        <pt x="336" y="833" on="0"/>
      </contour>
    </TTGlyph>
    <TTGlyph name="Emacron" xMin="61" yMin="0" xMax="567" yMax="904">
      <contour>
        <pt x="567" y="170" on="1"/>
        <pt x="567" y="0" on="1"/>
        <pt x="61" y="0" on="1"/>
        <pt x="61" y="710" on="1"/>
        <pt x="558" y="710" on="1"/>
        <pt x="558" y="540" on="1"/>
        <pt x="256" y="540" on="1"/>
        <pt x="256" y="440" on="1"/>
        <pt x="514" y="440" on="1"/>
        <pt x="514" y="282" on="1"/>
        <pt x="256" y="282" on="1"/>
        <pt x="256" y="170" on="1"/>
      </contour>
      <contour>
        <pt x="162" y="791" on="1"/>
        <pt x="162" y="904" on="1"/>
        <pt x="472" y="904" on="1"/>
        <pt x="472" y="791" on="1"/>
      </contour>
    </TTGlyph>
    <TTGlyph name="Eng" xMin="61" yMin="-209" xMax="673" yMax="710">
      <contour>
        <pt x="256" y="343" on="1"/>
        <pt x="256" y="0" on="1"/>
        <pt x="61" y="0" on="1"/>
        <pt x="61" y="710" on="1"/>
        <pt x="211" y="710" on="1"/>
        <pt x="478" y="359" on="1"/>
        <pt x="478" y="709" on="1"/>
        <pt x="673" y="709" on="1"/>
        <pt x="673" y="5" on="1"/>
        <pt x="673" y="-44" on="0"/>
        <pt x="642" y="-123" on="0"/>
        <pt x="586" y="-179" on="0"/>
        <pt x="511" y="-209" on="0"/>
        <pt x="467" y="-209" on="1"/>
        <pt x="425" y="-209" on="0"/>
        <pt x="349" y="-181" on="0"/>
        <pt x="318" y="-155" on="1"/>
        <pt x="396" y="-26" on="1"/>
        <pt x="414" y="-46" on="0"/>
        <pt x="443" y="-46" on="1"/>
        <pt x="483" y="-46" on="0"/>
        <pt x="483" y="-3" on="1"/>
        <pt x="483" y="44" on="1"/>
      </contour>
    </TTGlyph>
    <TTGlyph name="Eogonek" xMin="61" yMin="-215" xMax="567" yMax="710">
      <contour>
        <pt x="530" y="-215" on="1"/>
        <pt x="452" y="-206" on="0"/>
        <pt x="378" y="-150" on="0"/>
        <pt x="378" y="-115" on="1"/>
        <pt x="378" y="-86" on="0"/>
        <pt x="421" y="-26" on="0"/>
        <pt x="464" y="0" on="1"/>
        <pt x="61" y="0" on="1"/>
        <pt x="61" y="710" on="1"/>
        <pt x="558" y="710" on="1"/>
        <pt x="558" y="540" on="1"/>
        <pt x="256" y="540" on="1"/>
        <pt x="256" y="440" on="1"/>
        <pt x="514" y="440" on="1"/>
        <pt x="514" y="282" on="1"/>
        <pt x="256" y="282" on="1"/>
        <pt x="256" y="170" on="1"/>
        <pt x="567" y="170" on="1"/>
        <pt x="567" y="0" on="1"/>
        <pt x="532" y="-20" on="0"/>
        <pt x="495" y="-61" on="0"/>
        <pt x="495" y="-78" on="1"/>
        <pt x="495" y="-95" on="0"/>
        <pt x="529" y="-115" on="0"/>
        <pt x="565" y="-115" on="1"/>
        <pt x="530" y="-215" on="1"/>
      </contour>
    </TTGlyph>
    <TTGlyph name="Eth" xMin="28" yMin="0" xMax="696" yMax="710">
      <contour>
        <pt x="65" y="0" on="1"/>
        <pt x="65" y="287" on="1"/>
        <pt x="28" y="287" on="1"/>
        <pt x="28" y="427" on="1"/>
        <pt x="65" y="427" on="1"/>
        <pt x="65" y="710" on="1"/>
        <pt x="338" y="710" on="1"/>
        <pt x="426" y="710" on="0"/>
        <pt x="560" y="654" on="0"/>
        <pt x="650" y="558" on="0"/>
        <pt x="696" y="429" on="0"/>
        <pt x="696" y="356" on="1"/>
        <pt x="696" y="275" on="0"/>
        <pt x="645" y="144" on="0"/>
        <pt x="551" y="51" on="0"/>
        <pt x="419" y="0" on="0"/>
        <pt x="338" y="0" on="1"/>
      </contour>
      <contour>
        <pt x="498" y="356" on="1"/>
        <pt x="498" y="397" on="0"/>
        <pt x="476" y="465" on="0"/>
        <pt x="435" y="513" on="0"/>
        <pt x="375" y="540" on="0"/>
        <pt x="338" y="540" on="1"/>
        <pt x="260" y="540" on="1"/>
        <pt x="260" y="427" on="1"/>
        <pt x="374" y="427" on="1"/>
        <pt x="374" y="287" on="1"/>
        <pt x="260" y="287" on="1"/>
        <pt x="260" y="170" on="1"/>
        <pt x="338" y="170" on="1"/>
        <pt x="376" y="170" on="0"/>
        <pt x="436" y="198" on="0"/>
        <pt x="477" y="248" on="0"/>
        <pt x="498" y="316" on="0"/>
      </contour>
    </TTGlyph>
    <TTGlyph name="Etilde" xMin="61" yMin="0" xMax="567" yMax="914">
      <contour>
        <pt x="567" y="170" on="1"/>
        <pt x="567" y="0" on="1"/>
        <pt x="61" y="0" on="1"/>
        <pt x="61" y="710" on="1"/>
        <pt x="558" y="710" on="1"/>
        <pt x="558" y="540" on="1"/>
        <pt x="256" y="540" on="1"/>
        <pt x="256" y="440" on="1"/>
        <pt x="514" y="440" on="1"/>
        <pt x="514" y="282" on="1"/>
        <pt x="256" y="282" on="1"/>
        <pt x="256" y="170" on="1"/>
      </contour>
      <contour>
        <pt x="380" y="756" on="1"/>
        <pt x="357" y="756" on="0"/>
        <pt x="322" y="771" on="0"/>
        <pt x="292" y="789" on="0"/>
        <pt x="263" y="804" on="0"/>
        <pt x="246" y="804" on="1"/>
        <pt x="229" y="804" on="0"/>
        <pt x="211" y="790" on="0"/>
        <pt x="202" y="772" on="0"/>
        <pt x="200" y="757" on="0"/>
        <pt x="200" y="756" on="1"/>
        <pt x="99" y="756" on="1"/>
        <pt x="99" y="769" on="0"/>
        <pt x="114" y="822" on="0"/>
        <pt x="148" y="874" on="0"/>
        <pt x="200" y="914" on="0"/>
        <pt x="238" y="914" on="1"/>
        <pt x="262" y="914" on="0"/>
        <pt x="298" y="898" on="0"/>
        <pt x="328" y="879" on="0"/>
        <pt x="356" y="863" on="0"/>
        <pt x="373" y="863" on="1"/>
        <pt x="389" y="863" on="0"/>
        <pt x="409" y="878" on="0"/>
        <pt x="420" y="897" on="0"/>
        <pt x="423" y="913" on="0"/>
        <pt x="423" y="914" on="1"/>
        <pt x="523" y="914" on="1"/>
        <pt x="523" y="905" on="0"/>
        <pt x="507" y="854" on="0"/>
        <pt x="473" y="799" on="0"/>
        <pt x="419" y="756" on="0"/>
      </contour>
    </TTGlyph>
    <TTGlyph name="Euro" xMin="34" yMin="-6" xMax="763" yMax="714">
      <contour>
        <pt x="118" y="464" on="1"/>
        <pt x="134" y="514" on="0"/>
        <pt x="195" y="605" on="0"/>
        <pt x="283" y="674" on="0"/>
        <pt x="396" y="714" on="0"/>
        <pt x="465" y="714" on="1"/>
        <pt x="568" y="714" on="0"/>
        <pt x="719" y="629" on="0"/>
        <pt x="756" y="559" on="1"/>
        <pt x="607" y="453" on="1"/>
        <pt x="597" y="479" on="0"/>
        <pt x="564" y="513" on="0"/>
        <pt x="524" y="533" on="0"/>
        <pt x="481" y="541" on="0"/>
        <pt x="461" y="541" on="1"/>
        <pt x="412" y="541" on="0"/>
        <pt x="346" y="497" on="0"/>
        <pt x="327" y="464" on="1"/>
        <pt x="507" y="464" on="1"/>
        <pt x="467" y="364" on="1"/>
        <pt x="300" y="364" on="1"/>
        <pt x="300" y="348" on="0"/>
        <pt x="301" y="329" on="0"/>
        <pt x="302" y="321" on="1"/>
        <pt x="479" y="321" on="1"/>
        <pt x="439" y="221" on="1"/>
        <pt x="346" y="221" on="1"/>
        <pt x="367" y="196" on="0"/>
        <pt x="425" y="167" on="0"/>
        <pt x="463" y="167" on="1"/>
        <pt x="483" y="167" on="0"/>
        <pt x="525" y="176" on="0"/>
        <pt x="564" y="197" on="0"/>
        <pt x="595" y="230" on="0"/>
        <pt x="604" y="254" on="1"/>
        <pt x="763" y="159" on="1"/>
        <pt x="747" y="120" on="0"/>
        <pt x="682" y="58" on="0"/>
        <pt x="599" y="16" on="0"/>
        <pt x="504" y="-6" on="0"/>
        <pt x="459" y="-6" on="1"/>
        <pt x="401" y="-6" on="0"/>
        <pt x="298" y="29" on="0"/>
        <pt x="214" y="91" on="0"/>
        <pt x="150" y="174" on="0"/>
        <pt x="131" y="221" on="1"/>
        <pt x="34" y="221" on="1"/>
        <pt x="74" y="321" on="1"/>
        <pt x="104" y="321" on="1"/>
        <pt x="103" y="331" on="0"/>
        <pt x="102" y="351" on="0"/>
        <pt x="102" y="364" on="1"/>
        <pt x="34" y="364" on="1"/>
        <pt x="74" y="464" on="1"/>
      </contour>
    </TTGlyph>
    <TTGlyph name="F" xMin="61" yMin="0" xMax="548" yMax="710">
      <contour>
        <pt x="61" y="0" on="1"/>
        <pt x="61" y="710" on="1"/>
        <pt x="548" y="710" on="1"/>
        <pt x="548" y="540" on="1"/>
        <pt x="256" y="540" on="1"/>
        <pt x="256" y="422" on="1"/>
        <pt x="494" y="422" on="1"/>
        <pt x="494" y="264" on="1"/>
        <pt x="256" y="264" on="1"/>
        <pt x="256" y="0" on="1"/>
      </contour>
    </TTGlyph>
    <TTGlyph name="F.sc" xMin="55" yMin="0" xMax="492" yMax="568">
      <contour>
        <pt x="55" y="0" on="1"/>
        <pt x="55" y="568" on="1"/>
        <pt x="492" y="568" on="1"/>
        <pt x="492" y="420" on="1"/>
        <pt x="225" y="420" on="1"/>
        <pt x="225" y="342" on="1"/>
        <pt x="444" y="342" on="1"/>
        <pt x="444" y="204" on="1"/>
        <pt x="225" y="204" on="1"/>
        <pt x="225" y="0" on="1"/>
      </contour>
    </TTGlyph>
    <TTGlyph name="G" xMin="23" yMin="-5" xMax="704" yMax="715">
      <contour>
        <pt x="543" y="59" on="1"/>
        <pt x="467" y="-5" on="0"/>
        <pt x="368" y="-5" on="1"/>
        <pt x="299" y="-5" on="0"/>
        <pt x="173" y="44" on="0"/>
        <pt x="79" y="138" on="0"/>
        <pt x="23" y="274" on="0"/>
        <pt x="23" y="361" on="1"/>
        <pt x="23" y="436" on="0"/>
        <pt x="79" y="565" on="0"/>
        <pt x="177" y="660" on="0"/>
        <pt x="310" y="715" on="0"/>
        <pt x="387" y="715" on="1"/>
        <pt x="435" y="715" on="0"/>
        <pt x="523" y="694" on="0"/>
        <pt x="598" y="653" on="0"/>
        <pt x="658" y="596" on="0"/>
        <pt x="677" y="560" on="1"/>
        <pt x="532" y="449" on="1"/>
        <pt x="511" y="491" on="0"/>
        <pt x="427" y="542" on="0"/>
        <pt x="380" y="542" on="1"/>
        <pt x="345" y="542" on="0"/>
        <pt x="287" y="514" on="0"/>
        <pt x="245" y="464" on="0"/>
        <pt x="221" y="395" on="0"/>
        <pt x="221" y="354" on="1"/>
        <pt x="221" y="312" on="0"/>
        <pt x="245" y="244" on="0"/>
        <pt x="288" y="195" on="0"/>
        <pt x="348" y="168" on="0"/>
        <pt x="385" y="168" on="1"/>
        <pt x="470" y="168" on="0"/>
        <pt x="535" y="238" on="1"/>
        <pt x="412" y="238" on="1"/>
        <pt x="412" y="378" on="1"/>
        <pt x="704" y="378" on="1"/>
        <pt x="704" y="0" on="1"/>
        <pt x="543" y="0" on="1"/>
      </contour>
    </TTGlyph>
    <TTGlyph name="G.alt" xMin="22" yMin="-5" xMax="693" yMax="715">
      <contour>
        <pt x="381" y="-5" on="1"/>
        <pt x="301" y="-5" on="0"/>
        <pt x="169" y="56" on="0"/>
        <pt x="75" y="158" on="0"/>
        <pt x="22" y="290" on="0"/>
        <pt x="22" y="361" on="1"/>
        <pt x="22" y="428" on="0"/>
        <pt x="70" y="556" on="0"/>
        <pt x="160" y="655" on="0"/>
        <pt x="291" y="715" on="0"/>
        <pt x="374" y="715" on="1"/>
        <pt x="466" y="715" on="0"/>
        <pt x="606" y="641" on="0"/>
        <pt x="646" y="570" on="1"/>
        <pt x="491" y="449" on="1"/>
        <pt x="489" y="454" on="0"/>
        <pt x="473" y="485" on="0"/>
        <pt x="442" y="517" on="0"/>
        <pt x="395" y="542" on="0"/>
        <pt x="362" y="542" on="1"/>
        <pt x="326" y="542" on="0"/>
        <pt x="272" y="510" on="0"/>
        <pt x="237" y="457" on="0"/>
        <pt x="220" y="390" on="0"/>
        <pt x="220" y="356" on="1"/>
        <pt x="220" y="325" on="0"/>
        <pt x="235" y="258" on="0"/>
        <pt x="268" y="203" on="0"/>
        <pt x="322" y="168" on="0"/>
        <pt x="361" y="168" on="1"/>
        <pt x="403" y="168" on="0"/>
        <pt x="468" y="205" on="0"/>
        <pt x="482" y="228" on="1"/>
        <pt x="371" y="228" on="1"/>
        <pt x="371" y="398" on="1"/>
        <pt x="693" y="398" on="1"/>
        <pt x="693" y="309" on="1"/>
        <pt x="693" y="244" on="0"/>
        <pt x="649" y="130" on="0"/>
        <pt x="568" y="45" on="0"/>
        <pt x="452" y="-5" on="0"/>
      </contour>
    </TTGlyph>
    <TTGlyph name="G.sc" xMin="22" yMin="-4" xMax="589" yMax="572">
      <contour>
        <pt x="448" y="41" on="1"/>
        <pt x="416" y="17" on="0"/>
        <pt x="350" y="-4" on="0"/>
        <pt x="310" y="-4" on="1"/>
        <pt x="252" y="-4" on="0"/>
        <pt x="147" y="43" on="0"/>
        <pt x="68" y="123" on="0"/>
        <pt x="22" y="229" on="0"/>
        <pt x="22" y="289" on="1"/>
        <pt x="22" y="349" on="0"/>
        <pt x="69" y="453" on="0"/>
        <pt x="151" y="529" on="0"/>
        <pt x="262" y="572" on="0"/>
        <pt x="326" y="572" on="1"/>
        <pt x="407" y="572" on="0"/>
        <pt x="534" y="506" on="0"/>
        <pt x="565" y="448" on="1"/>
        <pt x="438" y="351" on="1"/>
        <pt x="422" y="382" on="0"/>
        <pt x="356" y="421" on="0"/>
        <pt x="320" y="421" on="1"/>
        <pt x="265" y="421" on="0"/>
        <pt x="195" y="346" on="0"/>
        <pt x="195" y="283" on="1"/>
        <pt x="195" y="220" on="0"/>
        <pt x="267" y="147" on="0"/>
        <pt x="325" y="147" on="1"/>
        <pt x="377" y="147" on="0"/>
        <pt x="425" y="184" on="1"/>
        <pt x="331" y="184" on="1"/>
        <pt x="331" y="306" on="1"/>
        <pt x="589" y="306" on="1"/>
        <pt x="589" y="0" on="1"/>
        <pt x="448" y="0" on="1"/>
      </contour>
    </TTGlyph>
    <TTGlyph name="Gacute" xMin="23" yMin="-5" xMax="704" yMax="914">
      <contour>
        <pt x="543" y="59" on="1"/>
        <pt x="467" y="-5" on="0"/>
        <pt x="368" y="-5" on="1"/>
        <pt x="299" y="-5" on="0"/>
        <pt x="173" y="44" on="0"/>
        <pt x="79" y="138" on="0"/>
        <pt x="23" y="274" on="0"/>
        <pt x="23" y="361" on="1"/>
        <pt x="23" y="436" on="0"/>
        <pt x="79" y="565" on="0"/>
        <pt x="177" y="660" on="0"/>
        <pt x="310" y="715" on="0"/>
        <pt x="387" y="715" on="1"/>
        <pt x="435" y="715" on="0"/>
        <pt x="523" y="694" on="0"/>
        <pt x="598" y="653" on="0"/>
        <pt x="658" y="596" on="0"/>
        <pt x="677" y="560" on="1"/>
        <pt x="532" y="449" on="1"/>
        <pt x="511" y="491" on="0"/>
        <pt x="427" y="542" on="0"/>
        <pt x="380" y="542" on="1"/>
        <pt x="345" y="542" on="0"/>
        <pt x="287" y="514" on="0"/>
        <pt x="245" y="464" on="0"/>
        <pt x="221" y="395" on="0"/>
        <pt x="221" y="354" on="1"/>
        <pt x="221" y="312" on="0"/>
        <pt x="245" y="244" on="0"/>
        <pt x="288" y="195" on="0"/>
        <pt x="348" y="168" on="0"/>
        <pt x="385" y="168" on="1"/>
        <pt x="470" y="168" on="0"/>
        <pt x="535" y="238" on="1"/>
        <pt x="412" y="238" on="1"/>
        <pt x="412" y="378" on="1"/>
        <pt x="704" y="378" on="1"/>
        <pt x="704" y="0" on="1"/>
        <pt x="543" y="0" on="1"/>
      </contour>
      <contour>
        <pt x="448" y="740" on="1"/>
        <pt x="328" y="772" on="1"/>
        <pt x="378" y="914" on="1"/>
        <pt x="547" y="914" on="1"/>
      </contour>
    </TTGlyph>
    <TTGlyph name="Gbreve" xMin="23" yMin="-5" xMax="704" yMax="914">
      <contour>
        <pt x="543" y="59" on="1"/>
        <pt x="467" y="-5" on="0"/>
        <pt x="368" y="-5" on="1"/>
        <pt x="299" y="-5" on="0"/>
        <pt x="173" y="44" on="0"/>
        <pt x="79" y="138" on="0"/>
        <pt x="23" y="274" on="0"/>
        <pt x="23" y="361" on="1"/>
        <pt x="23" y="436" on="0"/>
        <pt x="79" y="565" on="0"/>
        <pt x="177" y="660" on="0"/>
        <pt x="310" y="715" on="0"/>
        <pt x="387" y="715" on="1"/>
        <pt x="435" y="715" on="0"/>
        <pt x="523" y="694" on="0"/>
        <pt x="598" y="653" on="0"/>
        <pt x="658" y="596" on="0"/>
        <pt x="677" y="560" on="1"/>
        <pt x="532" y="449" on="1"/>
        <pt x="511" y="491" on="0"/>
        <pt x="427" y="542" on="0"/>
        <pt x="380" y="542" on="1"/>
        <pt x="345" y="542" on="0"/>
        <pt x="287" y="514" on="0"/>
        <pt x="245" y="464" on="0"/>
        <pt x="221" y="395" on="0"/>
        <pt x="221" y="354" on="1"/>
        <pt x="221" y="312" on="0"/>
        <pt x="245" y="244" on="0"/>
        <pt x="288" y="195" on="0"/>
        <pt x="348" y="168" on="0"/>
        <pt x="385" y="168" on="1"/>
        <pt x="470" y="168" on="0"/>
        <pt x="535" y="238" on="1"/>
        <pt x="412" y="238" on="1"/>
        <pt x="412" y="378" on="1"/>
        <pt x="704" y="378" on="1"/>
        <pt x="704" y="0" on="1"/>
        <pt x="543" y="0" on="1"/>
      </contour>
      <contour>
        <pt x="389" y="833" on="1"/>
        <pt x="412" y="833" on="0"/>
        <pt x="447" y="879" on="0"/>
        <pt x="450" y="914" on="1"/>
        <pt x="548" y="914" on="1"/>
        <pt x="548" y="878" on="0"/>
        <pt x="525" y="819" on="0"/>
        <pt x="483" y="776" on="0"/>
        <pt x="424" y="752" on="0"/>
        <pt x="389" y="752" on="1"/>
        <pt x="354" y="752" on="0"/>
        <pt x="295" y="776" on="0"/>
        <pt x="253" y="819" on="0"/>
        <pt x="230" y="878" on="0"/>
        <pt x="230" y="914" on="1"/>
        <pt x="328" y="914" on="1"/>
        <pt x="328" y="881" on="0"/>
        <pt x="364" y="833" on="0"/>
      </contour>
    </TTGlyph>
    <TTGlyph name="Gcircumflex" xMin="23" yMin="-5" xMax="704" yMax="914">
      <contour>
        <pt x="543" y="59" on="1"/>
        <pt x="467" y="-5" on="0"/>
        <pt x="368" y="-5" on="1"/>
        <pt x="299" y="-5" on="0"/>
        <pt x="173" y="44" on="0"/>
        <pt x="79" y="138" on="0"/>
        <pt x="23" y="274" on="0"/>
        <pt x="23" y="361" on="1"/>
        <pt x="23" y="436" on="0"/>
        <pt x="79" y="565" on="0"/>
        <pt x="177" y="660" on="0"/>
        <pt x="310" y="715" on="0"/>
        <pt x="387" y="715" on="1"/>
        <pt x="435" y="715" on="0"/>
        <pt x="523" y="694" on="0"/>
        <pt x="598" y="653" on="0"/>
        <pt x="658" y="596" on="0"/>
        <pt x="677" y="560" on="1"/>
        <pt x="532" y="449" on="1"/>
        <pt x="511" y="491" on="0"/>
        <pt x="427" y="542" on="0"/>
        <pt x="380" y="542" on="1"/>
        <pt x="345" y="542" on="0"/>
        <pt x="287" y="514" on="0"/>
        <pt x="245" y="464" on="0"/>
        <pt x="221" y="395" on="0"/>
        <pt x="221" y="354" on="1"/>
        <pt x="221" y="312" on="0"/>
        <pt x="245" y="244" on="0"/>
        <pt x="288" y="195" on="0"/>
        <pt x="348" y="168" on="0"/>
        <pt x="385" y="168" on="1"/>
        <pt x="470" y="168" on="0"/>
        <pt x="535" y="238" on="1"/>
        <pt x="412" y="238" on="1"/>
        <pt x="412" y="378" on="1"/>
        <pt x="704" y="378" on="1"/>
        <pt x="704" y="0" on="1"/>
        <pt x="543" y="0" on="1"/>
      </contour>
      <contour>
        <pt x="208" y="799" on="1"/>
        <pt x="321" y="914" on="1"/>
        <pt x="457" y="914" on="1"/>
        <pt x="570" y="799" on="1"/>
        <pt x="474" y="757" on="1"/>
        <pt x="389" y="820" on="1"/>
        <pt x="304" y="757" on="1"/>
      </contour>
    </TTGlyph>
    <TTGlyph name="Gcommaaccent" xMin="23" yMin="-213" xMax="704" yMax="715">
      <contour>
        <pt x="543" y="59" on="1"/>
        <pt x="467" y="-5" on="0"/>
        <pt x="368" y="-5" on="1"/>
        <pt x="299" y="-5" on="0"/>
        <pt x="173" y="44" on="0"/>
        <pt x="79" y="138" on="0"/>
        <pt x="23" y="274" on="0"/>
        <pt x="23" y="361" on="1"/>
        <pt x="23" y="436" on="0"/>
        <pt x="79" y="565" on="0"/>
        <pt x="177" y="660" on="0"/>
        <pt x="310" y="715" on="0"/>
        <pt x="387" y="715" on="1"/>
        <pt x="435" y="715" on="0"/>
        <pt x="523" y="694" on="0"/>
        <pt x="598" y="653" on="0"/>
        <pt x="658" y="596" on="0"/>
        <pt x="677" y="560" on="1"/>
        <pt x="532" y="449" on="1"/>
        <pt x="511" y="491" on="0"/>
        <pt x="427" y="542" on="0"/>
        <pt x="380" y="542" on="1"/>
        <pt x="345" y="542" on="0"/>
        <pt x="287" y="514" on="0"/>
        <pt x="245" y="464" on="0"/>
        <pt x="221" y="395" on="0"/>
        <pt x="221" y="354" on="1"/>
        <pt x="221" y="312" on="0"/>
        <pt x="245" y="244" on="0"/>
        <pt x="288" y="195" on="0"/>
        <pt x="348" y="168" on="0"/>
        <pt x="385" y="168" on="1"/>
        <pt x="470" y="168" on="0"/>
        <pt x="535" y="238" on="1"/>
        <pt x="412" y="238" on="1"/>
        <pt x="412" y="378" on="1"/>
        <pt x="704" y="378" on="1"/>
        <pt x="704" y="0" on="1"/>
        <pt x="543" y="0" on="1"/>
      </contour>
      <contour>
        <pt x="313" y="-213" on="1"/>
        <pt x="349" y="-152" on="1"/>
        <pt x="292" y="-152" on="1"/>
        <pt x="292" y="-46" on="1"/>
        <pt x="449" y="-46" on="1"/>
        <pt x="449" y="-152" on="1"/>
        <pt x="395" y="-213" on="1"/>
      </contour>
    </TTGlyph>
    <TTGlyph name="Gdotaccent" xMin="23" yMin="-5" xMax="704" yMax="914">
      <contour>
        <pt x="543" y="59" on="1"/>
        <pt x="467" y="-5" on="0"/>
        <pt x="368" y="-5" on="1"/>
        <pt x="299" y="-5" on="0"/>
        <pt x="173" y="44" on="0"/>
        <pt x="79" y="138" on="0"/>
        <pt x="23" y="274" on="0"/>
        <pt x="23" y="361" on="1"/>
        <pt x="23" y="436" on="0"/>
        <pt x="79" y="565" on="0"/>
        <pt x="177" y="660" on="0"/>
        <pt x="310" y="715" on="0"/>
        <pt x="387" y="715" on="1"/>
        <pt x="435" y="715" on="0"/>
        <pt x="523" y="694" on="0"/>
        <pt x="598" y="653" on="0"/>
        <pt x="658" y="596" on="0"/>
        <pt x="677" y="560" on="1"/>
        <pt x="532" y="449" on="1"/>
        <pt x="511" y="491" on="0"/>
        <pt x="427" y="542" on="0"/>
        <pt x="380" y="542" on="1"/>
        <pt x="345" y="542" on="0"/>
        <pt x="287" y="514" on="0"/>
        <pt x="245" y="464" on="0"/>
        <pt x="221" y="395" on="0"/>
        <pt x="221" y="354" on="1"/>
        <pt x="221" y="312" on="0"/>
        <pt x="245" y="244" on="0"/>
        <pt x="288" y="195" on="0"/>
        <pt x="348" y="168" on="0"/>
        <pt x="385" y="168" on="1"/>
        <pt x="470" y="168" on="0"/>
        <pt x="535" y="238" on="1"/>
        <pt x="412" y="238" on="1"/>
        <pt x="412" y="378" on="1"/>
        <pt x="704" y="378" on="1"/>
        <pt x="704" y="0" on="1"/>
        <pt x="543" y="0" on="1"/>
      </contour>
      <contour>
        <pt x="306" y="764" on="1"/>
        <pt x="306" y="914" on="1"/>
        <pt x="476" y="914" on="1"/>
        <pt x="476" y="764" on="1"/>
      </contour>
    </TTGlyph>
    <TTGlyph name="H" xMin="61" yMin="0" xMax="689" yMax="710">
      <contour>
        <pt x="689" y="710" on="1"/>
        <pt x="689" y="0" on="1"/>
        <pt x="494" y="0" on="1"/>
        <pt x="494" y="278" on="1"/>
        <pt x="256" y="278" on="1"/>
        <pt x="256" y="0" on="1"/>
        <pt x="61" y="0" on="1"/>
        <pt x="61" y="710" on="1"/>
        <pt x="256" y="710" on="1"/>
        <pt x="256" y="448" on="1"/>
        <pt x="494" y="448" on="1"/>
        <pt x="494" y="710" on="1"/>
      </contour>
    </TTGlyph>
    <TTGlyph name="H.sc" xMin="55" yMin="0" xMax="617" yMax="568">
      <contour>
        <pt x="617" y="568" on="1"/>
        <pt x="617" y="0" on="1"/>
        <pt x="447" y="0" on="1"/>
        <pt x="447" y="216" on="1"/>
        <pt x="225" y="216" on="1"/>
        <pt x="225" y="0" on="1"/>
        <pt x="55" y="0" on="1"/>
        <pt x="55" y="568" on="1"/>
        <pt x="225" y="568" on="1"/>
        <pt x="225" y="365" on="1"/>
        <pt x="447" y="365" on="1"/>
        <pt x="447" y="568" on="1"/>
      </contour>
    </TTGlyph>
    <TTGlyph name="Hbar" xMin="14" yMin="0" xMax="742" yMax="710">
      <contour>
        <pt x="692" y="710" on="1"/>
        <pt x="692" y="626" on="1"/>
        <pt x="742" y="626" on="1"/>
        <pt x="742" y="538" on="1"/>
        <pt x="692" y="538" on="1"/>
        <pt x="692" y="0" on="1"/>
        <pt x="497" y="0" on="1"/>
        <pt x="497" y="278" on="1"/>
        <pt x="259" y="278" on="1"/>
        <pt x="259" y="0" on="1"/>
        <pt x="64" y="0" on="1"/>
        <pt x="64" y="538" on="1"/>
        <pt x="14" y="538" on="1"/>
        <pt x="14" y="626" on="1"/>
        <pt x="64" y="626" on="1"/>
        <pt x="64" y="710" on="1"/>
        <pt x="259" y="710" on="1"/>
        <pt x="259" y="626" on="1"/>
        <pt x="497" y="626" on="1"/>
        <pt x="497" y="710" on="1"/>
      </contour>
      <contour>
        <pt x="497" y="448" on="1"/>
        <pt x="497" y="538" on="1"/>
        <pt x="259" y="538" on="1"/>
        <pt x="259" y="448" on="1"/>
      </contour>
    </TTGlyph>
    <TTGlyph name="Hcircumflex" xMin="61" yMin="0" xMax="689" yMax="913">
      <contour>
        <pt x="689" y="710" on="1"/>
        <pt x="689" y="0" on="1"/>
        <pt x="494" y="0" on="1"/>
        <pt x="494" y="278" on="1"/>
        <pt x="256" y="278" on="1"/>
        <pt x="256" y="0" on="1"/>
        <pt x="61" y="0" on="1"/>
        <pt x="61" y="710" on="1"/>
        <pt x="256" y="710" on="1"/>
        <pt x="256" y="448" on="1"/>
        <pt x="494" y="448" on="1"/>
        <pt x="494" y="710" on="1"/>
      </contour>
      <contour>
        <pt x="197" y="798" on="1"/>
        <pt x="310" y="913" on="1"/>
        <pt x="446" y="913" on="1"/>
        <pt x="559" y="798" on="1"/>
        <pt x="463" y="756" on="1"/>
        <pt x="378" y="819" on="1"/>
        <pt x="293" y="756" on="1"/>
      </contour>
    </TTGlyph>
    <TTGlyph name="Hdotbelow" xMin="61" yMin="-213" xMax="689" yMax="710">
      <contour>
        <pt x="689" y="710" on="1"/>
        <pt x="689" y="0" on="1"/>
        <pt x="494" y="0" on="1"/>
        <pt x="494" y="278" on="1"/>
        <pt x="256" y="278" on="1"/>
        <pt x="256" y="0" on="1"/>
        <pt x="61" y="0" on="1"/>
        <pt x="61" y="710" on="1"/>
        <pt x="256" y="710" on="1"/>
        <pt x="256" y="448" on="1"/>
        <pt x="494" y="448" on="1"/>
        <pt x="494" y="710" on="1"/>
      </contour>
      <contour>
        <pt x="287" y="-213" on="1"/>
        <pt x="287" y="-63" on="1"/>
        <pt x="457" y="-63" on="1"/>
        <pt x="457" y="-213" on="1"/>
      </contour>
    </TTGlyph>
    <TTGlyph name="I" xMin="61" yMin="0" xMax="256" yMax="710">
      <contour>
        <pt x="61" y="0" on="1"/>
        <pt x="61" y="710" on="1"/>
        <pt x="256" y="710" on="1"/>
        <pt x="256" y="0" on="1"/>
      </contour>
    </TTGlyph>
    <TTGlyph name="I.sc" xMin="55" yMin="0" xMax="225" yMax="568">
      <contour>
        <pt x="55" y="0" on="1"/>
        <pt x="55" y="568" on="1"/>
        <pt x="225" y="568" on="1"/>
        <pt x="225" y="0" on="1"/>
      </contour>
    </TTGlyph>
    <TTGlyph name="IJ" xMin="61" yMin="-11" xMax="762" yMax="710">
      <contour>
        <pt x="61" y="0" on="1"/>
        <pt x="61" y="710" on="1"/>
        <pt x="256" y="710" on="1"/>
        <pt x="256" y="0" on="1"/>
      </contour>
      <contour>
        <pt x="359" y="192" on="1"/>
        <pt x="362" y="190" on="0"/>
        <pt x="382" y="180" on="0"/>
        <pt x="412" y="170" on="0"/>
        <pt x="451" y="162" on="0"/>
        <pt x="472" y="162" on="1"/>
        <pt x="503" y="162" on="0"/>
        <pt x="541" y="182" on="0"/>
        <pt x="561" y="227" on="0"/>
        <pt x="567" y="298" on="0"/>
        <pt x="567" y="349" on="1"/>
        <pt x="567" y="710" on="1"/>
        <pt x="762" y="710" on="1"/>
        <pt x="762" y="349" on="1"/>
        <pt x="762" y="268" on="0"/>
        <pt x="744" y="135" on="0"/>
        <pt x="684" y="41" on="0"/>
        <pt x="569" y="-11" on="0"/>
        <pt x="472" y="-11" on="1"/>
        <pt x="382" y="-11" on="0"/>
        <pt x="318" y="33" on="1"/>
      </contour>
    </TTGlyph>
    <TTGlyph name="Iacute" xMin="61" yMin="0" xMax="315" yMax="914">
      <contour>
        <pt x="61" y="0" on="1"/>
        <pt x="61" y="710" on="1"/>
        <pt x="256" y="710" on="1"/>
        <pt x="256" y="0" on="1"/>
      </contour>
      <contour>
        <pt x="216" y="740" on="1"/>
        <pt x="96" y="772" on="1"/>
        <pt x="146" y="914" on="1"/>
        <pt x="315" y="914" on="1"/>
      </contour>
    </TTGlyph>
    <TTGlyph name="Ibreve" xMin="-1" yMin="0" xMax="317" yMax="914">
      <contour>
        <pt x="61" y="0" on="1"/>
        <pt x="61" y="710" on="1"/>
        <pt x="256" y="710" on="1"/>
        <pt x="256" y="0" on="1"/>
      </contour>
      <contour>
        <pt x="158" y="833" on="1"/>
        <pt x="181" y="833" on="0"/>
        <pt x="216" y="879" on="0"/>
        <pt x="219" y="914" on="1"/>
        <pt x="317" y="914" on="1"/>
        <pt x="317" y="878" on="0"/>
        <pt x="294" y="819" on="0"/>
        <pt x="252" y="776" on="0"/>
        <pt x="193" y="752" on="0"/>
        <pt x="158" y="752" on="1"/>
        <pt x="123" y="752" on="0"/>
        <pt x="64" y="776" on="0"/>
        <pt x="22" y="819" on="0"/>
        <pt x="-1" y="878" on="0"/>
        <pt x="-1" y="914" on="1"/>
        <pt x="97" y="914" on="1"/>
        <pt x="97" y="881" on="0"/>
        <pt x="133" y="833" on="0"/>
      </contour>
    </TTGlyph>
    <TTGlyph name="Icircumflex" xMin="-23" yMin="0" xMax="339" yMax="914">
      <contour>
        <pt x="61" y="0" on="1"/>
        <pt x="61" y="710" on="1"/>
        <pt x="256" y="710" on="1"/>
        <pt x="256" y="0" on="1"/>
      </contour>
      <contour>
        <pt x="-23" y="799" on="1"/>
        <pt x="90" y="914" on="1"/>
        <pt x="226" y="914" on="1"/>
        <pt x="339" y="799" on="1"/>
        <pt x="243" y="757" on="1"/>
        <pt x="158" y="820" on="1"/>
        <pt x="73" y="757" on="1"/>
      </contour>
    </TTGlyph>
    <TTGlyph name="Idblgrave" xMin="-42" yMin="0" xMax="327" yMax="915">
      <contour>
        <pt x="61" y="0" on="1"/>
        <pt x="61" y="710" on="1"/>
        <pt x="256" y="710" on="1"/>
        <pt x="256" y="0" on="1"/>
      </contour>
      <contour>
        <pt x="148" y="915" on="1"/>
        <pt x="287" y="915" on="1"/>
        <pt x="327" y="773" on="1"/>
        <pt x="237" y="741" on="1"/>
      </contour>
      <contour>
        <pt x="-42" y="915" on="1"/>
        <pt x="97" y="915" on="1"/>
        <pt x="137" y="773" on="1"/>
        <pt x="47" y="741" on="1"/>
      </contour>
    </TTGlyph>
    <TTGlyph name="Idieresis" xMin="-35" yMin="0" xMax="351" yMax="905">
      <contour>
        <pt x="61" y="0" on="1"/>
        <pt x="61" y="710" on="1"/>
        <pt x="256" y="710" on="1"/>
        <pt x="256" y="0" on="1"/>
      </contour>
      <contour>
        <pt x="-35" y="765" on="1"/>
        <pt x="-35" y="905" on="1"/>
        <pt x="121" y="905" on="1"/>
        <pt x="121" y="765" on="1"/>
      </contour>
      <contour>
        <pt x="195" y="765" on="1"/>
        <pt x="195" y="905" on="1"/>
        <pt x="351" y="905" on="1"/>
        <pt x="351" y="765" on="1"/>
      </contour>
    </TTGlyph>
    <TTGlyph name="Idotaccent" xMin="61" yMin="0" xMax="256" yMax="914">
      <contour>
        <pt x="61" y="0" on="1"/>
        <pt x="61" y="710" on="1"/>
        <pt x="256" y="710" on="1"/>
        <pt x="256" y="0" on="1"/>
      </contour>
      <contour>
        <pt x="73" y="764" on="1"/>
        <pt x="73" y="914" on="1"/>
        <pt x="243" y="914" on="1"/>
        <pt x="243" y="764" on="1"/>
      </contour>
    </TTGlyph>
    <TTGlyph name="Idotbelow" xMin="61" yMin="-213" xMax="256" yMax="710">
      <contour>
        <pt x="61" y="0" on="1"/>
        <pt x="61" y="710" on="1"/>
        <pt x="256" y="710" on="1"/>
        <pt x="256" y="0" on="1"/>
      </contour>
      <contour>
        <pt x="72" y="-213" on="1"/>
        <pt x="72" y="-63" on="1"/>
        <pt x="242" y="-63" on="1"/>
        <pt x="242" y="-213" on="1"/>
      </contour>
    </TTGlyph>
    <TTGlyph name="Igrave" xMin="1" yMin="0" xMax="256" yMax="915">
      <contour>
        <pt x="61" y="0" on="1"/>
        <pt x="61" y="710" on="1"/>
        <pt x="256" y="710" on="1"/>
        <pt x="256" y="0" on="1"/>
      </contour>
      <contour>
        <pt x="1" y="915" on="1"/>
        <pt x="170" y="915" on="1"/>
        <pt x="220" y="773" on="1"/>
        <pt x="100" y="741" on="1"/>
      </contour>
    </TTGlyph>
    <TTGlyph name="Iinvertedbreve" xMin="0" yMin="0" xMax="318" yMax="914">
      <contour>
        <pt x="61" y="0" on="1"/>
        <pt x="61" y="710" on="1"/>
        <pt x="256" y="710" on="1"/>
        <pt x="256" y="0" on="1"/>
      </contour>
      <contour>
        <pt x="159" y="833" on="1"/>
        <pt x="134" y="833" on="0"/>
        <pt x="98" y="785" on="0"/>
        <pt x="98" y="752" on="1"/>
        <pt x="0" y="752" on="1"/>
        <pt x="0" y="788" on="0"/>
        <pt x="23" y="847" on="0"/>
        <pt x="65" y="890" on="0"/>
        <pt x="124" y="914" on="0"/>
        <pt x="159" y="914" on="1"/>
        <pt x="194" y="914" on="0"/>
        <pt x="253" y="890" on="0"/>
        <pt x="295" y="847" on="0"/>
        <pt x="318" y="788" on="0"/>
        <pt x="318" y="752" on="1"/>
        <pt x="220" y="752" on="1"/>
        <pt x="217" y="787" on="0"/>
        <pt x="182" y="833" on="0"/>
      </contour>
    </TTGlyph>
    <TTGlyph name="Imacron" xMin="4" yMin="0" xMax="314" yMax="904">
      <contour>
        <pt x="61" y="0" on="1"/>
        <pt x="61" y="710" on="1"/>
        <pt x="256" y="710" on="1"/>
        <pt x="256" y="0" on="1"/>
      </contour>
      <contour>
        <pt x="4" y="791" on="1"/>
        <pt x="4" y="904" on="1"/>
        <pt x="314" y="904" on="1"/>
        <pt x="314" y="791" on="1"/>
      </contour>
    </TTGlyph>
    <TTGlyph name="Iogonek" xMin="61" yMin="-215" xMax="256" yMax="710">
      <contour>
        <pt x="219" y="-215" on="1"/>
        <pt x="141" y="-206" on="0"/>
        <pt x="67" y="-150" on="0"/>
        <pt x="67" y="-115" on="1"/>
        <pt x="67" y="-86" on="0"/>
        <pt x="110" y="-26" on="0"/>
        <pt x="153" y="0" on="1"/>
        <pt x="61" y="0" on="1"/>
        <pt x="61" y="710" on="1"/>
        <pt x="256" y="710" on="1"/>
        <pt x="256" y="0" on="1"/>
        <pt x="221" y="-20" on="0"/>
        <pt x="184" y="-61" on="0"/>
        <pt x="184" y="-78" on="1"/>
        <pt x="184" y="-95" on="0"/>
        <pt x="218" y="-115" on="0"/>
        <pt x="254" y="-115" on="1"/>
        <pt x="219" y="-215" on="1"/>
      </contour>
    </TTGlyph>
    <TTGlyph name="Itilde" xMin="-59" yMin="0" xMax="365" yMax="914">
      <contour>
        <pt x="61" y="0" on="1"/>
        <pt x="61" y="710" on="1"/>
        <pt x="256" y="710" on="1"/>
        <pt x="256" y="0" on="1"/>
      </contour>
      <contour>
        <pt x="222" y="756" on="1"/>
        <pt x="199" y="756" on="0"/>
        <pt x="164" y="771" on="0"/>
        <pt x="134" y="789" on="0"/>
        <pt x="105" y="804" on="0"/>
        <pt x="88" y="804" on="1"/>
        <pt x="71" y="804" on="0"/>
        <pt x="53" y="790" on="0"/>
        <pt x="44" y="772" on="0"/>
        <pt x="42" y="757" on="0"/>
        <pt x="42" y="756" on="1"/>
        <pt x="-59" y="756" on="1"/>
        <pt x="-59" y="769" on="0"/>
        <pt x="-44" y="822" on="0"/>
        <pt x="-10" y="874" on="0"/>
        <pt x="42" y="914" on="0"/>
        <pt x="80" y="914" on="1"/>
        <pt x="104" y="914" on="0"/>
        <pt x="140" y="898" on="0"/>
        <pt x="170" y="879" on="0"/>
        <pt x="198" y="863" on="0"/>
        <pt x="215" y="863" on="1"/>
        <pt x="231" y="863" on="0"/>
        <pt x="251" y="878" on="0"/>
        <pt x="262" y="897" on="0"/>
        <pt x="265" y="913" on="0"/>
        <pt x="265" y="914" on="1"/>
        <pt x="365" y="914" on="1"/>
        <pt x="365" y="905" on="0"/>
        <pt x="349" y="854" on="0"/>
        <pt x="315" y="799" on="0"/>
        <pt x="261" y="756" on="0"/>
      </contour>
    </TTGlyph>
    <TTGlyph name="J" xMin="1" yMin="-11" xMax="445" yMax="710">
      <contour>
        <pt x="42" y="192" on="1"/>
        <pt x="45" y="190" on="0"/>
        <pt x="65" y="180" on="0"/>
        <pt x="95" y="170" on="0"/>
        <pt x="134" y="162" on="0"/>
        <pt x="155" y="162" on="1"/>
        <pt x="186" y="162" on="0"/>
        <pt x="224" y="182" on="0"/>
        <pt x="244" y="227" on="0"/>
        <pt x="250" y="298" on="0"/>
        <pt x="250" y="349" on="1"/>
        <pt x="250" y="710" on="1"/>
        <pt x="445" y="710" on="1"/>
        <pt x="445" y="349" on="1"/>
        <pt x="445" y="268" on="0"/>
        <pt x="427" y="135" on="0"/>
        <pt x="367" y="41" on="0"/>
        <pt x="252" y="-11" on="0"/>
        <pt x="155" y="-11" on="1"/>
        <pt x="65" y="-11" on="0"/>
        <pt x="1" y="33" on="1"/>
      </contour>
    </TTGlyph>
    <TTGlyph name="J.sc" xMin="4" yMin="-9" xMax="401" yMax="568">
      <contour>
        <pt x="40" y="165" on="1"/>
        <pt x="43" y="164" on="0"/>
        <pt x="61" y="156" on="0"/>
        <pt x="89" y="148" on="0"/>
        <pt x="123" y="142" on="0"/>
        <pt x="143" y="142" on="1"/>
        <pt x="172" y="142" on="0"/>
        <pt x="207" y="156" on="0"/>
        <pt x="225" y="189" on="0"/>
        <pt x="231" y="241" on="0"/>
        <pt x="231" y="279" on="1"/>
        <pt x="231" y="568" on="1"/>
        <pt x="401" y="568" on="1"/>
        <pt x="401" y="279" on="1"/>
        <pt x="401" y="214" on="0"/>
        <pt x="385" y="108" on="0"/>
        <pt x="331" y="32" on="0"/>
        <pt x="229" y="-9" on="0"/>
        <pt x="143" y="-9" on="1"/>
        <pt x="62" y="-9" on="0"/>
        <pt x="4" y="26" on="1"/>
      </contour>
    </TTGlyph>
    <TTGlyph name="Jcircumflex" xMin="1" yMin="-11" xMax="531" yMax="914">
      <contour>
        <pt x="42" y="192" on="1"/>
        <pt x="45" y="190" on="0"/>
        <pt x="65" y="180" on="0"/>
        <pt x="95" y="170" on="0"/>
        <pt x="134" y="162" on="0"/>
        <pt x="155" y="162" on="1"/>
        <pt x="186" y="162" on="0"/>
        <pt x="224" y="182" on="0"/>
        <pt x="244" y="227" on="0"/>
        <pt x="250" y="298" on="0"/>
        <pt x="250" y="349" on="1"/>
        <pt x="250" y="710" on="1"/>
        <pt x="445" y="710" on="1"/>
        <pt x="445" y="349" on="1"/>
        <pt x="445" y="268" on="0"/>
        <pt x="427" y="135" on="0"/>
        <pt x="367" y="41" on="0"/>
        <pt x="252" y="-11" on="0"/>
        <pt x="155" y="-11" on="1"/>
        <pt x="65" y="-11" on="0"/>
        <pt x="1" y="33" on="1"/>
      </contour>
      <contour>
        <pt x="169" y="799" on="1"/>
        <pt x="282" y="914" on="1"/>
        <pt x="418" y="914" on="1"/>
        <pt x="531" y="799" on="1"/>
        <pt x="435" y="757" on="1"/>
        <pt x="350" y="820" on="1"/>
        <pt x="265" y="757" on="1"/>
      </contour>
    </TTGlyph>
    <TTGlyph name="K" xMin="61" yMin="0" xMax="710" yMax="710">
      <contour>
        <pt x="61" y="0" on="1"/>
        <pt x="61" y="710" on="1"/>
        <pt x="256" y="710" on="1"/>
        <pt x="256" y="440" on="1"/>
        <pt x="472" y="710" on="1"/>
        <pt x="692" y="710" on="1"/>
        <pt x="434" y="392" on="1"/>
        <pt x="710" y="0" on="1"/>
        <pt x="486" y="0" on="1"/>
        <pt x="310" y="261" on="1"/>
        <pt x="256" y="205" on="1"/>
        <pt x="256" y="0" on="1"/>
      </contour>
    </TTGlyph>
    <TTGlyph name="K.sc" xMin="55" yMin="0" xMax="635" yMax="568">
      <contour>
        <pt x="55" y="0" on="1"/>
        <pt x="55" y="568" on="1"/>
        <pt x="225" y="568" on="1"/>
        <pt x="225" y="350" on="1"/>
        <pt x="444" y="568" on="1"/>
        <pt x="619" y="568" on="1"/>
        <pt x="386" y="313" on="1"/>
        <pt x="635" y="0" on="1"/>
        <pt x="457" y="0" on="1"/>
        <pt x="285" y="218" on="1"/>
        <pt x="225" y="168" on="1"/>
        <pt x="225" y="0" on="1"/>
      </contour>
    </TTGlyph>
    <TTGlyph name="Kcommaaccent" xMin="61" yMin="-213" xMax="710" yMax="710">
      <contour>
        <pt x="61" y="0" on="1"/>
        <pt x="61" y="710" on="1"/>
        <pt x="256" y="710" on="1"/>
        <pt x="256" y="440" on="1"/>
        <pt x="472" y="710" on="1"/>
        <pt x="692" y="710" on="1"/>
        <pt x="434" y="392" on="1"/>
        <pt x="710" y="0" on="1"/>
        <pt x="486" y="0" on="1"/>
        <pt x="310" y="261" on="1"/>
        <pt x="256" y="205" on="1"/>
        <pt x="256" y="0" on="1"/>
      </contour>
      <contour>
        <pt x="309" y="-213" on="1"/>
        <pt x="345" y="-152" on="1"/>
        <pt x="288" y="-152" on="1"/>
        <pt x="288" y="-46" on="1"/>
        <pt x="445" y="-46" on="1"/>
        <pt x="445" y="-152" on="1"/>
        <pt x="391" y="-213" on="1"/>
      </contour>
    </TTGlyph>
    <TTGlyph name="L" xMin="61" yMin="0" xMax="578" yMax="710">
      <contour>
        <pt x="61" y="0" on="1"/>
        <pt x="61" y="710" on="1"/>
        <pt x="256" y="710" on="1"/>
        <pt x="256" y="170" on="1"/>
        <pt x="578" y="170" on="1"/>
        <pt x="578" y="0" on="1"/>
      </contour>
    </TTGlyph>
    <TTGlyph name="L.sc" xMin="55" yMin="0" xMax="473" yMax="568">
      <contour>
        <pt x="55" y="0" on="1"/>
        <pt x="55" y="568" on="1"/>
        <pt x="225" y="568" on="1"/>
        <pt x="225" y="148" on="1"/>
        <pt x="473" y="148" on="1"/>
        <pt x="473" y="0" on="1"/>
      </contour>
    </TTGlyph>
    <TTGlyph name="Lacute" xMin="61" yMin="0" xMax="578" yMax="914">
      <contour>
        <pt x="61" y="0" on="1"/>
        <pt x="61" y="710" on="1"/>
        <pt x="256" y="710" on="1"/>
        <pt x="256" y="170" on="1"/>
        <pt x="578" y="170" on="1"/>
        <pt x="578" y="0" on="1"/>
      </contour>
      <contour>
        <pt x="429" y="740" on="1"/>
        <pt x="309" y="772" on="1"/>
        <pt x="359" y="914" on="1"/>
        <pt x="528" y="914" on="1"/>
      </contour>
    </TTGlyph>
    <TTGlyph name="Lcaron" xMin="61" yMin="0" xMax="578" yMax="729">
      <contour>
        <pt x="61" y="0" on="1"/>
        <pt x="61" y="710" on="1"/>
        <pt x="256" y="710" on="1"/>
        <pt x="256" y="170" on="1"/>
        <pt x="578" y="170" on="1"/>
        <pt x="578" y="0" on="1"/>
      </contour>
      <contour>
        <pt x="439" y="555" on="1"/>
        <pt x="319" y="587" on="1"/>
        <pt x="369" y="729" on="1"/>
        <pt x="538" y="729" on="1"/>
      </contour>
    </TTGlyph>
    <TTGlyph name="Lcommaaccent" xMin="61" yMin="-213" xMax="578" yMax="710">
      <contour>
        <pt x="61" y="0" on="1"/>
        <pt x="61" y="710" on="1"/>
        <pt x="256" y="710" on="1"/>
        <pt x="256" y="170" on="1"/>
        <pt x="578" y="170" on="1"/>
        <pt x="578" y="0" on="1"/>
      </contour>
      <contour>
        <pt x="276" y="-213" on="1"/>
        <pt x="312" y="-152" on="1"/>
        <pt x="255" y="-152" on="1"/>
        <pt x="255" y="-46" on="1"/>
        <pt x="412" y="-46" on="1"/>
        <pt x="412" y="-152" on="1"/>
        <pt x="358" y="-213" on="1"/>
      </contour>
    </TTGlyph>
    <TTGlyph name="Ldot" xMin="61" yMin="0" xMax="578" yMax="710">
      <contour>
        <pt x="61" y="0" on="1"/>
        <pt x="61" y="710" on="1"/>
        <pt x="256" y="710" on="1"/>
        <pt x="256" y="170" on="1"/>
        <pt x="578" y="170" on="1"/>
        <pt x="578" y="0" on="1"/>
      </contour>
      <contour>
        <pt x="364" y="317" on="1"/>
        <pt x="364" y="501" on="1"/>
        <pt x="518" y="501" on="1"/>
        <pt x="518" y="317" on="1"/>
      </contour>
    </TTGlyph>
    <TTGlyph name="Lslash" xMin="-17" yMin="0" xMax="590" yMax="710">
      <contour>
        <pt x="73" y="0" on="1"/>
        <pt x="73" y="275" on="1"/>
        <pt x="26" y="252" on="1"/>
        <pt x="-17" y="353" on="1"/>
        <pt x="73" y="397" on="1"/>
        <pt x="73" y="710" on="1"/>
        <pt x="268" y="710" on="1"/>
        <pt x="268" y="492" on="1"/>
        <pt x="339" y="527" on="1"/>
        <pt x="382" y="426" on="1"/>
        <pt x="268" y="370" on="1"/>
        <pt x="268" y="170" on="1"/>
        <pt x="590" y="170" on="1"/>
        <pt x="590" y="0" on="1"/>
      </contour>
    </TTGlyph>
    <TTGlyph name="M" xMin="61" yMin="0" xMax="793" yMax="710">
      <contour>
        <pt x="598" y="0" on="1"/>
        <pt x="598" y="374" on="1"/>
        <pt x="479" y="111" on="1"/>
        <pt x="375" y="111" on="1"/>
        <pt x="256" y="374" on="1"/>
        <pt x="256" y="0" on="1"/>
        <pt x="61" y="0" on="1"/>
        <pt x="61" y="710" on="1"/>
        <pt x="274" y="710" on="1"/>
        <pt x="427" y="376" on="1"/>
        <pt x="581" y="710" on="1"/>
        <pt x="793" y="710" on="1"/>
        <pt x="793" y="0" on="1"/>
      </contour>
    </TTGlyph>
    <TTGlyph name="M.sc" xMin="55" yMin="0" xMax="712" yMax="568">
      <contour>
        <pt x="542" y="0" on="1"/>
        <pt x="542" y="275" on="1"/>
        <pt x="429" y="86" on="1"/>
        <pt x="338" y="86" on="1"/>
        <pt x="225" y="275" on="1"/>
        <pt x="225" y="0" on="1"/>
        <pt x="55" y="0" on="1"/>
        <pt x="55" y="568" on="1"/>
        <pt x="241" y="568" on="1"/>
        <pt x="384" y="318" on="1"/>
        <pt x="527" y="568" on="1"/>
        <pt x="712" y="568" on="1"/>
        <pt x="712" y="0" on="1"/>
      </contour>
    </TTGlyph>
    <TTGlyph name="N" xMin="61" yMin="0" xMax="693" yMax="710">
      <contour>
        <pt x="256" y="349" on="1"/>
        <pt x="256" y="0" on="1"/>
        <pt x="61" y="0" on="1"/>
        <pt x="61" y="710" on="1"/>
        <pt x="213" y="710" on="1"/>
        <pt x="498" y="349" on="1"/>
        <pt x="498" y="710" on="1"/>
        <pt x="693" y="710" on="1"/>
        <pt x="693" y="0" on="1"/>
        <pt x="538" y="0" on="1"/>
      </contour>
    </TTGlyph>
    <TTGlyph name="N.sc" xMin="55" yMin="0" xMax="622" yMax="568">
      <contour>
        <pt x="225" y="253" on="1"/>
        <pt x="225" y="0" on="1"/>
        <pt x="55" y="0" on="1"/>
        <pt x="55" y="568" on="1"/>
        <pt x="188" y="568" on="1"/>
        <pt x="452" y="306" on="1"/>
        <pt x="452" y="568" on="1"/>
        <pt x="622" y="568" on="1"/>
        <pt x="622" y="0" on="1"/>
        <pt x="487" y="0" on="1"/>
      </contour>
    </TTGlyph>
    <TTGlyph name="Nacute" xMin="61" yMin="0" xMax="693" yMax="913">
      <contour>
        <pt x="256" y="349" on="1"/>
        <pt x="256" y="0" on="1"/>
        <pt x="61" y="0" on="1"/>
        <pt x="61" y="710" on="1"/>
        <pt x="213" y="710" on="1"/>
        <pt x="498" y="349" on="1"/>
        <pt x="498" y="710" on="1"/>
        <pt x="693" y="710" on="1"/>
        <pt x="693" y="0" on="1"/>
        <pt x="538" y="0" on="1"/>
      </contour>
      <contour>
        <pt x="432" y="739" on="1"/>
        <pt x="312" y="771" on="1"/>
        <pt x="362" y="913" on="1"/>
        <pt x="531" y="913" on="1"/>
      </contour>
    </TTGlyph>
    <TTGlyph name="Ncaron" xMin="61" yMin="0" xMax="693" yMax="913">
      <contour>
        <pt x="256" y="349" on="1"/>
        <pt x="256" y="0" on="1"/>
        <pt x="61" y="0" on="1"/>
        <pt x="61" y="710" on="1"/>
        <pt x="213" y="710" on="1"/>
        <pt x="498" y="349" on="1"/>
        <pt x="498" y="710" on="1"/>
        <pt x="693" y="710" on="1"/>
        <pt x="693" y="0" on="1"/>
        <pt x="538" y="0" on="1"/>
      </contour>
      <contour>
        <pt x="289" y="913" on="1"/>
        <pt x="374" y="850" on="1"/>
        <pt x="459" y="913" on="1"/>
        <pt x="555" y="871" on="1"/>
        <pt x="442" y="756" on="1"/>
        <pt x="306" y="756" on="1"/>
        <pt x="193" y="871" on="1"/>
      </contour>
    </TTGlyph>
    <TTGlyph name="Ncommaaccent" xMin="61" yMin="-213" xMax="693" yMax="710">
      <contour>
        <pt x="256" y="349" on="1"/>
        <pt x="256" y="0" on="1"/>
        <pt x="61" y="0" on="1"/>
        <pt x="61" y="710" on="1"/>
        <pt x="213" y="710" on="1"/>
        <pt x="498" y="349" on="1"/>
        <pt x="498" y="710" on="1"/>
        <pt x="693" y="710" on="1"/>
        <pt x="693" y="0" on="1"/>
        <pt x="538" y="0" on="1"/>
      </contour>
      <contour>
        <pt x="313" y="-213" on="1"/>
        <pt x="349" y="-152" on="1"/>
        <pt x="292" y="-152" on="1"/>
        <pt x="292" y="-46" on="1"/>
        <pt x="449" y="-46" on="1"/>
        <pt x="449" y="-152" on="1"/>
        <pt x="395" y="-213" on="1"/>
      </contour>
    </TTGlyph>
    <TTGlyph name="Ndotaccent" xMin="61" yMin="0" xMax="693" yMax="913">
      <contour>
        <pt x="256" y="349" on="1"/>
        <pt x="256" y="0" on="1"/>
        <pt x="61" y="0" on="1"/>
        <pt x="61" y="710" on="1"/>
        <pt x="213" y="710" on="1"/>
        <pt x="498" y="349" on="1"/>
        <pt x="498" y="710" on="1"/>
        <pt x="693" y="710" on="1"/>
        <pt x="693" y="0" on="1"/>
        <pt x="538" y="0" on="1"/>
      </contour>
      <contour>
        <pt x="289" y="763" on="1"/>
        <pt x="289" y="913" on="1"/>
        <pt x="459" y="913" on="1"/>
        <pt x="459" y="763" on="1"/>
      </contour>
    </TTGlyph>
    <TTGlyph name="Ntilde" xMin="61" yMin="0" xMax="693" yMax="913">
      <contour>
        <pt x="256" y="349" on="1"/>
        <pt x="256" y="0" on="1"/>
        <pt x="61" y="0" on="1"/>
        <pt x="61" y="710" on="1"/>
        <pt x="213" y="710" on="1"/>
        <pt x="498" y="349" on="1"/>
        <pt x="498" y="710" on="1"/>
        <pt x="693" y="710" on="1"/>
        <pt x="693" y="0" on="1"/>
        <pt x="538" y="0" on="1"/>
      </contour>
      <contour>
        <pt x="438" y="755" on="1"/>
        <pt x="415" y="755" on="0"/>
        <pt x="380" y="770" on="0"/>
        <pt x="350" y="788" on="0"/>
        <pt x="321" y="803" on="0"/>
        <pt x="304" y="803" on="1"/>
        <pt x="287" y="803" on="0"/>
        <pt x="269" y="789" on="0"/>
        <pt x="260" y="771" on="0"/>
        <pt x="258" y="756" on="0"/>
        <pt x="258" y="755" on="1"/>
        <pt x="157" y="755" on="1"/>
        <pt x="157" y="768" on="0"/>
        <pt x="172" y="821" on="0"/>
        <pt x="206" y="873" on="0"/>
        <pt x="258" y="913" on="0"/>
        <pt x="296" y="913" on="1"/>
        <pt x="320" y="913" on="0"/>
        <pt x="356" y="897" on="0"/>
        <pt x="386" y="878" on="0"/>
        <pt x="414" y="862" on="0"/>
        <pt x="431" y="862" on="1"/>
        <pt x="447" y="862" on="0"/>
        <pt x="467" y="877" on="0"/>
        <pt x="478" y="896" on="0"/>
        <pt x="481" y="912" on="0"/>
        <pt x="481" y="913" on="1"/>
        <pt x="581" y="913" on="1"/>
        <pt x="581" y="904" on="0"/>
        <pt x="565" y="853" on="0"/>
        <pt x="531" y="798" on="0"/>
        <pt x="477" y="755" on="0"/>
      </contour>
    </TTGlyph>
    <TTGlyph name="O" xMin="22" yMin="-6" xMax="743" yMax="714">
      <contour>
        <pt x="381" y="-6" on="1"/>
        <pt x="300" y="-6" on="0"/>
        <pt x="168" y="56" on="0"/>
        <pt x="74" y="157" on="0"/>
        <pt x="22" y="287" on="0"/>
        <pt x="22" y="356" on="1"/>
        <pt x="22" y="426" on="0"/>
        <pt x="76" y="556" on="0"/>
        <pt x="173" y="655" on="0"/>
        <pt x="306" y="714" on="0"/>
        <pt x="385" y="714" on="1"/>
        <pt x="466" y="714" on="0"/>
        <pt x="598" y="652" on="0"/>
        <pt x="692" y="550" on="0"/>
        <pt x="743" y="420" on="0"/>
        <pt x="743" y="352" on="1"/>
        <pt x="743" y="282" on="0"/>
        <pt x="689" y="153" on="0"/>
        <pt x="593" y="54" on="0"/>
        <pt x="460" y="-6" on="0"/>
      </contour>
      <contour>
        <pt x="220" y="354" on="1"/>
        <pt x="220" y="318" on="0"/>
        <pt x="240" y="251" on="0"/>
        <pt x="280" y="199" on="0"/>
        <pt x="341" y="167" on="0"/>
        <pt x="383" y="167" on="1"/>
        <pt x="425" y="167" on="0"/>
        <pt x="487" y="200" on="0"/>
        <pt x="526" y="253" on="0"/>
        <pt x="545" y="321" on="0"/>
        <pt x="545" y="356" on="1"/>
        <pt x="545" y="392" on="0"/>
        <pt x="525" y="459" on="0"/>
        <pt x="484" y="510" on="0"/>
        <pt x="423" y="541" on="0"/>
        <pt x="382" y="541" on="1"/>
        <pt x="340" y="541" on="0"/>
        <pt x="279" y="509" on="0"/>
        <pt x="239" y="456" on="0"/>
        <pt x="220" y="389" on="0"/>
      </contour>
    </TTGlyph>
    <TTGlyph name="O.sc" xMin="22" yMin="-5" xMax="634" yMax="571">
      <contour>
        <pt x="327" y="-5" on="1"/>
        <pt x="259" y="-5" on="0"/>
        <pt x="146" y="44" on="0"/>
        <pt x="66" y="125" on="0"/>
        <pt x="22" y="230" on="0"/>
        <pt x="22" y="285" on="1"/>
        <pt x="22" y="341" on="0"/>
        <pt x="68" y="445" on="0"/>
        <pt x="150" y="524" on="0"/>
        <pt x="263" y="571" on="0"/>
        <pt x="330" y="571" on="1"/>
        <pt x="399" y="571" on="0"/>
        <pt x="511" y="521" on="0"/>
        <pt x="591" y="440" on="0"/>
        <pt x="634" y="335" on="0"/>
        <pt x="634" y="281" on="1"/>
        <pt x="634" y="225" on="0"/>
        <pt x="589" y="122" on="0"/>
        <pt x="507" y="43" on="0"/>
        <pt x="394" y="-5" on="0"/>
      </contour>
      <contour>
        <pt x="195" y="283" on="1"/>
        <pt x="195" y="257" on="0"/>
        <pt x="212" y="208" on="0"/>
        <pt x="245" y="169" on="0"/>
        <pt x="295" y="146" on="0"/>
        <pt x="329" y="146" on="1"/>
        <pt x="363" y="146" on="0"/>
        <pt x="413" y="170" on="0"/>
        <pt x="445" y="210" on="0"/>
        <pt x="461" y="259" on="0"/>
        <pt x="461" y="285" on="1"/>
        <pt x="461" y="311" on="0"/>
        <pt x="444" y="360" on="0"/>
        <pt x="411" y="397" on="0"/>
        <pt x="361" y="420" on="0"/>
        <pt x="328" y="420" on="1"/>
        <pt x="294" y="420" on="0"/>
        <pt x="244" y="396" on="0"/>
        <pt x="211" y="358" on="0"/>
        <pt x="195" y="308" on="0"/>
      </contour>
    </TTGlyph>
    <TTGlyph name="OE" xMin="22" yMin="-5" xMax="1000" yMax="715">
      <contour>
        <pt x="1000" y="170" on="1"/>
        <pt x="1000" y="0" on="1"/>
        <pt x="514" y="0" on="1"/>
        <pt x="514" y="41" on="1"/>
        <pt x="480" y="20" on="0"/>
        <pt x="403" y="-5" on="0"/>
        <pt x="361" y="-5" on="1"/>
        <pt x="285" y="-5" on="0"/>
        <pt x="160" y="56" on="0"/>
        <pt x="71" y="157" on="0"/>
        <pt x="22" y="287" on="0"/>
        <pt x="22" y="356" on="1"/>
        <pt x="22" y="426" on="0"/>
        <pt x="73" y="556" on="0"/>
        <pt x="165" y="656" on="0"/>
        <pt x="290" y="715" on="0"/>
        <pt x="365" y="715" on="1"/>
        <pt x="407" y="715" on="0"/>
        <pt x="481" y="691" on="0"/>
        <pt x="514" y="670" on="1"/>
        <pt x="514" y="710" on="1"/>
        <pt x="991" y="710" on="1"/>
        <pt x="991" y="540" on="1"/>
        <pt x="709" y="540" on="1"/>
        <pt x="709" y="446" on="1"/>
        <pt x="937" y="446" on="1"/>
        <pt x="937" y="276" on="1"/>
        <pt x="709" y="276" on="1"/>
        <pt x="709" y="170" on="1"/>
      </contour>
      <contour>
        <pt x="363" y="168" on="1"/>
        <pt x="400" y="168" on="0"/>
        <pt x="454" y="201" on="0"/>
        <pt x="488" y="254" on="0"/>
        <pt x="505" y="321" on="0"/>
        <pt x="505" y="356" on="1"/>
        <pt x="505" y="392" on="0"/>
        <pt x="487" y="459" on="0"/>
        <pt x="452" y="511" on="0"/>
        <pt x="398" y="542" on="0"/>
        <pt x="362" y="542" on="1"/>
        <pt x="325" y="542" on="0"/>
        <pt x="272" y="509" on="0"/>
        <pt x="237" y="456" on="0"/>
        <pt x="220" y="389" on="0"/>
        <pt x="220" y="354" on="1"/>
        <pt x="220" y="318" on="0"/>
        <pt x="237" y="251" on="0"/>
        <pt x="273" y="199" on="0"/>
        <pt x="327" y="168" on="0"/>
      </contour>
    </TTGlyph>
    <TTGlyph name="Oacute" xMin="22" yMin="-6" xMax="743" yMax="914">
      <contour>
        <pt x="381" y="-6" on="1"/>
        <pt x="300" y="-6" on="0"/>
        <pt x="168" y="56" on="0"/>
        <pt x="74" y="157" on="0"/>
        <pt x="22" y="287" on="0"/>
        <pt x="22" y="356" on="1"/>
        <pt x="22" y="426" on="0"/>
        <pt x="76" y="556" on="0"/>
        <pt x="173" y="655" on="0"/>
        <pt x="306" y="714" on="0"/>
        <pt x="385" y="714" on="1"/>
        <pt x="466" y="714" on="0"/>
        <pt x="598" y="652" on="0"/>
        <pt x="692" y="550" on="0"/>
        <pt x="743" y="420" on="0"/>
        <pt x="743" y="352" on="1"/>
        <pt x="743" y="282" on="0"/>
        <pt x="689" y="153" on="0"/>
        <pt x="593" y="54" on="0"/>
        <pt x="460" y="-6" on="0"/>
      </contour>
      <contour>
        <pt x="220" y="354" on="1"/>
        <pt x="220" y="318" on="0"/>
        <pt x="240" y="251" on="0"/>
        <pt x="280" y="199" on="0"/>
        <pt x="341" y="167" on="0"/>
        <pt x="383" y="167" on="1"/>
        <pt x="425" y="167" on="0"/>
        <pt x="487" y="200" on="0"/>
        <pt x="526" y="253" on="0"/>
        <pt x="545" y="321" on="0"/>
        <pt x="545" y="356" on="1"/>
        <pt x="545" y="392" on="0"/>
        <pt x="525" y="459" on="0"/>
        <pt x="484" y="510" on="0"/>
        <pt x="423" y="541" on="0"/>
        <pt x="382" y="541" on="1"/>
        <pt x="340" y="541" on="0"/>
        <pt x="279" y="509" on="0"/>
        <pt x="239" y="456" on="0"/>
        <pt x="220" y="389" on="0"/>
      </contour>
      <contour>
        <pt x="451" y="740" on="1"/>
        <pt x="331" y="772" on="1"/>
        <pt x="381" y="914" on="1"/>
        <pt x="550" y="914" on="1"/>
      </contour>
    </TTGlyph>
    <TTGlyph name="Obreve" xMin="22" yMin="-6" xMax="743" yMax="914">
      <contour>
        <pt x="381" y="-6" on="1"/>
        <pt x="300" y="-6" on="0"/>
        <pt x="168" y="56" on="0"/>
        <pt x="74" y="157" on="0"/>
        <pt x="22" y="287" on="0"/>
        <pt x="22" y="356" on="1"/>
        <pt x="22" y="426" on="0"/>
        <pt x="76" y="556" on="0"/>
        <pt x="173" y="655" on="0"/>
        <pt x="306" y="714" on="0"/>
        <pt x="385" y="714" on="1"/>
        <pt x="466" y="714" on="0"/>
        <pt x="598" y="652" on="0"/>
        <pt x="692" y="550" on="0"/>
        <pt x="743" y="420" on="0"/>
        <pt x="743" y="352" on="1"/>
        <pt x="743" y="282" on="0"/>
        <pt x="689" y="153" on="0"/>
        <pt x="593" y="54" on="0"/>
        <pt x="460" y="-6" on="0"/>
      </contour>
      <contour>
        <pt x="220" y="354" on="1"/>
        <pt x="220" y="318" on="0"/>
        <pt x="240" y="251" on="0"/>
        <pt x="280" y="199" on="0"/>
        <pt x="341" y="167" on="0"/>
        <pt x="383" y="167" on="1"/>
        <pt x="425" y="167" on="0"/>
        <pt x="487" y="200" on="0"/>
        <pt x="526" y="253" on="0"/>
        <pt x="545" y="321" on="0"/>
        <pt x="545" y="356" on="1"/>
        <pt x="545" y="392" on="0"/>
        <pt x="525" y="459" on="0"/>
        <pt x="484" y="510" on="0"/>
        <pt x="423" y="541" on="0"/>
        <pt x="382" y="541" on="1"/>
        <pt x="340" y="541" on="0"/>
        <pt x="279" y="509" on="0"/>
        <pt x="239" y="456" on="0"/>
        <pt x="220" y="389" on="0"/>
      </contour>
      <contour>
        <pt x="388" y="833" on="1"/>
        <pt x="411" y="833" on="0"/>
        <pt x="446" y="879" on="0"/>
        <pt x="449" y="914" on="1"/>
        <pt x="547" y="914" on="1"/>
        <pt x="547" y="878" on="0"/>
        <pt x="524" y="819" on="0"/>
        <pt x="482" y="776" on="0"/>
        <pt x="423" y="752" on="0"/>
        <pt x="388" y="752" on="1"/>
        <pt x="353" y="752" on="0"/>
        <pt x="294" y="776" on="0"/>
        <pt x="252" y="819" on="0"/>
        <pt x="229" y="878" on="0"/>
        <pt x="229" y="914" on="1"/>
        <pt x="327" y="914" on="1"/>
        <pt x="327" y="881" on="0"/>
        <pt x="363" y="833" on="0"/>
      </contour>
    </TTGlyph>
    <TTGlyph name="Ocircumflex" xMin="22" yMin="-6" xMax="743" yMax="914">
      <contour>
        <pt x="381" y="-6" on="1"/>
        <pt x="300" y="-6" on="0"/>
        <pt x="168" y="56" on="0"/>
        <pt x="74" y="157" on="0"/>
        <pt x="22" y="287" on="0"/>
        <pt x="22" y="356" on="1"/>
        <pt x="22" y="426" on="0"/>
        <pt x="76" y="556" on="0"/>
        <pt x="173" y="655" on="0"/>
        <pt x="306" y="714" on="0"/>
        <pt x="385" y="714" on="1"/>
        <pt x="466" y="714" on="0"/>
        <pt x="598" y="652" on="0"/>
        <pt x="692" y="550" on="0"/>
        <pt x="743" y="420" on="0"/>
        <pt x="743" y="352" on="1"/>
        <pt x="743" y="282" on="0"/>
        <pt x="689" y="153" on="0"/>
        <pt x="593" y="54" on="0"/>
        <pt x="460" y="-6" on="0"/>
      </contour>
      <contour>
        <pt x="220" y="354" on="1"/>
        <pt x="220" y="318" on="0"/>
        <pt x="240" y="251" on="0"/>
        <pt x="280" y="199" on="0"/>
        <pt x="341" y="167" on="0"/>
        <pt x="383" y="167" on="1"/>
        <pt x="425" y="167" on="0"/>
        <pt x="487" y="200" on="0"/>
        <pt x="526" y="253" on="0"/>
        <pt x="545" y="321" on="0"/>
        <pt x="545" y="356" on="1"/>
        <pt x="545" y="392" on="0"/>
        <pt x="525" y="459" on="0"/>
        <pt x="484" y="510" on="0"/>
        <pt x="423" y="541" on="0"/>
        <pt x="382" y="541" on="1"/>
        <pt x="340" y="541" on="0"/>
        <pt x="279" y="509" on="0"/>
        <pt x="239" y="456" on="0"/>
        <pt x="220" y="389" on="0"/>
      </contour>
      <contour>
        <pt x="203" y="799" on="1"/>
        <pt x="316" y="914" on="1"/>
        <pt x="452" y="914" on="1"/>
        <pt x="565" y="799" on="1"/>
        <pt x="469" y="757" on="1"/>
        <pt x="384" y="820" on="1"/>
        <pt x="299" y="757" on="1"/>
      </contour>
    </TTGlyph>
    <TTGlyph name="Odblgrave" xMin="22" yMin="-6" xMax="743" yMax="915">
      <contour>
        <pt x="381" y="-6" on="1"/>
        <pt x="300" y="-6" on="0"/>
        <pt x="168" y="56" on="0"/>
        <pt x="74" y="157" on="0"/>
        <pt x="22" y="287" on="0"/>
        <pt x="22" y="356" on="1"/>
        <pt x="22" y="426" on="0"/>
        <pt x="76" y="556" on="0"/>
        <pt x="173" y="655" on="0"/>
        <pt x="306" y="714" on="0"/>
        <pt x="385" y="714" on="1"/>
        <pt x="466" y="714" on="0"/>
        <pt x="598" y="652" on="0"/>
        <pt x="692" y="550" on="0"/>
        <pt x="743" y="420" on="0"/>
        <pt x="743" y="352" on="1"/>
        <pt x="743" y="282" on="0"/>
        <pt x="689" y="153" on="0"/>
        <pt x="593" y="54" on="0"/>
        <pt x="460" y="-6" on="0"/>
      </contour>
      <contour>
        <pt x="220" y="354" on="1"/>
        <pt x="220" y="318" on="0"/>
        <pt x="240" y="251" on="0"/>
        <pt x="280" y="199" on="0"/>
        <pt x="341" y="167" on="0"/>
        <pt x="383" y="167" on="1"/>
        <pt x="425" y="167" on="0"/>
        <pt x="487" y="200" on="0"/>
        <pt x="526" y="253" on="0"/>
        <pt x="545" y="321" on="0"/>
        <pt x="545" y="356" on="1"/>
        <pt x="545" y="392" on="0"/>
        <pt x="525" y="459" on="0"/>
        <pt x="484" y="510" on="0"/>
        <pt x="423" y="541" on="0"/>
        <pt x="382" y="541" on="1"/>
        <pt x="340" y="541" on="0"/>
        <pt x="279" y="509" on="0"/>
        <pt x="239" y="456" on="0"/>
        <pt x="220" y="389" on="0"/>
      </contour>
      <contour>
        <pt x="364" y="915" on="1"/>
        <pt x="503" y="915" on="1"/>
        <pt x="543" y="773" on="1"/>
        <pt x="453" y="741" on="1"/>
      </contour>
      <contour>
        <pt x="174" y="915" on="1"/>
        <pt x="313" y="915" on="1"/>
        <pt x="353" y="773" on="1"/>
        <pt x="263" y="741" on="1"/>
      </contour>
    </TTGlyph>
    <TTGlyph name="Odieresis" xMin="22" yMin="-6" xMax="743" yMax="905">
      <contour>
        <pt x="381" y="-6" on="1"/>
        <pt x="300" y="-6" on="0"/>
        <pt x="168" y="56" on="0"/>
        <pt x="74" y="157" on="0"/>
        <pt x="22" y="287" on="0"/>
        <pt x="22" y="356" on="1"/>
        <pt x="22" y="426" on="0"/>
        <pt x="76" y="556" on="0"/>
        <pt x="173" y="655" on="0"/>
        <pt x="306" y="714" on="0"/>
        <pt x="385" y="714" on="1"/>
        <pt x="466" y="714" on="0"/>
        <pt x="598" y="652" on="0"/>
        <pt x="692" y="550" on="0"/>
        <pt x="743" y="420" on="0"/>
        <pt x="743" y="352" on="1"/>
        <pt x="743" y="282" on="0"/>
        <pt x="689" y="153" on="0"/>
        <pt x="593" y="54" on="0"/>
        <pt x="460" y="-6" on="0"/>
      </contour>
      <contour>
        <pt x="220" y="354" on="1"/>
        <pt x="220" y="318" on="0"/>
        <pt x="240" y="251" on="0"/>
        <pt x="280" y="199" on="0"/>
        <pt x="341" y="167" on="0"/>
        <pt x="383" y="167" on="1"/>
        <pt x="425" y="167" on="0"/>
        <pt x="487" y="200" on="0"/>
        <pt x="526" y="253" on="0"/>
        <pt x="545" y="321" on="0"/>
        <pt x="545" y="356" on="1"/>
        <pt x="545" y="392" on="0"/>
        <pt x="525" y="459" on="0"/>
        <pt x="484" y="510" on="0"/>
        <pt x="423" y="541" on="0"/>
        <pt x="382" y="541" on="1"/>
        <pt x="340" y="541" on="0"/>
        <pt x="279" y="509" on="0"/>
        <pt x="239" y="456" on="0"/>
        <pt x="220" y="389" on="0"/>
      </contour>
      <contour>
        <pt x="191" y="765" on="1"/>
        <pt x="191" y="905" on="1"/>
        <pt x="347" y="905" on="1"/>
        <pt x="347" y="765" on="1"/>
      </contour>
      <contour>
        <pt x="421" y="765" on="1"/>
        <pt x="421" y="905" on="1"/>
        <pt x="577" y="905" on="1"/>
        <pt x="577" y="765" on="1"/>
      </contour>
    </TTGlyph>
    <TTGlyph name="Odotbelow" xMin="22" yMin="-213" xMax="743" yMax="714">
      <contour>
        <pt x="381" y="-6" on="1"/>
        <pt x="300" y="-6" on="0"/>
        <pt x="168" y="56" on="0"/>
        <pt x="74" y="157" on="0"/>
        <pt x="22" y="287" on="0"/>
        <pt x="22" y="356" on="1"/>
        <pt x="22" y="426" on="0"/>
        <pt x="76" y="556" on="0"/>
        <pt x="173" y="655" on="0"/>
        <pt x="306" y="714" on="0"/>
        <pt x="385" y="714" on="1"/>
        <pt x="466" y="714" on="0"/>
        <pt x="598" y="652" on="0"/>
        <pt x="692" y="550" on="0"/>
        <pt x="743" y="420" on="0"/>
        <pt x="743" y="352" on="1"/>
        <pt x="743" y="282" on="0"/>
        <pt x="689" y="153" on="0"/>
        <pt x="593" y="54" on="0"/>
        <pt x="460" y="-6" on="0"/>
      </contour>
      <contour>
        <pt x="220" y="354" on="1"/>
        <pt x="220" y="318" on="0"/>
        <pt x="240" y="251" on="0"/>
        <pt x="280" y="199" on="0"/>
        <pt x="341" y="167" on="0"/>
        <pt x="383" y="167" on="1"/>
        <pt x="425" y="167" on="0"/>
        <pt x="487" y="200" on="0"/>
        <pt x="526" y="253" on="0"/>
        <pt x="545" y="321" on="0"/>
        <pt x="545" y="356" on="1"/>
        <pt x="545" y="392" on="0"/>
        <pt x="525" y="459" on="0"/>
        <pt x="484" y="510" on="0"/>
        <pt x="423" y="541" on="0"/>
        <pt x="382" y="541" on="1"/>
        <pt x="340" y="541" on="0"/>
        <pt x="279" y="509" on="0"/>
        <pt x="239" y="456" on="0"/>
        <pt x="220" y="389" on="0"/>
      </contour>
      <contour>
        <pt x="295" y="-213" on="1"/>
        <pt x="295" y="-63" on="1"/>
        <pt x="465" y="-63" on="1"/>
        <pt x="465" y="-213" on="1"/>
      </contour>
    </TTGlyph>
    <TTGlyph name="Ograve" xMin="22" yMin="-6" xMax="743" yMax="915">
      <contour>
        <pt x="381" y="-6" on="1"/>
        <pt x="300" y="-6" on="0"/>
        <pt x="168" y="56" on="0"/>
        <pt x="74" y="157" on="0"/>
        <pt x="22" y="287" on="0"/>
        <pt x="22" y="356" on="1"/>
        <pt x="22" y="426" on="0"/>
        <pt x="76" y="556" on="0"/>
        <pt x="173" y="655" on="0"/>
        <pt x="306" y="714" on="0"/>
        <pt x="385" y="714" on="1"/>
        <pt x="466" y="714" on="0"/>
        <pt x="598" y="652" on="0"/>
        <pt x="692" y="550" on="0"/>
        <pt x="743" y="420" on="0"/>
        <pt x="743" y="352" on="1"/>
        <pt x="743" y="282" on="0"/>
        <pt x="689" y="153" on="0"/>
        <pt x="593" y="54" on="0"/>
        <pt x="460" y="-6" on="0"/>
      </contour>
      <contour>
        <pt x="220" y="354" on="1"/>
        <pt x="220" y="318" on="0"/>
        <pt x="240" y="251" on="0"/>
        <pt x="280" y="199" on="0"/>
        <pt x="341" y="167" on="0"/>
        <pt x="383" y="167" on="1"/>
        <pt x="425" y="167" on="0"/>
        <pt x="487" y="200" on="0"/>
        <pt x="526" y="253" on="0"/>
        <pt x="545" y="321" on="0"/>
        <pt x="545" y="356" on="1"/>
        <pt x="545" y="392" on="0"/>
        <pt x="525" y="459" on="0"/>
        <pt x="484" y="510" on="0"/>
        <pt x="423" y="541" on="0"/>
        <pt x="382" y="541" on="1"/>
        <pt x="340" y="541" on="0"/>
        <pt x="279" y="509" on="0"/>
        <pt x="239" y="456" on="0"/>
        <pt x="220" y="389" on="0"/>
      </contour>
      <contour>
        <pt x="233" y="915" on="1"/>
        <pt x="402" y="915" on="1"/>
        <pt x="452" y="773" on="1"/>
        <pt x="332" y="741" on="1"/>
      </contour>
    </TTGlyph>
    <TTGlyph name="Ohungarumlaut" xMin="22" yMin="-6" xMax="743" yMax="915">
      <contour>
        <pt x="381" y="-6" on="1"/>
        <pt x="300" y="-6" on="0"/>
        <pt x="168" y="56" on="0"/>
        <pt x="74" y="157" on="0"/>
        <pt x="22" y="287" on="0"/>
        <pt x="22" y="356" on="1"/>
        <pt x="22" y="426" on="0"/>
        <pt x="76" y="556" on="0"/>
        <pt x="173" y="655" on="0"/>
        <pt x="306" y="714" on="0"/>
        <pt x="385" y="714" on="1"/>
        <pt x="466" y="714" on="0"/>
        <pt x="598" y="652" on="0"/>
        <pt x="692" y="550" on="0"/>
        <pt x="743" y="420" on="0"/>
        <pt x="743" y="352" on="1"/>
        <pt x="743" y="282" on="0"/>
        <pt x="689" y="153" on="0"/>
        <pt x="593" y="54" on="0"/>
        <pt x="460" y="-6" on="0"/>
      </contour>
      <contour>
        <pt x="220" y="354" on="1"/>
        <pt x="220" y="318" on="0"/>
        <pt x="240" y="251" on="0"/>
        <pt x="280" y="199" on="0"/>
        <pt x="341" y="167" on="0"/>
        <pt x="383" y="167" on="1"/>
        <pt x="425" y="167" on="0"/>
        <pt x="487" y="200" on="0"/>
        <pt x="526" y="253" on="0"/>
        <pt x="545" y="321" on="0"/>
        <pt x="545" y="356" on="1"/>
        <pt x="545" y="392" on="0"/>
        <pt x="525" y="459" on="0"/>
        <pt x="484" y="510" on="0"/>
        <pt x="423" y="541" on="0"/>
        <pt x="382" y="541" on="1"/>
        <pt x="340" y="541" on="0"/>
        <pt x="279" y="509" on="0"/>
        <pt x="239" y="456" on="0"/>
        <pt x="220" y="389" on="0"/>
      </contour>
      <contour>
        <pt x="325" y="741" on="1"/>
        <pt x="235" y="773" on="1"/>
        <pt x="275" y="915" on="1"/>
        <pt x="414" y="915" on="1"/>
      </contour>
      <contour>
        <pt x="515" y="741" on="1"/>
        <pt x="425" y="773" on="1"/>
        <pt x="465" y="915" on="1"/>
        <pt x="604" y="915" on="1"/>
      </contour>
    </TTGlyph>
    <TTGlyph name="Oinvertedbreve" xMin="22" yMin="-6" xMax="743" yMax="914">
      <contour>
        <pt x="381" y="-6" on="1"/>
        <pt x="300" y="-6" on="0"/>
        <pt x="168" y="56" on="0"/>
        <pt x="74" y="157" on="0"/>
        <pt x="22" y="287" on="0"/>
        <pt x="22" y="356" on="1"/>
        <pt x="22" y="426" on="0"/>
        <pt x="76" y="556" on="0"/>
        <pt x="173" y="655" on="0"/>
        <pt x="306" y="714" on="0"/>
        <pt x="385" y="714" on="1"/>
        <pt x="466" y="714" on="0"/>
        <pt x="598" y="652" on="0"/>
        <pt x="692" y="550" on="0"/>
        <pt x="743" y="420" on="0"/>
        <pt x="743" y="352" on="1"/>
        <pt x="743" y="282" on="0"/>
        <pt x="689" y="153" on="0"/>
        <pt x="593" y="54" on="0"/>
        <pt x="460" y="-6" on="0"/>
      </contour>
      <contour>
        <pt x="220" y="354" on="1"/>
        <pt x="220" y="318" on="0"/>
        <pt x="240" y="251" on="0"/>
        <pt x="280" y="199" on="0"/>
        <pt x="341" y="167" on="0"/>
        <pt x="383" y="167" on="1"/>
        <pt x="425" y="167" on="0"/>
        <pt x="487" y="200" on="0"/>
        <pt x="526" y="253" on="0"/>
        <pt x="545" y="321" on="0"/>
        <pt x="545" y="356" on="1"/>
        <pt x="545" y="392" on="0"/>
        <pt x="525" y="459" on="0"/>
        <pt x="484" y="510" on="0"/>
        <pt x="423" y="541" on="0"/>
        <pt x="382" y="541" on="1"/>
        <pt x="340" y="541" on="0"/>
        <pt x="279" y="509" on="0"/>
        <pt x="239" y="456" on="0"/>
        <pt x="220" y="389" on="0"/>
      </contour>
      <contour>
        <pt x="384" y="833" on="1"/>
        <pt x="359" y="833" on="0"/>
        <pt x="323" y="785" on="0"/>
        <pt x="323" y="752" on="1"/>
        <pt x="225" y="752" on="1"/>
        <pt x="225" y="788" on="0"/>
        <pt x="248" y="847" on="0"/>
        <pt x="290" y="890" on="0"/>
        <pt x="349" y="914" on="0"/>
        <pt x="384" y="914" on="1"/>
        <pt x="419" y="914" on="0"/>
        <pt x="478" y="890" on="0"/>
        <pt x="520" y="847" on="0"/>
        <pt x="543" y="788" on="0"/>
        <pt x="543" y="752" on="1"/>
        <pt x="445" y="752" on="1"/>
        <pt x="442" y="787" on="0"/>
        <pt x="407" y="833" on="0"/>
      </contour>
    </TTGlyph>
    <TTGlyph name="Omacron" xMin="22" yMin="-6" xMax="743" yMax="904">
      <contour>
        <pt x="381" y="-6" on="1"/>
        <pt x="300" y="-6" on="0"/>
        <pt x="168" y="56" on="0"/>
        <pt x="74" y="157" on="0"/>
        <pt x="22" y="287" on="0"/>
        <pt x="22" y="356" on="1"/>
        <pt x="22" y="426" on="0"/>
        <pt x="76" y="556" on="0"/>
        <pt x="173" y="655" on="0"/>
        <pt x="306" y="714" on="0"/>
        <pt x="385" y="714" on="1"/>
        <pt x="466" y="714" on="0"/>
        <pt x="598" y="652" on="0"/>
        <pt x="692" y="550" on="0"/>
        <pt x="743" y="420" on="0"/>
        <pt x="743" y="352" on="1"/>
        <pt x="743" y="282" on="0"/>
        <pt x="689" y="153" on="0"/>
        <pt x="593" y="54" on="0"/>
        <pt x="460" y="-6" on="0"/>
      </contour>
      <contour>
        <pt x="220" y="354" on="1"/>
        <pt x="220" y="318" on="0"/>
        <pt x="240" y="251" on="0"/>
        <pt x="280" y="199" on="0"/>
        <pt x="341" y="167" on="0"/>
        <pt x="383" y="167" on="1"/>
        <pt x="425" y="167" on="0"/>
        <pt x="487" y="200" on="0"/>
        <pt x="526" y="253" on="0"/>
        <pt x="545" y="321" on="0"/>
        <pt x="545" y="356" on="1"/>
        <pt x="545" y="392" on="0"/>
        <pt x="525" y="459" on="0"/>
        <pt x="484" y="510" on="0"/>
        <pt x="423" y="541" on="0"/>
        <pt x="382" y="541" on="1"/>
        <pt x="340" y="541" on="0"/>
        <pt x="279" y="509" on="0"/>
        <pt x="239" y="456" on="0"/>
        <pt x="220" y="389" on="0"/>
      </contour>
      <contour>
        <pt x="232" y="791" on="1"/>
        <pt x="232" y="904" on="1"/>
        <pt x="542" y="904" on="1"/>
        <pt x="542" y="791" on="1"/>
      </contour>
    </TTGlyph>
    <TTGlyph name="Omega" xMin="30" yMin="0" xMax="762" yMax="715">
      <contour>
        <pt x="30" y="130" on="1"/>
        <pt x="179" y="130" on="1"/>
        <pt x="114" y="168" on="0"/>
        <pt x="40" y="294" on="0"/>
        <pt x="40" y="375" on="1"/>
        <pt x="40" y="442" on="0"/>
        <pt x="94" y="565" on="0"/>
        <pt x="189" y="659" on="0"/>
        <pt x="319" y="715" on="0"/>
        <pt x="396" y="715" on="1"/>
        <pt x="472" y="715" on="0"/>
        <pt x="603" y="659" on="0"/>
        <pt x="698" y="565" on="0"/>
        <pt x="752" y="442" on="0"/>
        <pt x="752" y="375" on="1"/>
        <pt x="752" y="294" on="0"/>
        <pt x="678" y="168" on="0"/>
        <pt x="613" y="130" on="1"/>
        <pt x="762" y="130" on="1"/>
        <pt x="762" y="0" on="1"/>
        <pt x="433" y="0" on="1"/>
        <pt x="433" y="130" on="1"/>
        <pt x="463" y="143" on="0"/>
        <pt x="510" y="193" on="0"/>
        <pt x="543" y="259" on="0"/>
        <pt x="561" y="336" on="0"/>
        <pt x="561" y="375" on="1"/>
        <pt x="561" y="406" on="0"/>
        <pt x="538" y="466" on="0"/>
        <pt x="496" y="514" on="0"/>
        <pt x="435" y="543" on="0"/>
        <pt x="396" y="543" on="1"/>
        <pt x="357" y="543" on="0"/>
        <pt x="296" y="514" on="0"/>
        <pt x="254" y="466" on="0"/>
        <pt x="231" y="406" on="0"/>
        <pt x="231" y="375" on="1"/>
        <pt x="231" y="336" on="0"/>
        <pt x="249" y="259" on="0"/>
        <pt x="282" y="193" on="0"/>
        <pt x="329" y="143" on="0"/>
        <pt x="359" y="130" on="1"/>
        <pt x="359" y="0" on="1"/>
        <pt x="30" y="0" on="1"/>
      </contour>
    </TTGlyph>
    <TTGlyph name="Oogonek" xMin="22" yMin="-214" xMax="743" yMax="714">
      <contour>
        <pt x="388" y="-214" on="1"/>
        <pt x="310" y="-205" on="0"/>
        <pt x="236" y="-149" on="0"/>
        <pt x="236" y="-114" on="1"/>
        <pt x="236" y="-85" on="0"/>
        <pt x="277" y="-27" on="0"/>
        <pt x="318" y="-1" on="1"/>
        <pt x="250" y="10" on="0"/>
        <pt x="141" y="78" on="0"/>
        <pt x="64" y="176" on="0"/>
        <pt x="22" y="294" on="0"/>
        <pt x="22" y="356" on="1"/>
        <pt x="22" y="426" on="0"/>
        <pt x="76" y="556" on="0"/>
        <pt x="173" y="655" on="0"/>
        <pt x="306" y="714" on="0"/>
        <pt x="385" y="714" on="1"/>
        <pt x="466" y="714" on="0"/>
        <pt x="598" y="652" on="0"/>
        <pt x="692" y="550" on="0"/>
        <pt x="743" y="420" on="0"/>
        <pt x="743" y="352" on="1"/>
        <pt x="743" y="286" on="0"/>
        <pt x="695" y="163" on="0"/>
        <pt x="609" y="66" on="0"/>
        <pt x="488" y="3" on="0"/>
        <pt x="416" y="-4" on="1"/>
        <pt x="386" y="-23" on="0"/>
        <pt x="353" y="-60" on="0"/>
        <pt x="353" y="-77" on="1"/>
        <pt x="353" y="-94" on="0"/>
        <pt x="387" y="-114" on="0"/>
        <pt x="423" y="-114" on="1"/>
      </contour>
      <contour>
        <pt x="220" y="354" on="1"/>
        <pt x="220" y="318" on="0"/>
        <pt x="240" y="251" on="0"/>
        <pt x="280" y="199" on="0"/>
        <pt x="341" y="167" on="0"/>
        <pt x="383" y="167" on="1"/>
        <pt x="425" y="167" on="0"/>
        <pt x="487" y="200" on="0"/>
        <pt x="526" y="253" on="0"/>
        <pt x="545" y="321" on="0"/>
        <pt x="545" y="356" on="1"/>
        <pt x="545" y="392" on="0"/>
        <pt x="525" y="459" on="0"/>
        <pt x="484" y="510" on="0"/>
        <pt x="423" y="541" on="0"/>
        <pt x="382" y="541" on="1"/>
        <pt x="340" y="541" on="0"/>
        <pt x="279" y="509" on="0"/>
        <pt x="239" y="456" on="0"/>
        <pt x="220" y="389" on="0"/>
      </contour>
    </TTGlyph>
    <TTGlyph name="Oslash" xMin="20" yMin="-6" xMax="745" yMax="714">
      <contour>
        <pt x="745" y="710" on="1"/>
        <pt x="655" y="587" on="1"/>
        <pt x="697" y="537" on="0"/>
        <pt x="742" y="415" on="0"/>
        <pt x="742" y="352" on="1"/>
        <pt x="742" y="282" on="0"/>
        <pt x="688" y="153" on="0"/>
        <pt x="592" y="54" on="0"/>
        <pt x="459" y="-6" on="0"/>
        <pt x="380" y="-6" on="1"/>
        <pt x="306" y="-6" on="0"/>
        <pt x="243" y="20" on="1"/>
        <pt x="229" y="0" on="1"/>
        <pt x="20" y="0" on="1"/>
        <pt x="107" y="120" on="1"/>
        <pt x="65" y="170" on="0"/>
        <pt x="21" y="291" on="0"/>
        <pt x="21" y="356" on="1"/>
        <pt x="21" y="426" on="0"/>
        <pt x="75" y="556" on="0"/>
        <pt x="172" y="655" on="0"/>
        <pt x="305" y="714" on="0"/>
        <pt x="384" y="714" on="1"/>
        <pt x="421" y="714" on="0"/>
        <pt x="488" y="700" on="0"/>
        <pt x="519" y="688" on="1"/>
        <pt x="535" y="710" on="1"/>
      </contour>
      <contour>
        <pt x="219" y="354" on="1"/>
        <pt x="219" y="318" on="0"/>
        <pt x="228" y="287" on="1"/>
        <pt x="411" y="538" on="1"/>
        <pt x="396" y="541" on="0"/>
        <pt x="381" y="541" on="1"/>
        <pt x="339" y="541" on="0"/>
        <pt x="278" y="509" on="0"/>
        <pt x="238" y="456" on="0"/>
        <pt x="219" y="389" on="0"/>
      </contour>
      <contour>
        <pt x="544" y="356" on="1"/>
        <pt x="544" y="391" on="0"/>
        <pt x="535" y="421" on="1"/>
        <pt x="352" y="169" on="1"/>
        <pt x="359" y="168" on="0"/>
        <pt x="374" y="167" on="0"/>
        <pt x="382" y="167" on="1"/>
        <pt x="424" y="167" on="0"/>
        <pt x="486" y="200" on="0"/>
        <pt x="525" y="253" on="0"/>
        <pt x="544" y="321" on="0"/>
      </contour>
    </TTGlyph>
    <TTGlyph name="Oslashacute" xMin="20" yMin="-6" xMax="745" yMax="914">
      <contour>
        <pt x="745" y="710" on="1"/>
        <pt x="655" y="587" on="1"/>
        <pt x="697" y="537" on="0"/>
        <pt x="742" y="415" on="0"/>
        <pt x="742" y="352" on="1"/>
        <pt x="742" y="282" on="0"/>
        <pt x="688" y="153" on="0"/>
        <pt x="592" y="54" on="0"/>
        <pt x="459" y="-6" on="0"/>
        <pt x="380" y="-6" on="1"/>
        <pt x="306" y="-6" on="0"/>
        <pt x="243" y="20" on="1"/>
        <pt x="229" y="0" on="1"/>
        <pt x="20" y="0" on="1"/>
        <pt x="107" y="120" on="1"/>
        <pt x="65" y="170" on="0"/>
        <pt x="21" y="291" on="0"/>
        <pt x="21" y="356" on="1"/>
        <pt x="21" y="426" on="0"/>
        <pt x="75" y="556" on="0"/>
        <pt x="172" y="655" on="0"/>
        <pt x="305" y="714" on="0"/>
        <pt x="384" y="714" on="1"/>
        <pt x="421" y="714" on="0"/>
        <pt x="488" y="700" on="0"/>
        <pt x="519" y="688" on="1"/>
        <pt x="535" y="710" on="1"/>
      </contour>
      <contour>
        <pt x="439" y="740" on="1"/>
        <pt x="319" y="772" on="1"/>
        <pt x="369" y="914" on="1"/>
        <pt x="538" y="914" on="1"/>
      </contour>
      <contour>
        <pt x="219" y="354" on="1"/>
        <pt x="219" y="318" on="0"/>
        <pt x="228" y="287" on="1"/>
        <pt x="411" y="538" on="1"/>
        <pt x="396" y="541" on="0"/>
        <pt x="381" y="541" on="1"/>
        <pt x="339" y="541" on="0"/>
        <pt x="278" y="509" on="0"/>
        <pt x="238" y="456" on="0"/>
        <pt x="219" y="389" on="0"/>
      </contour>
      <contour>
        <pt x="544" y="356" on="1"/>
        <pt x="544" y="391" on="0"/>
        <pt x="535" y="421" on="1"/>
        <pt x="352" y="169" on="1"/>
        <pt x="359" y="168" on="0"/>
        <pt x="374" y="167" on="0"/>
        <pt x="382" y="167" on="1"/>
        <pt x="424" y="167" on="0"/>
        <pt x="486" y="200" on="0"/>
        <pt x="525" y="253" on="0"/>
        <pt x="544" y="321" on="0"/>
      </contour>
    </TTGlyph>
    <TTGlyph name="Otilde" xMin="22" yMin="-6" xMax="743" yMax="914">
      <contour>
        <pt x="381" y="-6" on="1"/>
        <pt x="300" y="-6" on="0"/>
        <pt x="168" y="56" on="0"/>
        <pt x="74" y="157" on="0"/>
        <pt x="22" y="287" on="0"/>
        <pt x="22" y="356" on="1"/>
        <pt x="22" y="426" on="0"/>
        <pt x="76" y="556" on="0"/>
        <pt x="173" y="655" on="0"/>
        <pt x="306" y="714" on="0"/>
        <pt x="385" y="714" on="1"/>
        <pt x="466" y="714" on="0"/>
        <pt x="598" y="652" on="0"/>
        <pt x="692" y="550" on="0"/>
        <pt x="743" y="420" on="0"/>
        <pt x="743" y="352" on="1"/>
        <pt x="743" y="282" on="0"/>
        <pt x="689" y="153" on="0"/>
        <pt x="593" y="54" on="0"/>
        <pt x="460" y="-6" on="0"/>
      </contour>
      <contour>
        <pt x="220" y="354" on="1"/>
        <pt x="220" y="318" on="0"/>
        <pt x="240" y="251" on="0"/>
        <pt x="280" y="199" on="0"/>
        <pt x="341" y="167" on="0"/>
        <pt x="383" y="167" on="1"/>
        <pt x="425" y="167" on="0"/>
        <pt x="487" y="200" on="0"/>
        <pt x="526" y="253" on="0"/>
        <pt x="545" y="321" on="0"/>
        <pt x="545" y="356" on="1"/>
        <pt x="545" y="392" on="0"/>
        <pt x="525" y="459" on="0"/>
        <pt x="484" y="510" on="0"/>
        <pt x="423" y="541" on="0"/>
        <pt x="382" y="541" on="1"/>
        <pt x="340" y="541" on="0"/>
        <pt x="279" y="509" on="0"/>
        <pt x="239" y="456" on="0"/>
        <pt x="220" y="389" on="0"/>
      </contour>
      <contour>
        <pt x="452" y="756" on="1"/>
        <pt x="429" y="756" on="0"/>
        <pt x="394" y="771" on="0"/>
        <pt x="364" y="789" on="0"/>
        <pt x="335" y="804" on="0"/>
        <pt x="318" y="804" on="1"/>
        <pt x="301" y="804" on="0"/>
        <pt x="283" y="790" on="0"/>
        <pt x="274" y="772" on="0"/>
        <pt x="272" y="757" on="0"/>
        <pt x="272" y="756" on="1"/>
        <pt x="171" y="756" on="1"/>
        <pt x="171" y="769" on="0"/>
        <pt x="186" y="822" on="0"/>
        <pt x="220" y="874" on="0"/>
        <pt x="272" y="914" on="0"/>
        <pt x="310" y="914" on="1"/>
        <pt x="334" y="914" on="0"/>
        <pt x="370" y="898" on="0"/>
        <pt x="400" y="879" on="0"/>
        <pt x="428" y="863" on="0"/>
        <pt x="445" y="863" on="1"/>
        <pt x="461" y="863" on="0"/>
        <pt x="481" y="878" on="0"/>
        <pt x="492" y="897" on="0"/>
        <pt x="495" y="913" on="0"/>
        <pt x="495" y="914" on="1"/>
        <pt x="595" y="914" on="1"/>
        <pt x="595" y="905" on="0"/>
        <pt x="579" y="854" on="0"/>
        <pt x="545" y="799" on="0"/>
        <pt x="491" y="756" on="0"/>
      </contour>
    </TTGlyph>
    <TTGlyph name="P" xMin="61" yMin="0" xMax="606" yMax="710">
      <contour>
        <pt x="61" y="0" on="1"/>
        <pt x="61" y="710" on="1"/>
        <pt x="367" y="710" on="1"/>
        <pt x="419" y="710" on="0"/>
        <pt x="507" y="667" on="0"/>
        <pt x="570" y="598" on="0"/>
        <pt x="606" y="509" on="0"/>
        <pt x="606" y="464" on="1"/>
        <pt x="606" y="417" on="0"/>
        <pt x="572" y="328" on="0"/>
        <pt x="511" y="259" on="0"/>
        <pt x="424" y="218" on="0"/>
        <pt x="372" y="218" on="1"/>
        <pt x="256" y="218" on="1"/>
        <pt x="256" y="0" on="1"/>
      </contour>
      <contour>
        <pt x="256" y="388" on="1"/>
        <pt x="359" y="388" on="1"/>
        <pt x="377" y="388" on="0"/>
        <pt x="408" y="421" on="0"/>
        <pt x="408" y="464" on="1"/>
        <pt x="408" y="508" on="0"/>
        <pt x="372" y="540" on="0"/>
        <pt x="354" y="540" on="1"/>
        <pt x="256" y="540" on="1"/>
      </contour>
    </TTGlyph>
    <TTGlyph name="P.sc" xMin="55" yMin="0" xMax="544" yMax="568">
      <contour>
        <pt x="55" y="0" on="1"/>
        <pt x="55" y="568" on="1"/>
        <pt x="330" y="568" on="1"/>
        <pt x="376" y="568" on="0"/>
        <pt x="455" y="533" on="0"/>
        <pt x="512" y="477" on="0"/>
        <pt x="544" y="406" on="0"/>
        <pt x="544" y="369" on="1"/>
        <pt x="544" y="331" on="0"/>
        <pt x="514" y="259" on="0"/>
        <pt x="459" y="203" on="0"/>
        <pt x="381" y="169" on="0"/>
        <pt x="334" y="169" on="1"/>
        <pt x="225" y="169" on="1"/>
        <pt x="225" y="0" on="1"/>
      </contour>
      <contour>
        <pt x="225" y="318" on="1"/>
        <pt x="323" y="318" on="1"/>
        <pt x="341" y="318" on="0"/>
        <pt x="371" y="337" on="0"/>
        <pt x="371" y="369" on="1"/>
        <pt x="371" y="385" on="0"/>
        <pt x="361" y="405" on="0"/>
        <pt x="346" y="416" on="0"/>
        <pt x="328" y="420" on="0"/>
        <pt x="319" y="420" on="1"/>
        <pt x="225" y="420" on="1"/>
      </contour>
    </TTGlyph>
    <TTGlyph name="Q" xMin="22" yMin="-5" xMax="761" yMax="715">
      <contour>
        <pt x="547" y="34" on="1"/>
        <pt x="510" y="15" on="0"/>
        <pt x="427" y="-5" on="0"/>
        <pt x="381" y="-5" on="1"/>
        <pt x="300" y="-5" on="0"/>
        <pt x="168" y="56" on="0"/>
        <pt x="74" y="157" on="0"/>
        <pt x="22" y="287" on="0"/>
        <pt x="22" y="356" on="1"/>
        <pt x="22" y="426" on="0"/>
        <pt x="76" y="556" on="0"/>
        <pt x="173" y="656" on="0"/>
        <pt x="306" y="715" on="0"/>
        <pt x="385" y="715" on="1"/>
        <pt x="466" y="715" on="0"/>
        <pt x="598" y="652" on="0"/>
        <pt x="692" y="550" on="0"/>
        <pt x="743" y="420" on="0"/>
        <pt x="743" y="352" on="1"/>
        <pt x="743" y="286" on="0"/>
        <pt x="696" y="165" on="0"/>
        <pt x="653" y="117" on="1"/>
        <pt x="761" y="0" on="1"/>
        <pt x="579" y="0" on="1"/>
      </contour>
      <contour>
        <pt x="383" y="168" on="1"/>
        <pt x="405" y="168" on="0"/>
        <pt x="420" y="172" on="1"/>
        <pt x="303" y="300" on="1"/>
        <pt x="485" y="300" on="1"/>
        <pt x="524" y="257" on="1"/>
        <pt x="535" y="280" on="0"/>
        <pt x="545" y="330" on="0"/>
        <pt x="545" y="356" on="1"/>
        <pt x="545" y="392" on="0"/>
        <pt x="525" y="459" on="0"/>
        <pt x="484" y="511" on="0"/>
        <pt x="423" y="542" on="0"/>
        <pt x="382" y="542" on="1"/>
        <pt x="340" y="542" on="0"/>
        <pt x="279" y="509" on="0"/>
        <pt x="239" y="456" on="0"/>
        <pt x="220" y="389" on="0"/>
        <pt x="220" y="354" on="1"/>
        <pt x="220" y="318" on="0"/>
        <pt x="240" y="251" on="0"/>
        <pt x="280" y="199" on="0"/>
        <pt x="341" y="168" on="0"/>
      </contour>
    </TTGlyph>
    <TTGlyph name="Q.sc" xMin="22" yMin="-4" xMax="666" yMax="572">
      <contour>
        <pt x="476" y="31" on="1"/>
        <pt x="443" y="14" on="0"/>
        <pt x="369" y="-4" on="0"/>
        <pt x="327" y="-4" on="1"/>
        <pt x="259" y="-4" on="0"/>
        <pt x="146" y="45" on="0"/>
        <pt x="66" y="126" on="0"/>
        <pt x="22" y="230" on="0"/>
        <pt x="22" y="285" on="1"/>
        <pt x="22" y="341" on="0"/>
        <pt x="68" y="445" on="0"/>
        <pt x="150" y="524" on="0"/>
        <pt x="263" y="572" on="0"/>
        <pt x="330" y="572" on="1"/>
        <pt x="399" y="572" on="0"/>
        <pt x="511" y="522" on="0"/>
        <pt x="591" y="440" on="0"/>
        <pt x="634" y="335" on="0"/>
        <pt x="634" y="281" on="1"/>
        <pt x="634" y="231" on="0"/>
        <pt x="598" y="140" on="0"/>
        <pt x="566" y="102" on="1"/>
        <pt x="666" y="0" on="1"/>
        <pt x="507" y="0" on="1"/>
      </contour>
      <contour>
        <pt x="329" y="147" on="1"/>
        <pt x="345" y="147" on="0"/>
        <pt x="359" y="150" on="1"/>
        <pt x="262" y="249" on="1"/>
        <pt x="422" y="249" on="1"/>
        <pt x="448" y="222" on="1"/>
        <pt x="455" y="236" on="0"/>
        <pt x="461" y="268" on="0"/>
        <pt x="461" y="285" on="1"/>
        <pt x="461" y="311" on="0"/>
        <pt x="444" y="360" on="0"/>
        <pt x="411" y="398" on="0"/>
        <pt x="361" y="421" on="0"/>
        <pt x="328" y="421" on="1"/>
        <pt x="294" y="421" on="0"/>
        <pt x="244" y="397" on="0"/>
        <pt x="211" y="358" on="0"/>
        <pt x="195" y="308" on="0"/>
        <pt x="195" y="283" on="1"/>
        <pt x="195" y="257" on="0"/>
        <pt x="212" y="208" on="0"/>
        <pt x="245" y="170" on="0"/>
        <pt x="295" y="147" on="0"/>
      </contour>
    </TTGlyph>
    <TTGlyph name="R" xMin="61" yMin="0" xMax="674" yMax="710">
      <contour>
        <pt x="61" y="0" on="1"/>
        <pt x="61" y="710" on="1"/>
        <pt x="387" y="710" on="1"/>
        <pt x="439" y="710" on="0"/>
        <pt x="527" y="667" on="0"/>
        <pt x="590" y="598" on="0"/>
        <pt x="626" y="509" on="0"/>
        <pt x="626" y="464" on="1"/>
        <pt x="626" y="402" on="0"/>
        <pt x="572" y="295" on="0"/>
        <pt x="524" y="261" on="1"/>
        <pt x="674" y="0" on="1"/>
        <pt x="454" y="0" on="1"/>
        <pt x="329" y="218" on="1"/>
        <pt x="256" y="218" on="1"/>
        <pt x="256" y="0" on="1"/>
      </contour>
      <contour>
        <pt x="256" y="388" on="1"/>
        <pt x="379" y="388" on="1"/>
        <pt x="397" y="388" on="0"/>
        <pt x="428" y="428" on="0"/>
        <pt x="428" y="464" on="1"/>
        <pt x="428" y="501" on="0"/>
        <pt x="392" y="540" on="0"/>
        <pt x="374" y="540" on="1"/>
        <pt x="256" y="540" on="1"/>
      </contour>
    </TTGlyph>
    <TTGlyph name="R.sc" xMin="55" yMin="0" xMax="612" yMax="568">
      <contour>
        <pt x="55" y="0" on="1"/>
        <pt x="55" y="568" on="1"/>
        <pt x="347" y="568" on="1"/>
        <pt x="394" y="568" on="0"/>
        <pt x="472" y="533" on="0"/>
        <pt x="529" y="477" on="0"/>
        <pt x="561" y="406" on="0"/>
        <pt x="561" y="369" on="1"/>
        <pt x="561" y="321" on="0"/>
        <pt x="512" y="236" on="0"/>
        <pt x="467" y="207" on="1"/>
        <pt x="612" y="0" on="1"/>
        <pt x="419" y="0" on="1"/>
        <pt x="297" y="169" on="1"/>
        <pt x="225" y="169" on="1"/>
        <pt x="225" y="0" on="1"/>
      </contour>
      <contour>
        <pt x="225" y="318" on="1"/>
        <pt x="341" y="318" on="1"/>
        <pt x="359" y="318" on="0"/>
        <pt x="388" y="343" on="0"/>
        <pt x="388" y="369" on="1"/>
        <pt x="388" y="395" on="0"/>
        <pt x="354" y="420" on="0"/>
        <pt x="336" y="420" on="1"/>
        <pt x="225" y="420" on="1"/>
      </contour>
    </TTGlyph>
    <TTGlyph name="Racute" xMin="61" yMin="0" xMax="674" yMax="913">
      <contour>
        <pt x="61" y="0" on="1"/>
        <pt x="61" y="710" on="1"/>
        <pt x="387" y="710" on="1"/>
        <pt x="439" y="710" on="0"/>
        <pt x="527" y="667" on="0"/>
        <pt x="590" y="598" on="0"/>
        <pt x="626" y="509" on="0"/>
        <pt x="626" y="464" on="1"/>
        <pt x="626" y="402" on="0"/>
        <pt x="572" y="295" on="0"/>
        <pt x="524" y="261" on="1"/>
        <pt x="674" y="0" on="1"/>
        <pt x="454" y="0" on="1"/>
        <pt x="329" y="218" on="1"/>
        <pt x="256" y="218" on="1"/>
        <pt x="256" y="0" on="1"/>
      </contour>
      <contour>
        <pt x="256" y="388" on="1"/>
        <pt x="379" y="388" on="1"/>
        <pt x="397" y="388" on="0"/>
        <pt x="428" y="428" on="0"/>
        <pt x="428" y="464" on="1"/>
        <pt x="428" y="501" on="0"/>
        <pt x="392" y="540" on="0"/>
        <pt x="374" y="540" on="1"/>
        <pt x="256" y="540" on="1"/>
      </contour>
      <contour>
        <pt x="377" y="739" on="1"/>
        <pt x="257" y="771" on="1"/>
        <pt x="307" y="913" on="1"/>
        <pt x="476" y="913" on="1"/>
      </contour>
    </TTGlyph>
    <TTGlyph name="Rcaron" xMin="61" yMin="0" xMax="674" yMax="913">
      <contour>
        <pt x="61" y="0" on="1"/>
        <pt x="61" y="710" on="1"/>
        <pt x="387" y="710" on="1"/>
        <pt x="439" y="710" on="0"/>
        <pt x="527" y="667" on="0"/>
        <pt x="590" y="598" on="0"/>
        <pt x="626" y="509" on="0"/>
        <pt x="626" y="464" on="1"/>
        <pt x="626" y="402" on="0"/>
        <pt x="572" y="295" on="0"/>
        <pt x="524" y="261" on="1"/>
        <pt x="674" y="0" on="1"/>
        <pt x="454" y="0" on="1"/>
        <pt x="329" y="218" on="1"/>
        <pt x="256" y="218" on="1"/>
        <pt x="256" y="0" on="1"/>
      </contour>
      <contour>
        <pt x="256" y="388" on="1"/>
        <pt x="379" y="388" on="1"/>
        <pt x="397" y="388" on="0"/>
        <pt x="428" y="428" on="0"/>
        <pt x="428" y="464" on="1"/>
        <pt x="428" y="501" on="0"/>
        <pt x="392" y="540" on="0"/>
        <pt x="374" y="540" on="1"/>
        <pt x="256" y="540" on="1"/>
      </contour>
      <contour>
        <pt x="234" y="913" on="1"/>
        <pt x="319" y="850" on="1"/>
        <pt x="404" y="913" on="1"/>
        <pt x="500" y="871" on="1"/>
        <pt x="387" y="756" on="1"/>
        <pt x="251" y="756" on="1"/>
        <pt x="138" y="871" on="1"/>
      </contour>
    </TTGlyph>
    <TTGlyph name="Rcommaaccent" xMin="61" yMin="-213" xMax="674" yMax="710">
      <contour>
        <pt x="61" y="0" on="1"/>
        <pt x="61" y="710" on="1"/>
        <pt x="387" y="710" on="1"/>
        <pt x="439" y="710" on="0"/>
        <pt x="527" y="667" on="0"/>
        <pt x="590" y="598" on="0"/>
        <pt x="626" y="509" on="0"/>
        <pt x="626" y="464" on="1"/>
        <pt x="626" y="402" on="0"/>
        <pt x="572" y="295" on="0"/>
        <pt x="524" y="261" on="1"/>
        <pt x="674" y="0" on="1"/>
        <pt x="454" y="0" on="1"/>
        <pt x="329" y="218" on="1"/>
        <pt x="256" y="218" on="1"/>
        <pt x="256" y="0" on="1"/>
      </contour>
      <contour>
        <pt x="256" y="388" on="1"/>
        <pt x="379" y="388" on="1"/>
        <pt x="397" y="388" on="0"/>
        <pt x="428" y="428" on="0"/>
        <pt x="428" y="464" on="1"/>
        <pt x="428" y="501" on="0"/>
        <pt x="392" y="540" on="0"/>
        <pt x="374" y="540" on="1"/>
        <pt x="256" y="540" on="1"/>
      </contour>
      <contour>
        <pt x="293" y="-213" on="1"/>
        <pt x="329" y="-152" on="1"/>
        <pt x="272" y="-152" on="1"/>
        <pt x="272" y="-46" on="1"/>
        <pt x="429" y="-46" on="1"/>
        <pt x="429" y="-152" on="1"/>
        <pt x="375" y="-213" on="1"/>
      </contour>
    </TTGlyph>
    <TTGlyph name="Rdblgrave" xMin="61" yMin="0" xMax="674" yMax="915">
      <contour>
        <pt x="61" y="0" on="1"/>
        <pt x="61" y="710" on="1"/>
        <pt x="387" y="710" on="1"/>
        <pt x="439" y="710" on="0"/>
        <pt x="527" y="667" on="0"/>
        <pt x="590" y="598" on="0"/>
        <pt x="626" y="509" on="0"/>
        <pt x="626" y="464" on="1"/>
        <pt x="626" y="402" on="0"/>
        <pt x="572" y="295" on="0"/>
        <pt x="524" y="261" on="1"/>
        <pt x="674" y="0" on="1"/>
        <pt x="454" y="0" on="1"/>
        <pt x="329" y="218" on="1"/>
        <pt x="256" y="218" on="1"/>
        <pt x="256" y="0" on="1"/>
      </contour>
      <contour>
        <pt x="256" y="388" on="1"/>
        <pt x="379" y="388" on="1"/>
        <pt x="397" y="388" on="0"/>
        <pt x="428" y="428" on="0"/>
        <pt x="428" y="464" on="1"/>
        <pt x="428" y="501" on="0"/>
        <pt x="392" y="540" on="0"/>
        <pt x="374" y="540" on="1"/>
        <pt x="256" y="540" on="1"/>
      </contour>
      <contour>
        <pt x="295" y="915" on="1"/>
        <pt x="434" y="915" on="1"/>
        <pt x="474" y="773" on="1"/>
        <pt x="384" y="741" on="1"/>
      </contour>
      <contour>
        <pt x="105" y="915" on="1"/>
        <pt x="244" y="915" on="1"/>
        <pt x="284" y="773" on="1"/>
        <pt x="194" y="741" on="1"/>
      </contour>
    </TTGlyph>
    <TTGlyph name="Rdotbelow" xMin="61" yMin="-213" xMax="674" yMax="710">
      <contour>
        <pt x="61" y="0" on="1"/>
        <pt x="61" y="710" on="1"/>
        <pt x="387" y="710" on="1"/>
        <pt x="439" y="710" on="0"/>
        <pt x="527" y="667" on="0"/>
        <pt x="590" y="598" on="0"/>
        <pt x="626" y="509" on="0"/>
        <pt x="626" y="464" on="1"/>
        <pt x="626" y="402" on="0"/>
        <pt x="572" y="295" on="0"/>
        <pt x="524" y="261" on="1"/>
        <pt x="674" y="0" on="1"/>
        <pt x="454" y="0" on="1"/>
        <pt x="329" y="218" on="1"/>
        <pt x="256" y="218" on="1"/>
        <pt x="256" y="0" on="1"/>
      </contour>
      <contour>
        <pt x="256" y="388" on="1"/>
        <pt x="379" y="388" on="1"/>
        <pt x="397" y="388" on="0"/>
        <pt x="428" y="428" on="0"/>
        <pt x="428" y="464" on="1"/>
        <pt x="428" y="501" on="0"/>
        <pt x="392" y="540" on="0"/>
        <pt x="374" y="540" on="1"/>
        <pt x="256" y="540" on="1"/>
      </contour>
      <contour>
        <pt x="260" y="-213" on="1"/>
        <pt x="260" y="-63" on="1"/>
        <pt x="430" y="-63" on="1"/>
        <pt x="430" y="-213" on="1"/>
      </contour>
    </TTGlyph>
    <TTGlyph name="Rinvertedbreve" xMin="61" yMin="0" xMax="674" yMax="914">
      <contour>
        <pt x="61" y="0" on="1"/>
        <pt x="61" y="710" on="1"/>
        <pt x="387" y="710" on="1"/>
        <pt x="439" y="710" on="0"/>
        <pt x="527" y="667" on="0"/>
        <pt x="590" y="598" on="0"/>
        <pt x="626" y="509" on="0"/>
        <pt x="626" y="464" on="1"/>
        <pt x="626" y="402" on="0"/>
        <pt x="572" y="295" on="0"/>
        <pt x="524" y="261" on="1"/>
        <pt x="674" y="0" on="1"/>
        <pt x="454" y="0" on="1"/>
        <pt x="329" y="218" on="1"/>
        <pt x="256" y="218" on="1"/>
        <pt x="256" y="0" on="1"/>
      </contour>
      <contour>
        <pt x="256" y="388" on="1"/>
        <pt x="379" y="388" on="1"/>
        <pt x="397" y="388" on="0"/>
        <pt x="428" y="428" on="0"/>
        <pt x="428" y="464" on="1"/>
        <pt x="428" y="501" on="0"/>
        <pt x="392" y="540" on="0"/>
        <pt x="374" y="540" on="1"/>
        <pt x="256" y="540" on="1"/>
      </contour>
      <contour>
        <pt x="322" y="833" on="1"/>
        <pt x="297" y="833" on="0"/>
        <pt x="261" y="785" on="0"/>
        <pt x="261" y="752" on="1"/>
        <pt x="163" y="752" on="1"/>
        <pt x="163" y="788" on="0"/>
        <pt x="186" y="847" on="0"/>
        <pt x="228" y="890" on="0"/>
        <pt x="287" y="914" on="0"/>
        <pt x="322" y="914" on="1"/>
        <pt x="357" y="914" on="0"/>
        <pt x="416" y="890" on="0"/>
        <pt x="458" y="847" on="0"/>
        <pt x="481" y="788" on="0"/>
        <pt x="481" y="752" on="1"/>
        <pt x="383" y="752" on="1"/>
        <pt x="380" y="787" on="0"/>
        <pt x="345" y="833" on="0"/>
      </contour>
    </TTGlyph>
    <TTGlyph name="S" xMin="13" yMin="-9" xMax="592" yMax="716">
      <contour>
        <pt x="491" y="478" on="1"/>
        <pt x="461" y="496" on="0"/>
        <pt x="429" y="510" on="1"/>
        <pt x="402" y="522" on="0"/>
        <pt x="335" y="543" on="0"/>
        <pt x="303" y="543" on="1"/>
        <pt x="277" y="543" on="0"/>
        <pt x="246" y="527" on="0"/>
        <pt x="246" y="508" on="1"/>
        <pt x="246" y="494" on="0"/>
        <pt x="264" y="476" on="0"/>
        <pt x="298" y="461" on="0"/>
        <pt x="347" y="447" on="0"/>
        <pt x="378" y="437" on="1"/>
        <pt x="427" y="422" on="0"/>
        <pt x="506" y="386" on="0"/>
        <pt x="562" y="337" on="0"/>
        <pt x="592" y="267" on="0"/>
        <pt x="592" y="217" on="1"/>
        <pt x="592" y="153" on="0"/>
        <pt x="545" y="66" on="0"/>
        <pt x="468" y="14" on="0"/>
        <pt x="371" y="-9" on="0"/>
        <pt x="322" y="-9" on="1"/>
        <pt x="283" y="-9" on="0"/>
        <pt x="201" y="3" on="0"/>
        <pt x="120" y="25" on="0"/>
        <pt x="45" y="55" on="0"/>
        <pt x="13" y="74" on="1"/>
        <pt x="97" y="245" on="1"/>
        <pt x="132" y="223" on="0"/>
        <pt x="170" y="206" on="1"/>
        <pt x="202" y="191" on="0"/>
        <pt x="283" y="167" on="0"/>
        <pt x="325" y="167" on="1"/>
        <pt x="357" y="167" on="0"/>
        <pt x="382" y="184" on="0"/>
        <pt x="382" y="198" on="1"/>
        <pt x="382" y="213" on="0"/>
        <pt x="357" y="234" on="0"/>
        <pt x="313" y="250" on="0"/>
        <pt x="256" y="266" on="0"/>
        <pt x="224" y="277" on="1"/>
        <pt x="177" y="293" on="0"/>
        <pt x="109" y="330" on="0"/>
        <pt x="65" y="377" on="0"/>
        <pt x="44" y="437" on="0"/>
        <pt x="44" y="476" on="1"/>
        <pt x="44" y="535" on="0"/>
        <pt x="87" y="625" on="0"/>
        <pt x="161" y="685" on="0"/>
        <pt x="256" y="716" on="0"/>
        <pt x="309" y="716" on="1"/>
        <pt x="348" y="716" on="0"/>
        <pt x="422" y="701" on="0"/>
        <pt x="491" y="678" on="0"/>
        <pt x="551" y="651" on="0"/>
        <pt x="575" y="639" on="1"/>
      </contour>
    </TTGlyph>
    <TTGlyph name="S.sc" xMin="15" yMin="-8" xMax="516" yMax="573">
      <contour>
        <pt x="427" y="371" on="1"/>
        <pt x="424" y="373" on="0"/>
        <pt x="393" y="390" on="0"/>
        <pt x="348" y="408" on="0"/>
        <pt x="293" y="422" on="0"/>
        <pt x="266" y="422" on="1"/>
        <pt x="244" y="422" on="0"/>
        <pt x="218" y="415" on="0"/>
        <pt x="218" y="405" on="1"/>
        <pt x="218" y="387" on="0"/>
        <pt x="278" y="371" on="0"/>
        <pt x="331" y="355" on="1"/>
        <pt x="373" y="343" on="0"/>
        <pt x="442" y="314" on="0"/>
        <pt x="490" y="273" on="0"/>
        <pt x="516" y="217" on="0"/>
        <pt x="516" y="177" on="1"/>
        <pt x="516" y="124" on="0"/>
        <pt x="475" y="53" on="0"/>
        <pt x="409" y="10" on="0"/>
        <pt x="325" y="-8" on="0"/>
        <pt x="282" y="-8" on="1"/>
        <pt x="249" y="-8" on="0"/>
        <pt x="177" y="2" on="0"/>
        <pt x="108" y="19" on="0"/>
        <pt x="42" y="43" on="0"/>
        <pt x="15" y="57" on="1"/>
        <pt x="89" y="206" on="1"/>
        <pt x="93" y="201" on="0"/>
        <pt x="129" y="181" on="0"/>
        <pt x="183" y="161" on="0"/>
        <pt x="250" y="146" on="0"/>
        <pt x="285" y="146" on="1"/>
        <pt x="311" y="146" on="0"/>
        <pt x="332" y="155" on="0"/>
        <pt x="332" y="161" on="1"/>
        <pt x="332" y="171" on="0"/>
        <pt x="310" y="184" on="0"/>
        <pt x="273" y="196" on="0"/>
        <pt x="224" y="207" on="0"/>
        <pt x="197" y="216" on="1"/>
        <pt x="116" y="242" on="0"/>
        <pt x="42" y="317" on="0"/>
        <pt x="42" y="382" on="1"/>
        <pt x="42" y="428" on="0"/>
        <pt x="80" y="500" on="0"/>
        <pt x="143" y="548" on="0"/>
        <pt x="226" y="573" on="0"/>
        <pt x="271" y="573" on="1"/>
        <pt x="304" y="573" on="0"/>
        <pt x="369" y="561" on="0"/>
        <pt x="428" y="543" on="0"/>
        <pt x="479" y="521" on="0"/>
        <pt x="500" y="512" on="1"/>
      </contour>
    </TTGlyph>
    <TTGlyph name="Sacute" xMin="13" yMin="-9" xMax="592" yMax="914">
      <contour>
        <pt x="491" y="478" on="1"/>
        <pt x="461" y="496" on="0"/>
        <pt x="429" y="510" on="1"/>
        <pt x="402" y="522" on="0"/>
        <pt x="335" y="543" on="0"/>
        <pt x="303" y="543" on="1"/>
        <pt x="277" y="543" on="0"/>
        <pt x="246" y="527" on="0"/>
        <pt x="246" y="508" on="1"/>
        <pt x="246" y="494" on="0"/>
        <pt x="264" y="476" on="0"/>
        <pt x="298" y="461" on="0"/>
        <pt x="347" y="447" on="0"/>
        <pt x="378" y="437" on="1"/>
        <pt x="427" y="422" on="0"/>
        <pt x="506" y="386" on="0"/>
        <pt x="562" y="337" on="0"/>
        <pt x="592" y="267" on="0"/>
        <pt x="592" y="217" on="1"/>
        <pt x="592" y="153" on="0"/>
        <pt x="545" y="66" on="0"/>
        <pt x="468" y="14" on="0"/>
        <pt x="371" y="-9" on="0"/>
        <pt x="322" y="-9" on="1"/>
        <pt x="283" y="-9" on="0"/>
        <pt x="201" y="3" on="0"/>
        <pt x="120" y="25" on="0"/>
        <pt x="45" y="55" on="0"/>
        <pt x="13" y="74" on="1"/>
        <pt x="97" y="245" on="1"/>
        <pt x="132" y="223" on="0"/>
        <pt x="170" y="206" on="1"/>
        <pt x="202" y="191" on="0"/>
        <pt x="283" y="167" on="0"/>
        <pt x="325" y="167" on="1"/>
        <pt x="357" y="167" on="0"/>
        <pt x="382" y="184" on="0"/>
        <pt x="382" y="198" on="1"/>
        <pt x="382" y="213" on="0"/>
        <pt x="357" y="234" on="0"/>
        <pt x="313" y="250" on="0"/>
        <pt x="256" y="266" on="0"/>
        <pt x="224" y="277" on="1"/>
        <pt x="177" y="293" on="0"/>
        <pt x="109" y="330" on="0"/>
        <pt x="65" y="377" on="0"/>
        <pt x="44" y="437" on="0"/>
        <pt x="44" y="476" on="1"/>
        <pt x="44" y="535" on="0"/>
        <pt x="87" y="625" on="0"/>
        <pt x="161" y="685" on="0"/>
        <pt x="256" y="716" on="0"/>
        <pt x="309" y="716" on="1"/>
        <pt x="348" y="716" on="0"/>
        <pt x="422" y="701" on="0"/>
        <pt x="491" y="678" on="0"/>
        <pt x="551" y="651" on="0"/>
        <pt x="575" y="639" on="1"/>
      </contour>
      <contour>
        <pt x="385" y="740" on="1"/>
        <pt x="265" y="772" on="1"/>
        <pt x="315" y="914" on="1"/>
        <pt x="484" y="914" on="1"/>
      </contour>
    </TTGlyph>
    <TTGlyph name="Scaron" xMin="13" yMin="-9" xMax="592" yMax="914">
      <contour>
        <pt x="491" y="478" on="1"/>
        <pt x="461" y="496" on="0"/>
        <pt x="429" y="510" on="1"/>
        <pt x="402" y="522" on="0"/>
        <pt x="335" y="543" on="0"/>
        <pt x="303" y="543" on="1"/>
        <pt x="277" y="543" on="0"/>
        <pt x="246" y="527" on="0"/>
        <pt x="246" y="508" on="1"/>
        <pt x="246" y="494" on="0"/>
        <pt x="264" y="476" on="0"/>
        <pt x="298" y="461" on="0"/>
        <pt x="347" y="447" on="0"/>
        <pt x="378" y="437" on="1"/>
        <pt x="427" y="422" on="0"/>
        <pt x="506" y="386" on="0"/>
        <pt x="562" y="337" on="0"/>
        <pt x="592" y="267" on="0"/>
        <pt x="592" y="217" on="1"/>
        <pt x="592" y="153" on="0"/>
        <pt x="545" y="66" on="0"/>
        <pt x="468" y="14" on="0"/>
        <pt x="371" y="-9" on="0"/>
        <pt x="322" y="-9" on="1"/>
        <pt x="283" y="-9" on="0"/>
        <pt x="201" y="3" on="0"/>
        <pt x="120" y="25" on="0"/>
        <pt x="45" y="55" on="0"/>
        <pt x="13" y="74" on="1"/>
        <pt x="97" y="245" on="1"/>
        <pt x="132" y="223" on="0"/>
        <pt x="170" y="206" on="1"/>
        <pt x="202" y="191" on="0"/>
        <pt x="283" y="167" on="0"/>
        <pt x="325" y="167" on="1"/>
        <pt x="357" y="167" on="0"/>
        <pt x="382" y="184" on="0"/>
        <pt x="382" y="198" on="1"/>
        <pt x="382" y="213" on="0"/>
        <pt x="357" y="234" on="0"/>
        <pt x="313" y="250" on="0"/>
        <pt x="256" y="266" on="0"/>
        <pt x="224" y="277" on="1"/>
        <pt x="177" y="293" on="0"/>
        <pt x="109" y="330" on="0"/>
        <pt x="65" y="377" on="0"/>
        <pt x="44" y="437" on="0"/>
        <pt x="44" y="476" on="1"/>
        <pt x="44" y="535" on="0"/>
        <pt x="87" y="625" on="0"/>
        <pt x="161" y="685" on="0"/>
        <pt x="256" y="716" on="0"/>
        <pt x="309" y="716" on="1"/>
        <pt x="348" y="716" on="0"/>
        <pt x="422" y="701" on="0"/>
        <pt x="491" y="678" on="0"/>
        <pt x="551" y="651" on="0"/>
        <pt x="575" y="639" on="1"/>
      </contour>
      <contour>
        <pt x="242" y="914" on="1"/>
        <pt x="327" y="851" on="1"/>
        <pt x="412" y="914" on="1"/>
        <pt x="508" y="872" on="1"/>
        <pt x="395" y="757" on="1"/>
        <pt x="259" y="757" on="1"/>
        <pt x="146" y="872" on="1"/>
      </contour>
    </TTGlyph>
    <TTGlyph name="Schwa" xMin="12" yMin="-5" xMax="736" yMax="714">
      <contour>
        <pt x="375" y="-5" on="1"/>
        <pt x="286" y="-5" on="0"/>
        <pt x="150" y="60" on="0"/>
        <pt x="59" y="161" on="0"/>
        <pt x="12" y="282" on="0"/>
        <pt x="12" y="338" on="1"/>
        <pt x="12" y="357" on="0"/>
        <pt x="16" y="396" on="0"/>
        <pt x="18" y="411" on="1"/>
        <pt x="523" y="411" on="1"/>
        <pt x="520" y="446" on="0"/>
        <pt x="493" y="496" on="0"/>
        <pt x="453" y="528" on="0"/>
        <pt x="403" y="543" on="0"/>
        <pt x="377" y="543" on="1"/>
        <pt x="356" y="543" on="0"/>
        <pt x="315" y="532" on="0"/>
        <pt x="280" y="512" on="0"/>
        <pt x="254" y="483" on="0"/>
        <pt x="248" y="464" on="1"/>
        <pt x="45" y="521" on="1"/>
        <pt x="65" y="564" on="0"/>
        <pt x="128" y="636" on="0"/>
        <pt x="212" y="686" on="0"/>
        <pt x="315" y="714" on="0"/>
        <pt x="375" y="714" on="1"/>
        <pt x="462" y="714" on="0"/>
        <pt x="597" y="649" on="0"/>
        <pt x="688" y="548" on="0"/>
        <pt x="736" y="425" on="0"/>
        <pt x="736" y="366" on="1"/>
        <pt x="736" y="299" on="0"/>
        <pt x="690" y="166" on="0"/>
        <pt x="598" y="61" on="0"/>
        <pt x="463" y="-5" on="0"/>
      </contour>
      <contour>
        <pt x="378" y="165" on="1"/>
        <pt x="435" y="165" on="0"/>
        <pt x="510" y="219" on="0"/>
        <pt x="518" y="268" on="1"/>
        <pt x="228" y="268" on="1"/>
        <pt x="237" y="219" on="0"/>
        <pt x="318" y="165" on="0"/>
      </contour>
    </TTGlyph>
    <TTGlyph name="Scircumflex" xMin="13" yMin="-9" xMax="592" yMax="914">
      <contour>
        <pt x="491" y="478" on="1"/>
        <pt x="461" y="496" on="0"/>
        <pt x="429" y="510" on="1"/>
        <pt x="402" y="522" on="0"/>
        <pt x="335" y="543" on="0"/>
        <pt x="303" y="543" on="1"/>
        <pt x="277" y="543" on="0"/>
        <pt x="246" y="527" on="0"/>
        <pt x="246" y="508" on="1"/>
        <pt x="246" y="494" on="0"/>
        <pt x="264" y="476" on="0"/>
        <pt x="298" y="461" on="0"/>
        <pt x="347" y="447" on="0"/>
        <pt x="378" y="437" on="1"/>
        <pt x="427" y="422" on="0"/>
        <pt x="506" y="386" on="0"/>
        <pt x="562" y="337" on="0"/>
        <pt x="592" y="267" on="0"/>
        <pt x="592" y="217" on="1"/>
        <pt x="592" y="153" on="0"/>
        <pt x="545" y="66" on="0"/>
        <pt x="468" y="14" on="0"/>
        <pt x="371" y="-9" on="0"/>
        <pt x="322" y="-9" on="1"/>
        <pt x="283" y="-9" on="0"/>
        <pt x="201" y="3" on="0"/>
        <pt x="120" y="25" on="0"/>
        <pt x="45" y="55" on="0"/>
        <pt x="13" y="74" on="1"/>
        <pt x="97" y="245" on="1"/>
        <pt x="132" y="223" on="0"/>
        <pt x="170" y="206" on="1"/>
        <pt x="202" y="191" on="0"/>
        <pt x="283" y="167" on="0"/>
        <pt x="325" y="167" on="1"/>
        <pt x="357" y="167" on="0"/>
        <pt x="382" y="184" on="0"/>
        <pt x="382" y="198" on="1"/>
        <pt x="382" y="213" on="0"/>
        <pt x="357" y="234" on="0"/>
        <pt x="313" y="250" on="0"/>
        <pt x="256" y="266" on="0"/>
        <pt x="224" y="277" on="1"/>
        <pt x="177" y="293" on="0"/>
        <pt x="109" y="330" on="0"/>
        <pt x="65" y="377" on="0"/>
        <pt x="44" y="437" on="0"/>
        <pt x="44" y="476" on="1"/>
        <pt x="44" y="535" on="0"/>
        <pt x="87" y="625" on="0"/>
        <pt x="161" y="685" on="0"/>
        <pt x="256" y="716" on="0"/>
        <pt x="309" y="716" on="1"/>
        <pt x="348" y="716" on="0"/>
        <pt x="422" y="701" on="0"/>
        <pt x="491" y="678" on="0"/>
        <pt x="551" y="651" on="0"/>
        <pt x="575" y="639" on="1"/>
      </contour>
      <contour>
        <pt x="146" y="799" on="1"/>
        <pt x="259" y="914" on="1"/>
        <pt x="395" y="914" on="1"/>
        <pt x="508" y="799" on="1"/>
        <pt x="412" y="757" on="1"/>
        <pt x="327" y="820" on="1"/>
        <pt x="242" y="757" on="1"/>
      </contour>
    </TTGlyph>
    <TTGlyph name="Sdotbelow" xMin="13" yMin="-213" xMax="592" yMax="716">
      <contour>
        <pt x="491" y="478" on="1"/>
        <pt x="461" y="496" on="0"/>
        <pt x="429" y="510" on="1"/>
        <pt x="402" y="522" on="0"/>
        <pt x="335" y="543" on="0"/>
        <pt x="303" y="543" on="1"/>
        <pt x="277" y="543" on="0"/>
        <pt x="246" y="527" on="0"/>
        <pt x="246" y="508" on="1"/>
        <pt x="246" y="494" on="0"/>
        <pt x="264" y="476" on="0"/>
        <pt x="298" y="461" on="0"/>
        <pt x="347" y="447" on="0"/>
        <pt x="378" y="437" on="1"/>
        <pt x="427" y="422" on="0"/>
        <pt x="506" y="386" on="0"/>
        <pt x="562" y="337" on="0"/>
        <pt x="592" y="267" on="0"/>
        <pt x="592" y="217" on="1"/>
        <pt x="592" y="153" on="0"/>
        <pt x="545" y="66" on="0"/>
        <pt x="468" y="14" on="0"/>
        <pt x="371" y="-9" on="0"/>
        <pt x="322" y="-9" on="1"/>
        <pt x="283" y="-9" on="0"/>
        <pt x="201" y="3" on="0"/>
        <pt x="120" y="25" on="0"/>
        <pt x="45" y="55" on="0"/>
        <pt x="13" y="74" on="1"/>
        <pt x="97" y="245" on="1"/>
        <pt x="132" y="223" on="0"/>
        <pt x="170" y="206" on="1"/>
        <pt x="202" y="191" on="0"/>
        <pt x="283" y="167" on="0"/>
        <pt x="325" y="167" on="1"/>
        <pt x="357" y="167" on="0"/>
        <pt x="382" y="184" on="0"/>
        <pt x="382" y="198" on="1"/>
        <pt x="382" y="213" on="0"/>
        <pt x="357" y="234" on="0"/>
        <pt x="313" y="250" on="0"/>
        <pt x="256" y="266" on="0"/>
        <pt x="224" y="277" on="1"/>
        <pt x="177" y="293" on="0"/>
        <pt x="109" y="330" on="0"/>
        <pt x="65" y="377" on="0"/>
        <pt x="44" y="437" on="0"/>
        <pt x="44" y="476" on="1"/>
        <pt x="44" y="535" on="0"/>
        <pt x="87" y="625" on="0"/>
        <pt x="161" y="685" on="0"/>
        <pt x="256" y="716" on="0"/>
        <pt x="309" y="716" on="1"/>
        <pt x="348" y="716" on="0"/>
        <pt x="422" y="701" on="0"/>
        <pt x="491" y="678" on="0"/>
        <pt x="551" y="651" on="0"/>
        <pt x="575" y="639" on="1"/>
      </contour>
      <contour>
        <pt x="218" y="-213" on="1"/>
        <pt x="218" y="-63" on="1"/>
        <pt x="388" y="-63" on="1"/>
        <pt x="388" y="-213" on="1"/>
      </contour>
    </TTGlyph>
    <TTGlyph name="T" xMin="10" yMin="0" xMax="614" yMax="710">
      <contour>
        <pt x="614" y="540" on="1"/>
        <pt x="410" y="540" on="1"/>
        <pt x="410" y="0" on="1"/>
        <pt x="215" y="0" on="1"/>
        <pt x="215" y="540" on="1"/>
        <pt x="10" y="540" on="1"/>
        <pt x="10" y="710" on="1"/>
        <pt x="614" y="710" on="1"/>
      </contour>
    </TTGlyph>
    <TTGlyph name="T.sc" xMin="12" yMin="0" xMax="554" yMax="568">
      <contour>
        <pt x="554" y="420" on="1"/>
        <pt x="369" y="420" on="1"/>
        <pt x="369" y="0" on="1"/>
        <pt x="198" y="0" on="1"/>
        <pt x="198" y="420" on="1"/>
        <pt x="12" y="420" on="1"/>
        <pt x="12" y="568" on="1"/>
        <pt x="554" y="568" on="1"/>
      </contour>
    </TTGlyph>
    <TTGlyph name="Tbar" xMin="21" yMin="0" xMax="625" yMax="710">
      <contour>
        <pt x="625" y="540" on="1"/>
        <pt x="421" y="540" on="1"/>
        <pt x="421" y="356" on="1"/>
        <pt x="585" y="356" on="1"/>
        <pt x="585" y="268" on="1"/>
        <pt x="421" y="268" on="1"/>
        <pt x="421" y="0" on="1"/>
        <pt x="226" y="0" on="1"/>
        <pt x="226" y="268" on="1"/>
        <pt x="61" y="268" on="1"/>
        <pt x="61" y="356" on="1"/>
        <pt x="226" y="356" on="1"/>
        <pt x="226" y="540" on="1"/>
        <pt x="21" y="540" on="1"/>
        <pt x="21" y="710" on="1"/>
        <pt x="625" y="710" on="1"/>
      </contour>
    </TTGlyph>
    <TTGlyph name="Tcaron" xMin="10" yMin="0" xMax="614" yMax="914">
      <contour>
        <pt x="614" y="540" on="1"/>
        <pt x="410" y="540" on="1"/>
        <pt x="410" y="0" on="1"/>
        <pt x="215" y="0" on="1"/>
        <pt x="215" y="540" on="1"/>
        <pt x="10" y="540" on="1"/>
        <pt x="10" y="710" on="1"/>
        <pt x="614" y="710" on="1"/>
      </contour>
      <contour>
        <pt x="235" y="914" on="1"/>
        <pt x="320" y="851" on="1"/>
        <pt x="405" y="914" on="1"/>
        <pt x="501" y="872" on="1"/>
        <pt x="388" y="757" on="1"/>
        <pt x="252" y="757" on="1"/>
        <pt x="139" y="872" on="1"/>
      </contour>
    </TTGlyph>
    <TTGlyph name="Tdotbelow" xMin="10" yMin="-213" xMax="614" yMax="710">
      <contour>
        <pt x="614" y="540" on="1"/>
        <pt x="410" y="540" on="1"/>
        <pt x="410" y="0" on="1"/>
        <pt x="215" y="0" on="1"/>
        <pt x="215" y="540" on="1"/>
        <pt x="10" y="540" on="1"/>
        <pt x="10" y="710" on="1"/>
        <pt x="614" y="710" on="1"/>
      </contour>
      <contour>
        <pt x="224" y="-213" on="1"/>
        <pt x="224" y="-63" on="1"/>
        <pt x="394" y="-63" on="1"/>
        <pt x="394" y="-213" on="1"/>
      </contour>
    </TTGlyph>
    <TTGlyph name="Thorn" xMin="61" yMin="0" xMax="591" yMax="710">
      <contour>
        <pt x="352" y="592" on="1"/>
        <pt x="404" y="592" on="0"/>
        <pt x="492" y="549" on="0"/>
        <pt x="555" y="480" on="0"/>
        <pt x="591" y="392" on="0"/>
        <pt x="591" y="347" on="1"/>
        <pt x="591" y="299" on="0"/>
        <pt x="557" y="211" on="0"/>
        <pt x="496" y="142" on="0"/>
        <pt x="409" y="101" on="0"/>
        <pt x="357" y="101" on="1"/>
        <pt x="256" y="101" on="1"/>
        <pt x="256" y="0" on="1"/>
        <pt x="61" y="0" on="1"/>
        <pt x="61" y="710" on="1"/>
        <pt x="256" y="710" on="1"/>
        <pt x="256" y="592" on="1"/>
      </contour>
      <contour>
        <pt x="347" y="271" on="1"/>
        <pt x="366" y="271" on="0"/>
        <pt x="396" y="312" on="0"/>
        <pt x="396" y="347" on="1"/>
        <pt x="396" y="384" on="0"/>
        <pt x="361" y="422" on="0"/>
        <pt x="342" y="422" on="1"/>
        <pt x="256" y="422" on="1"/>
        <pt x="256" y="271" on="1"/>
      </contour>
    </TTGlyph>
    <TTGlyph name="U" xMin="51" yMin="-6" xMax="692" yMax="710">
      <contour>
        <pt x="371" y="167" on="1"/>
        <pt x="405" y="167" on="0"/>
        <pt x="453" y="197" on="0"/>
        <pt x="483" y="246" on="0"/>
        <pt x="497" y="310" on="0"/>
        <pt x="497" y="345" on="1"/>
        <pt x="497" y="710" on="1"/>
        <pt x="692" y="710" on="1"/>
        <pt x="692" y="345" on="1"/>
        <pt x="692" y="271" on="0"/>
        <pt x="654" y="142" on="0"/>
        <pt x="574" y="48" on="0"/>
        <pt x="453" y="-6" on="0"/>
        <pt x="371" y="-6" on="1"/>
        <pt x="286" y="-6" on="0"/>
        <pt x="165" y="51" on="0"/>
        <pt x="87" y="147" on="0"/>
        <pt x="51" y="274" on="0"/>
        <pt x="51" y="345" on="1"/>
        <pt x="51" y="710" on="1"/>
        <pt x="246" y="710" on="1"/>
        <pt x="246" y="345" on="1"/>
        <pt x="246" y="310" on="0"/>
        <pt x="260" y="245" on="0"/>
        <pt x="290" y="196" on="0"/>
        <pt x="337" y="167" on="0"/>
      </contour>
    </TTGlyph>
    <TTGlyph name="U.sc" xMin="47" yMin="-5" xMax="608" yMax="568">
      <contour>
        <pt x="327" y="146" on="1"/>
        <pt x="358" y="146" on="0"/>
        <pt x="400" y="167" on="0"/>
        <pt x="426" y="203" on="0"/>
        <pt x="438" y="250" on="0"/>
        <pt x="438" y="275" on="1"/>
        <pt x="438" y="568" on="1"/>
        <pt x="608" y="568" on="1"/>
        <pt x="608" y="275" on="1"/>
        <pt x="608" y="215" on="0"/>
        <pt x="574" y="113" on="0"/>
        <pt x="505" y="38" on="0"/>
        <pt x="399" y="-5" on="0"/>
        <pt x="327" y="-5" on="1"/>
        <pt x="252" y="-5" on="0"/>
        <pt x="146" y="40" on="0"/>
        <pt x="79" y="117" on="0"/>
        <pt x="47" y="218" on="0"/>
        <pt x="47" y="275" on="1"/>
        <pt x="47" y="568" on="1"/>
        <pt x="217" y="568" on="1"/>
        <pt x="217" y="275" on="1"/>
        <pt x="217" y="249" on="0"/>
        <pt x="229" y="202" on="0"/>
        <pt x="256" y="167" on="0"/>
        <pt x="297" y="146" on="0"/>
      </contour>
    </TTGlyph>
    <TTGlyph name="Uacute" xMin="51" yMin="-6" xMax="692" yMax="914">
      <contour>
        <pt x="371" y="167" on="1"/>
        <pt x="405" y="167" on="0"/>
        <pt x="453" y="197" on="0"/>
        <pt x="483" y="246" on="0"/>
        <pt x="497" y="310" on="0"/>
        <pt x="497" y="345" on="1"/>
        <pt x="497" y="710" on="1"/>
        <pt x="692" y="710" on="1"/>
        <pt x="692" y="345" on="1"/>
        <pt x="692" y="271" on="0"/>
        <pt x="654" y="142" on="0"/>
        <pt x="574" y="48" on="0"/>
        <pt x="453" y="-6" on="0"/>
        <pt x="371" y="-6" on="1"/>
        <pt x="286" y="-6" on="0"/>
        <pt x="165" y="51" on="0"/>
        <pt x="87" y="147" on="0"/>
        <pt x="51" y="274" on="0"/>
        <pt x="51" y="345" on="1"/>
        <pt x="51" y="710" on="1"/>
        <pt x="246" y="710" on="1"/>
        <pt x="246" y="345" on="1"/>
        <pt x="246" y="310" on="0"/>
        <pt x="260" y="245" on="0"/>
        <pt x="290" y="196" on="0"/>
        <pt x="337" y="167" on="0"/>
      </contour>
      <contour>
        <pt x="429" y="740" on="1"/>
        <pt x="309" y="772" on="1"/>
        <pt x="359" y="914" on="1"/>
        <pt x="528" y="914" on="1"/>
      </contour>
    </TTGlyph>
    <TTGlyph name="Ubreve" xMin="51" yMin="-6" xMax="692" yMax="914">
      <contour>
        <pt x="371" y="167" on="1"/>
        <pt x="405" y="167" on="0"/>
        <pt x="453" y="197" on="0"/>
        <pt x="483" y="246" on="0"/>
        <pt x="497" y="310" on="0"/>
        <pt x="497" y="345" on="1"/>
        <pt x="497" y="710" on="1"/>
        <pt x="692" y="710" on="1"/>
        <pt x="692" y="345" on="1"/>
        <pt x="692" y="271" on="0"/>
        <pt x="654" y="142" on="0"/>
        <pt x="574" y="48" on="0"/>
        <pt x="453" y="-6" on="0"/>
        <pt x="371" y="-6" on="1"/>
        <pt x="286" y="-6" on="0"/>
        <pt x="165" y="51" on="0"/>
        <pt x="87" y="147" on="0"/>
        <pt x="51" y="274" on="0"/>
        <pt x="51" y="345" on="1"/>
        <pt x="51" y="710" on="1"/>
        <pt x="246" y="710" on="1"/>
        <pt x="246" y="345" on="1"/>
        <pt x="246" y="310" on="0"/>
        <pt x="260" y="245" on="0"/>
        <pt x="290" y="196" on="0"/>
        <pt x="337" y="167" on="0"/>
      </contour>
      <contour>
        <pt x="371" y="833" on="1"/>
        <pt x="394" y="833" on="0"/>
        <pt x="429" y="879" on="0"/>
        <pt x="432" y="914" on="1"/>
        <pt x="530" y="914" on="1"/>
        <pt x="530" y="878" on="0"/>
        <pt x="507" y="819" on="0"/>
        <pt x="465" y="776" on="0"/>
        <pt x="406" y="752" on="0"/>
        <pt x="371" y="752" on="1"/>
        <pt x="336" y="752" on="0"/>
        <pt x="277" y="776" on="0"/>
        <pt x="235" y="819" on="0"/>
        <pt x="212" y="878" on="0"/>
        <pt x="212" y="914" on="1"/>
        <pt x="310" y="914" on="1"/>
        <pt x="310" y="881" on="0"/>
        <pt x="346" y="833" on="0"/>
      </contour>
    </TTGlyph>
    <TTGlyph name="Ucircumflex" xMin="51" yMin="-6" xMax="692" yMax="914">
      <contour>
        <pt x="371" y="167" on="1"/>
        <pt x="405" y="167" on="0"/>
        <pt x="453" y="197" on="0"/>
        <pt x="483" y="246" on="0"/>
        <pt x="497" y="310" on="0"/>
        <pt x="497" y="345" on="1"/>
        <pt x="497" y="710" on="1"/>
        <pt x="692" y="710" on="1"/>
        <pt x="692" y="345" on="1"/>
        <pt x="692" y="271" on="0"/>
        <pt x="654" y="142" on="0"/>
        <pt x="574" y="48" on="0"/>
        <pt x="453" y="-6" on="0"/>
        <pt x="371" y="-6" on="1"/>
        <pt x="286" y="-6" on="0"/>
        <pt x="165" y="51" on="0"/>
        <pt x="87" y="147" on="0"/>
        <pt x="51" y="274" on="0"/>
        <pt x="51" y="345" on="1"/>
        <pt x="51" y="710" on="1"/>
        <pt x="246" y="710" on="1"/>
        <pt x="246" y="345" on="1"/>
        <pt x="246" y="310" on="0"/>
        <pt x="260" y="245" on="0"/>
        <pt x="290" y="196" on="0"/>
        <pt x="337" y="167" on="0"/>
      </contour>
      <contour>
        <pt x="190" y="799" on="1"/>
        <pt x="303" y="914" on="1"/>
        <pt x="439" y="914" on="1"/>
        <pt x="552" y="799" on="1"/>
        <pt x="456" y="757" on="1"/>
        <pt x="371" y="820" on="1"/>
        <pt x="286" y="757" on="1"/>
      </contour>
    </TTGlyph>
    <TTGlyph name="Udblgrave" xMin="51" yMin="-6" xMax="692" yMax="915">
      <contour>
        <pt x="371" y="167" on="1"/>
        <pt x="405" y="167" on="0"/>
        <pt x="453" y="197" on="0"/>
        <pt x="483" y="246" on="0"/>
        <pt x="497" y="310" on="0"/>
        <pt x="497" y="345" on="1"/>
        <pt x="497" y="710" on="1"/>
        <pt x="692" y="710" on="1"/>
        <pt x="692" y="345" on="1"/>
        <pt x="692" y="271" on="0"/>
        <pt x="654" y="142" on="0"/>
        <pt x="574" y="48" on="0"/>
        <pt x="453" y="-6" on="0"/>
        <pt x="371" y="-6" on="1"/>
        <pt x="286" y="-6" on="0"/>
        <pt x="165" y="51" on="0"/>
        <pt x="87" y="147" on="0"/>
        <pt x="51" y="274" on="0"/>
        <pt x="51" y="345" on="1"/>
        <pt x="51" y="710" on="1"/>
        <pt x="246" y="710" on="1"/>
        <pt x="246" y="345" on="1"/>
        <pt x="246" y="310" on="0"/>
        <pt x="260" y="245" on="0"/>
        <pt x="290" y="196" on="0"/>
        <pt x="337" y="167" on="0"/>
      </contour>
      <contour>
        <pt x="356" y="915" on="1"/>
        <pt x="495" y="915" on="1"/>
        <pt x="535" y="773" on="1"/>
        <pt x="445" y="741" on="1"/>
      </contour>
      <contour>
        <pt x="166" y="915" on="1"/>
        <pt x="305" y="915" on="1"/>
        <pt x="345" y="773" on="1"/>
        <pt x="255" y="741" on="1"/>
      </contour>
    </TTGlyph>
    <TTGlyph name="Udieresis" xMin="51" yMin="-6" xMax="692" yMax="905">
      <contour>
        <pt x="371" y="167" on="1"/>
        <pt x="405" y="167" on="0"/>
        <pt x="453" y="197" on="0"/>
        <pt x="483" y="246" on="0"/>
        <pt x="497" y="310" on="0"/>
        <pt x="497" y="345" on="1"/>
        <pt x="497" y="710" on="1"/>
        <pt x="692" y="710" on="1"/>
        <pt x="692" y="345" on="1"/>
        <pt x="692" y="271" on="0"/>
        <pt x="654" y="142" on="0"/>
        <pt x="574" y="48" on="0"/>
        <pt x="453" y="-6" on="0"/>
        <pt x="371" y="-6" on="1"/>
        <pt x="286" y="-6" on="0"/>
        <pt x="165" y="51" on="0"/>
        <pt x="87" y="147" on="0"/>
        <pt x="51" y="274" on="0"/>
        <pt x="51" y="345" on="1"/>
        <pt x="51" y="710" on="1"/>
        <pt x="246" y="710" on="1"/>
        <pt x="246" y="345" on="1"/>
        <pt x="246" y="310" on="0"/>
        <pt x="260" y="245" on="0"/>
        <pt x="290" y="196" on="0"/>
        <pt x="337" y="167" on="0"/>
      </contour>
      <contour>
        <pt x="178" y="765" on="1"/>
        <pt x="178" y="905" on="1"/>
        <pt x="334" y="905" on="1"/>
        <pt x="334" y="765" on="1"/>
      </contour>
      <contour>
        <pt x="408" y="765" on="1"/>
        <pt x="408" y="905" on="1"/>
        <pt x="564" y="905" on="1"/>
        <pt x="564" y="765" on="1"/>
      </contour>
    </TTGlyph>
    <TTGlyph name="Udotbelow" xMin="51" yMin="-213" xMax="692" yMax="710">
      <contour>
        <pt x="371" y="167" on="1"/>
        <pt x="405" y="167" on="0"/>
        <pt x="453" y="197" on="0"/>
        <pt x="483" y="246" on="0"/>
        <pt x="497" y="310" on="0"/>
        <pt x="497" y="345" on="1"/>
        <pt x="497" y="710" on="1"/>
        <pt x="692" y="710" on="1"/>
        <pt x="692" y="345" on="1"/>
        <pt x="692" y="271" on="0"/>
        <pt x="654" y="142" on="0"/>
        <pt x="574" y="48" on="0"/>
        <pt x="453" y="-6" on="0"/>
        <pt x="371" y="-6" on="1"/>
        <pt x="286" y="-6" on="0"/>
        <pt x="165" y="51" on="0"/>
        <pt x="87" y="147" on="0"/>
        <pt x="51" y="274" on="0"/>
        <pt x="51" y="345" on="1"/>
        <pt x="51" y="710" on="1"/>
        <pt x="246" y="710" on="1"/>
        <pt x="246" y="345" on="1"/>
        <pt x="246" y="310" on="0"/>
        <pt x="260" y="245" on="0"/>
        <pt x="290" y="196" on="0"/>
        <pt x="337" y="167" on="0"/>
      </contour>
      <contour>
        <pt x="282" y="-213" on="1"/>
        <pt x="282" y="-63" on="1"/>
        <pt x="452" y="-63" on="1"/>
        <pt x="452" y="-213" on="1"/>
      </contour>
    </TTGlyph>
    <TTGlyph name="Ugrave" xMin="51" yMin="-6" xMax="692" yMax="915">
      <contour>
        <pt x="371" y="167" on="1"/>
        <pt x="405" y="167" on="0"/>
        <pt x="453" y="197" on="0"/>
        <pt x="483" y="246" on="0"/>
        <pt x="497" y="310" on="0"/>
        <pt x="497" y="345" on="1"/>
        <pt x="497" y="710" on="1"/>
        <pt x="692" y="710" on="1"/>
        <pt x="692" y="345" on="1"/>
        <pt x="692" y="271" on="0"/>
        <pt x="654" y="142" on="0"/>
        <pt x="574" y="48" on="0"/>
        <pt x="453" y="-6" on="0"/>
        <pt x="371" y="-6" on="1"/>
        <pt x="286" y="-6" on="0"/>
        <pt x="165" y="51" on="0"/>
        <pt x="87" y="147" on="0"/>
        <pt x="51" y="274" on="0"/>
        <pt x="51" y="345" on="1"/>
        <pt x="51" y="710" on="1"/>
        <pt x="246" y="710" on="1"/>
        <pt x="246" y="345" on="1"/>
        <pt x="246" y="310" on="0"/>
        <pt x="260" y="245" on="0"/>
        <pt x="290" y="196" on="0"/>
        <pt x="337" y="167" on="0"/>
      </contour>
      <contour>
        <pt x="214" y="915" on="1"/>
        <pt x="383" y="915" on="1"/>
        <pt x="433" y="773" on="1"/>
        <pt x="313" y="741" on="1"/>
      </contour>
    </TTGlyph>
    <TTGlyph name="Uhungarumlaut" xMin="51" yMin="-6" xMax="692" yMax="915">
      <contour>
        <pt x="371" y="167" on="1"/>
        <pt x="405" y="167" on="0"/>
        <pt x="453" y="197" on="0"/>
        <pt x="483" y="246" on="0"/>
        <pt x="497" y="310" on="0"/>
        <pt x="497" y="345" on="1"/>
        <pt x="497" y="710" on="1"/>
        <pt x="692" y="710" on="1"/>
        <pt x="692" y="345" on="1"/>
        <pt x="692" y="271" on="0"/>
        <pt x="654" y="142" on="0"/>
        <pt x="574" y="48" on="0"/>
        <pt x="453" y="-6" on="0"/>
        <pt x="371" y="-6" on="1"/>
        <pt x="286" y="-6" on="0"/>
        <pt x="165" y="51" on="0"/>
        <pt x="87" y="147" on="0"/>
        <pt x="51" y="274" on="0"/>
        <pt x="51" y="345" on="1"/>
        <pt x="51" y="710" on="1"/>
        <pt x="246" y="710" on="1"/>
        <pt x="246" y="345" on="1"/>
        <pt x="246" y="310" on="0"/>
        <pt x="260" y="245" on="0"/>
        <pt x="290" y="196" on="0"/>
        <pt x="337" y="167" on="0"/>
      </contour>
      <contour>
        <pt x="308" y="741" on="1"/>
        <pt x="218" y="773" on="1"/>
        <pt x="258" y="915" on="1"/>
        <pt x="397" y="915" on="1"/>
      </contour>
      <contour>
        <pt x="498" y="741" on="1"/>
        <pt x="408" y="773" on="1"/>
        <pt x="448" y="915" on="1"/>
        <pt x="587" y="915" on="1"/>
      </contour>
    </TTGlyph>
    <TTGlyph name="Uinvertedbreve" xMin="51" yMin="-6" xMax="692" yMax="914">
      <contour>
        <pt x="371" y="167" on="1"/>
        <pt x="405" y="167" on="0"/>
        <pt x="453" y="197" on="0"/>
        <pt x="483" y="246" on="0"/>
        <pt x="497" y="310" on="0"/>
        <pt x="497" y="345" on="1"/>
        <pt x="497" y="710" on="1"/>
        <pt x="692" y="710" on="1"/>
        <pt x="692" y="345" on="1"/>
        <pt x="692" y="271" on="0"/>
        <pt x="654" y="142" on="0"/>
        <pt x="574" y="48" on="0"/>
        <pt x="453" y="-6" on="0"/>
        <pt x="371" y="-6" on="1"/>
        <pt x="286" y="-6" on="0"/>
        <pt x="165" y="51" on="0"/>
        <pt x="87" y="147" on="0"/>
        <pt x="51" y="274" on="0"/>
        <pt x="51" y="345" on="1"/>
        <pt x="51" y="710" on="1"/>
        <pt x="246" y="710" on="1"/>
        <pt x="246" y="345" on="1"/>
        <pt x="246" y="310" on="0"/>
        <pt x="260" y="245" on="0"/>
        <pt x="290" y="196" on="0"/>
        <pt x="337" y="167" on="0"/>
      </contour>
      <contour>
        <pt x="371" y="833" on="1"/>
        <pt x="346" y="833" on="0"/>
        <pt x="310" y="785" on="0"/>
        <pt x="310" y="752" on="1"/>
        <pt x="212" y="752" on="1"/>
        <pt x="212" y="788" on="0"/>
        <pt x="235" y="847" on="0"/>
        <pt x="277" y="890" on="0"/>
        <pt x="336" y="914" on="0"/>
        <pt x="371" y="914" on="1"/>
        <pt x="406" y="914" on="0"/>
        <pt x="465" y="890" on="0"/>
        <pt x="507" y="847" on="0"/>
        <pt x="530" y="788" on="0"/>
        <pt x="530" y="752" on="1"/>
        <pt x="432" y="752" on="1"/>
        <pt x="429" y="787" on="0"/>
        <pt x="394" y="833" on="0"/>
      </contour>
    </TTGlyph>
    <TTGlyph name="Umacron" xMin="51" yMin="-6" xMax="692" yMax="904">
      <contour>
        <pt x="371" y="167" on="1"/>
        <pt x="405" y="167" on="0"/>
        <pt x="453" y="197" on="0"/>
        <pt x="483" y="246" on="0"/>
        <pt x="497" y="310" on="0"/>
        <pt x="497" y="345" on="1"/>
        <pt x="497" y="710" on="1"/>
        <pt x="692" y="710" on="1"/>
        <pt x="692" y="345" on="1"/>
        <pt x="692" y="271" on="0"/>
        <pt x="654" y="142" on="0"/>
        <pt x="574" y="48" on="0"/>
        <pt x="453" y="-6" on="0"/>
        <pt x="371" y="-6" on="1"/>
        <pt x="286" y="-6" on="0"/>
        <pt x="165" y="51" on="0"/>
        <pt x="87" y="147" on="0"/>
        <pt x="51" y="274" on="0"/>
        <pt x="51" y="345" on="1"/>
        <pt x="51" y="710" on="1"/>
        <pt x="246" y="710" on="1"/>
        <pt x="246" y="345" on="1"/>
        <pt x="246" y="310" on="0"/>
        <pt x="260" y="245" on="0"/>
        <pt x="290" y="196" on="0"/>
        <pt x="337" y="167" on="0"/>
      </contour>
      <contour>
        <pt x="217" y="791" on="1"/>
        <pt x="217" y="904" on="1"/>
        <pt x="527" y="904" on="1"/>
        <pt x="527" y="791" on="1"/>
      </contour>
    </TTGlyph>
    <TTGlyph name="Uogonek" xMin="51" yMin="-214" xMax="692" yMax="710">
      <contour>
        <pt x="385" y="-214" on="1"/>
        <pt x="307" y="-205" on="0"/>
        <pt x="233" y="-149" on="0"/>
        <pt x="233" y="-114" on="1"/>
        <pt x="233" y="-85" on="0"/>
        <pt x="273" y="-28" on="0"/>
        <pt x="313" y="-2" on="1"/>
        <pt x="244" y="7" on="0"/>
        <pt x="144" y="70" on="0"/>
        <pt x="81" y="163" on="0"/>
        <pt x="51" y="281" on="0"/>
        <pt x="51" y="345" on="1"/>
        <pt x="51" y="710" on="1"/>
        <pt x="246" y="710" on="1"/>
        <pt x="246" y="345" on="1"/>
        <pt x="246" y="310" on="0"/>
        <pt x="260" y="245" on="0"/>
        <pt x="290" y="196" on="0"/>
        <pt x="337" y="167" on="0"/>
        <pt x="371" y="167" on="1"/>
        <pt x="405" y="167" on="0"/>
        <pt x="453" y="197" on="0"/>
        <pt x="483" y="246" on="0"/>
        <pt x="497" y="310" on="0"/>
        <pt x="497" y="345" on="1"/>
        <pt x="497" y="710" on="1"/>
        <pt x="692" y="710" on="1"/>
        <pt x="692" y="345" on="1"/>
        <pt x="692" y="276" on="0"/>
        <pt x="659" y="154" on="0"/>
        <pt x="590" y="61" on="0"/>
        <pt x="485" y="3" on="0"/>
        <pt x="413" y="-4" on="1"/>
        <pt x="383" y="-23" on="0"/>
        <pt x="350" y="-60" on="0"/>
        <pt x="350" y="-77" on="1"/>
        <pt x="350" y="-94" on="0"/>
        <pt x="384" y="-114" on="0"/>
        <pt x="420" y="-114" on="1"/>
        <pt x="385" y="-214" on="1"/>
      </contour>
    </TTGlyph>
    <TTGlyph name="Uring" xMin="51" yMin="-6" xMax="692" yMax="914">
      <contour>
        <pt x="371" y="167" on="1"/>
        <pt x="405" y="167" on="0"/>
        <pt x="453" y="197" on="0"/>
        <pt x="483" y="246" on="0"/>
        <pt x="497" y="310" on="0"/>
        <pt x="497" y="345" on="1"/>
        <pt x="497" y="710" on="1"/>
        <pt x="692" y="710" on="1"/>
        <pt x="692" y="345" on="1"/>
        <pt x="692" y="271" on="0"/>
        <pt x="654" y="142" on="0"/>
        <pt x="574" y="48" on="0"/>
        <pt x="453" y="-6" on="0"/>
        <pt x="371" y="-6" on="1"/>
        <pt x="286" y="-6" on="0"/>
        <pt x="165" y="51" on="0"/>
        <pt x="87" y="147" on="0"/>
        <pt x="51" y="274" on="0"/>
        <pt x="51" y="345" on="1"/>
        <pt x="51" y="710" on="1"/>
        <pt x="246" y="710" on="1"/>
        <pt x="246" y="345" on="1"/>
        <pt x="246" y="310" on="0"/>
        <pt x="260" y="245" on="0"/>
        <pt x="290" y="196" on="0"/>
        <pt x="337" y="167" on="0"/>
      </contour>
      <contour>
        <pt x="254" y="827" on="1"/>
        <pt x="254" y="871" on="0"/>
        <pt x="317" y="914" on="0"/>
        <pt x="371" y="914" on="1"/>
        <pt x="425" y="914" on="0"/>
        <pt x="488" y="871" on="0"/>
        <pt x="488" y="827" on="1"/>
        <pt x="488" y="783" on="0"/>
        <pt x="425" y="740" on="0"/>
        <pt x="371" y="740" on="1"/>
        <pt x="317" y="740" on="0"/>
        <pt x="254" y="783" on="0"/>
      </contour>
      <contour>
        <pt x="371" y="860" on="1"/>
        <pt x="354" y="860" on="0"/>
        <pt x="331" y="842" on="0"/>
        <pt x="331" y="828" on="1"/>
        <pt x="331" y="813" on="0"/>
        <pt x="354" y="794" on="0"/>
        <pt x="371" y="794" on="1"/>
        <pt x="388" y="794" on="0"/>
        <pt x="411" y="813" on="0"/>
        <pt x="411" y="828" on="1"/>
        <pt x="411" y="842" on="0"/>
        <pt x="388" y="860" on="0"/>
      </contour>
    </TTGlyph>
    <TTGlyph name="Utilde" xMin="51" yMin="-6" xMax="692" yMax="914">
      <contour>
        <pt x="371" y="167" on="1"/>
        <pt x="405" y="167" on="0"/>
        <pt x="453" y="197" on="0"/>
        <pt x="483" y="246" on="0"/>
        <pt x="497" y="310" on="0"/>
        <pt x="497" y="345" on="1"/>
        <pt x="497" y="710" on="1"/>
        <pt x="692" y="710" on="1"/>
        <pt x="692" y="345" on="1"/>
        <pt x="692" y="271" on="0"/>
        <pt x="654" y="142" on="0"/>
        <pt x="574" y="48" on="0"/>
        <pt x="453" y="-6" on="0"/>
        <pt x="371" y="-6" on="1"/>
        <pt x="286" y="-6" on="0"/>
        <pt x="165" y="51" on="0"/>
        <pt x="87" y="147" on="0"/>
        <pt x="51" y="274" on="0"/>
        <pt x="51" y="345" on="1"/>
        <pt x="51" y="710" on="1"/>
        <pt x="246" y="710" on="1"/>
        <pt x="246" y="345" on="1"/>
        <pt x="246" y="310" on="0"/>
        <pt x="260" y="245" on="0"/>
        <pt x="290" y="196" on="0"/>
        <pt x="337" y="167" on="0"/>
      </contour>
      <contour>
        <pt x="435" y="756" on="1"/>
        <pt x="412" y="756" on="0"/>
        <pt x="377" y="771" on="0"/>
        <pt x="347" y="789" on="0"/>
        <pt x="318" y="804" on="0"/>
        <pt x="301" y="804" on="1"/>
        <pt x="284" y="804" on="0"/>
        <pt x="266" y="790" on="0"/>
        <pt x="257" y="772" on="0"/>
        <pt x="255" y="757" on="0"/>
        <pt x="255" y="756" on="1"/>
        <pt x="154" y="756" on="1"/>
        <pt x="154" y="769" on="0"/>
        <pt x="169" y="822" on="0"/>
        <pt x="203" y="874" on="0"/>
        <pt x="255" y="914" on="0"/>
        <pt x="293" y="914" on="1"/>
        <pt x="317" y="914" on="0"/>
        <pt x="353" y="898" on="0"/>
        <pt x="383" y="879" on="0"/>
        <pt x="411" y="863" on="0"/>
        <pt x="428" y="863" on="1"/>
        <pt x="444" y="863" on="0"/>
        <pt x="464" y="878" on="0"/>
        <pt x="475" y="897" on="0"/>
        <pt x="478" y="913" on="0"/>
        <pt x="478" y="914" on="1"/>
        <pt x="578" y="914" on="1"/>
        <pt x="578" y="905" on="0"/>
        <pt x="562" y="854" on="0"/>
        <pt x="528" y="799" on="0"/>
        <pt x="474" y="756" on="0"/>
      </contour>
    </TTGlyph>
    <TTGlyph name="V" xMin="-8" yMin="0" xMax="679" yMax="710">
      <contour>
        <pt x="198" y="710" on="1"/>
        <pt x="337" y="245" on="1"/>
        <pt x="474" y="710" on="1"/>
        <pt x="679" y="710" on="1"/>
        <pt x="418" y="0" on="1"/>
        <pt x="256" y="0" on="1"/>
        <pt x="-8" y="710" on="1"/>
      </contour>
    </TTGlyph>
    <TTGlyph name="V.sc" xMin="-9" yMin="0" xMax="608" yMax="568">
      <contour>
        <pt x="171" y="568" on="1"/>
        <pt x="301" y="241" on="1"/>
        <pt x="429" y="568" on="1"/>
        <pt x="608" y="568" on="1"/>
        <pt x="372" y="0" on="1"/>
        <pt x="230" y="0" on="1"/>
        <pt x="-9" y="568" on="1"/>
      </contour>
    </TTGlyph>
    <TTGlyph name="W" xMin="-12" yMin="0" xMax="1069" yMax="710">
      <contour>
        <pt x="287" y="710" on="1"/>
        <pt x="466" y="710" on="1"/>
        <pt x="528" y="491" on="1"/>
        <pt x="591" y="710" on="1"/>
        <pt x="770" y="710" on="1"/>
        <pt x="653" y="371" on="1"/>
        <pt x="704" y="223" on="1"/>
        <pt x="857" y="710" on="1"/>
        <pt x="1069" y="710" on="1"/>
        <pt x="791" y="0" on="1"/>
        <pt x="629" y="0" on="1"/>
        <pt x="528" y="254" on="1"/>
        <pt x="428" y="0" on="1"/>
        <pt x="266" y="0" on="1"/>
        <pt x="-12" y="710" on="1"/>
        <pt x="199" y="710" on="1"/>
        <pt x="353" y="223" on="1"/>
        <pt x="402" y="371" on="1"/>
      </contour>
    </TTGlyph>
    <TTGlyph name="W.alt" xMin="0" yMin="0" xMax="1149" yMax="711">
      <contour>
        <pt x="1149" y="711" on="1"/>
        <pt x="930" y="1" on="1"/>
        <pt x="728" y="1" on="1"/>
        <pt x="574" y="391" on="1"/>
        <pt x="421" y="0" on="1"/>
        <pt x="219" y="0" on="1"/>
        <pt x="0" y="710" on="1"/>
        <pt x="221" y="710" on="1"/>
        <pt x="340" y="295" on="1"/>
        <pt x="468" y="710" on="1"/>
        <pt x="680" y="710" on="1"/>
        <pt x="809" y="296" on="1"/>
        <pt x="927" y="711" on="1"/>
      </contour>
    </TTGlyph>
    <TTGlyph name="W.sc" xMin="-11" yMin="0" xMax="960" yMax="568">
      <contour>
        <pt x="260" y="568" on="1"/>
        <pt x="416" y="568" on="1"/>
        <pt x="474" y="397" on="1"/>
        <pt x="532" y="568" on="1"/>
        <pt x="689" y="568" on="1"/>
        <pt x="583" y="293" on="1"/>
        <pt x="624" y="204" on="1"/>
        <pt x="774" y="568" on="1"/>
        <pt x="960" y="568" on="1"/>
        <pt x="708" y="0" on="1"/>
        <pt x="567" y="0" on="1"/>
        <pt x="474" y="192" on="1"/>
        <pt x="382" y="0" on="1"/>
        <pt x="240" y="0" on="1"/>
        <pt x="-11" y="568" on="1"/>
        <pt x="173" y="568" on="1"/>
        <pt x="325" y="204" on="1"/>
        <pt x="364" y="293" on="1"/>
      </contour>
    </TTGlyph>
    <TTGlyph name="Wacute" xMin="-12" yMin="0" xMax="1069" yMax="914">
      <contour>
        <pt x="287" y="710" on="1"/>
        <pt x="466" y="710" on="1"/>
        <pt x="528" y="491" on="1"/>
        <pt x="591" y="710" on="1"/>
        <pt x="770" y="710" on="1"/>
        <pt x="653" y="371" on="1"/>
        <pt x="704" y="223" on="1"/>
        <pt x="857" y="710" on="1"/>
        <pt x="1069" y="710" on="1"/>
        <pt x="791" y="0" on="1"/>
        <pt x="629" y="0" on="1"/>
        <pt x="528" y="254" on="1"/>
        <pt x="428" y="0" on="1"/>
        <pt x="266" y="0" on="1"/>
        <pt x="-12" y="710" on="1"/>
        <pt x="199" y="710" on="1"/>
        <pt x="353" y="223" on="1"/>
        <pt x="402" y="371" on="1"/>
      </contour>
      <contour>
        <pt x="586" y="740" on="1"/>
        <pt x="466" y="772" on="1"/>
        <pt x="516" y="914" on="1"/>
        <pt x="685" y="914" on="1"/>
      </contour>
    </TTGlyph>
    <TTGlyph name="Wcircumflex" xMin="-12" yMin="0" xMax="1069" yMax="914">
      <contour>
        <pt x="287" y="710" on="1"/>
        <pt x="466" y="710" on="1"/>
        <pt x="528" y="491" on="1"/>
        <pt x="591" y="710" on="1"/>
        <pt x="770" y="710" on="1"/>
        <pt x="653" y="371" on="1"/>
        <pt x="704" y="223" on="1"/>
        <pt x="857" y="710" on="1"/>
        <pt x="1069" y="710" on="1"/>
        <pt x="791" y="0" on="1"/>
        <pt x="629" y="0" on="1"/>
        <pt x="528" y="254" on="1"/>
        <pt x="428" y="0" on="1"/>
        <pt x="266" y="0" on="1"/>
        <pt x="-12" y="710" on="1"/>
        <pt x="199" y="710" on="1"/>
        <pt x="353" y="223" on="1"/>
        <pt x="402" y="371" on="1"/>
      </contour>
      <contour>
        <pt x="347" y="799" on="1"/>
        <pt x="460" y="914" on="1"/>
        <pt x="596" y="914" on="1"/>
        <pt x="709" y="799" on="1"/>
        <pt x="613" y="757" on="1"/>
        <pt x="528" y="820" on="1"/>
        <pt x="443" y="757" on="1"/>
      </contour>
    </TTGlyph>
</ttFont>
